<ttFont>
<head>
        <!-- Most of this table will be recalculated by the compiler -->
        <tableVersion value="1.0"/>
        <fontRevision value="1.002"/>
        <checkSumAdjustment value="0x4ae45461"/>
        <magicNumber value="0x5f0f3cf5"/>
        <flags value="00000000 00000011"/>
        <unitsPerEm value="1000"/>
        <created value="Fri Jan 15 17:22:49 2016"/>
        <modified value="Fri Jan 15 22:22:50 2016"/>
        <xMin value="-1787"/>
        <yMin value="-333"/>
        <xMax value="783"/>
        <yMax value="1282"/>
        <macStyle value="00000000 00000000"/>
        <lowestRecPPEM value="3"/>
        <fontDirectionHint value="2"/>
        <indexToLocFormat value="0"/>
        <glyphDataFormat value="0"/>
    </head>
                    <CharString index="0">
                        rmoveto
14 130 -225 3 -83 25 -17 94 rlinecurve
339 9 rlineto
205 20 -75 124 -161 hhcurveto
-150 -132 -133 -175 -184 95 -108 375 10 hvcurveto
-217 463 rmoveto
63 26 -41 -74 4 hvcurveto
-58 -1 -81 -3 -51 -2 rrcurveto
90 5 32 31 60 hhcurveto
endchar
                    </CharString>
                    <CharString index="1">
                        rmoveto
175 111 135 252 218 -88 119 -160 -174 -111 -134 -252 -219 88 -119 159 hvcurveto
14 591 rmoveto
66 37 -79 -162 -150 -26 -67 -66 -67 -36 79 162 150 25 67 67 hvcurveto
endchar
                    </CharString>
                    <CharString index="2">
                        250 3 90 66 75 vvcurveto
50 -47 42 -121 21 vhcurveto
156 99 -9 95 rlineto
-317 -103 hlineto
183 2 rlineto
-4 vlineto
-149 -92 rlineto
-60 vlineto
126 -11 59 -18 -21 vvcurveto
-22 -52 -10 -177 -5 vhcurveto
return
                    </CharString>
                    <CharString index="3">
                        rmoveto
87 82 68 107 62 hvcurveto
-88 46 rlineto
-62 -42 -38 -35 -49 hhcurveto
-48 -37 31 71 -47 hvcurveto
-107 -63 rlineto
-107 57 81 -56 87 hhcurveto
return
                    </CharString>
                    <CharString index="4">
                        -39 callgsubr
-160 hlineto
-3 -161 rlineto
-90 hmoveto
3 161 rlineto
-160 hlineto
-3 -161 rlineto
return
                    </CharString>
                    <CharString index="5">
                        rmoveto
104 87 64 94 126 -150 35 -108 -73 hvcurveto
15 55 50 27 140 39 -39 101 rcurveline
-194 -54 -95 -101 -128 vvcurveto
-121 77 -64 113 vhcurveto
10 95 rmoveto
-44 -36 29 66 -2 hvcurveto
87 31 61 -19 -51 vvcurveto
-37 -26 -19 -40 vhcurveto
endchar
                    </CharString>
                    <CharString index="6">
                        rmoveto
-60 43 -122 96 -69 61 -101 -125 rcurveline
87 -53 140 -62 83 -28 rrcurveto
return
                    </CharString>
                    <CharString index="7">
                        rmoveto
hintmask 0010101110000000
146 7 rlineto
-7 127 -3 171 260 vvcurveto
-157 hlineto
hintmask 1000011110000000
-167 1 -144 2 -106 vhcurveto
-16 -26 -26 -10 -32 hhcurveto
-46 -30 25 91 hvcurveto
331 vlineto
hintmask 1001001110000000
-157 -9 rlineto
-379 vlineto
-137 58 -57 97 75 55 35 41 42 vhcurveto
endchar
                    </CharString>
                    <CharString index="8">
                        rmoveto
81 -24 65 58 39 103 1 92 rlinecurve
-184 -8 19 -69 -1 -84 -20 -68 rlinecurve
endchar
                    </CharString>
                    <CharString index="9">
                        117 73 64 62 74 vvcurveto
77 -76 61 -248 vhcurveto
-9 -108 rlineto
161 -7 47 -16 -40 vvcurveto
-50 -78 -53 -147 -82 vhcurveto
12 -94 rlineto
return
                    </CharString>
                    <CharString index="10">
                        rmoveto
8 100 -55 -1 1 133 -115 -10 1 -123 -111 1 75 262 -133 8 -34 -125 -18 -146 5 -99 rlinecurve
216 2 -1 -76 rlineto
115 hlineto
-1 75 rlineto
return
                    </CharString>
                    <CharString index="11">
                        -127 563 rmoveto
10 hlineto
19 -88 19 -90 19 -90 rrcurveto
5 callsubr
19 90 19 90 20 88 rrcurveto
endchar
                    </CharString>
                    <CharString index="12">
                        152 hlineto
14 130 22 262 15 296 rrcurveto
-152 hlineto
hintmask 10111000
-9 -469 rlineto
-5 hlineto
-25 102 -16 58 -27 101 rrcurveto
-81 hlineto
-26 -101 -11 -57 -25 -103 rrcurveto
-4 hlineto
-17 469 rlineto
-156 hlineto
14 -296 21 -262 15 -130 rrcurveto
147 hlineto
74 295 rlineto
endchar
                    </CharString>
                    <CharString index="13">
                        rmoveto
129 83 99 140 136 -70 86 -126 -128 -84 -99 -140 -137 70 -85 126 hvcurveto
5 362 rmoveto
56 28 -52 -88 -77 -23 -45 -53 -57 -28 52 88 76 22 46 55 hvcurveto
endchar
                    </CharString>
                    <CharString index="14">
                        -48 340 rmoveto
17 21 17 36 44 20 -21 -26 -20 -16 -20 -24 -14 vhcurveto
-45 21 -36 20 26 vvcurveto
return
                    </CharString>
                    <CharString index="15">
                        494 472 rmoveto
-99 callgsubr
-75 -42 callsubr
return
                    </CharString>
                    <CharString index="16">
                        -15 -53 -27 -83 -18 -63 rrcurveto
-4 hlineto
-2 151 -3 93 -1 137 rrcurveto
-151 hlineto
8 -216 26 -236 17 -110 rrcurveto
136 hlineto
70 243 rlineto
endchar
                    </CharString>
                    <CharString index="17">
                        -181 444 -332 hlineto
-12 -112 185 -9 rlineto
-323 -181 -10 callgsubr
                    </CharString>
                    <CharString index="18">
                        -37 -60 80 -71 hhcurveto
-64 -59 -70 -89 -40 hvcurveto
79 -38 rlineto
54 28 23 18 14 hhcurveto
return
                    </CharString>
                    <CharString index="19">
                        rmoveto
-176 91 -135 359 36 vhcurveto
15 129 rlineto
-231 -16 -77 42 141 vvcurveto
97 27 48 273 -16 vhcurveto
-10 148 rlineto
-345 5 -102 -143 -160 vvcurveto
endchar
                    </CharString>
                    <CharString index="20">
                        -70 callgsubr
hintmask 11111101
420 -475 -106 callgsubr
endchar
                    </CharString>
                    <CharString index="21">
                        0 118 327.5 116.5 return
                    </CharString>
                    <CharString index="22">
                        -13 130 126.5 91.5 115 127 return
                    </CharString>
                    <CharString index="23">
                        -41 105 -53 176 -37 104 -160 -11 rcurveline
30 -85 126 -338 39 -93 33 -15 rcurveline
-27 -58 -39 -7 -121 -16 rrcurveto
endchar
                    </CharString>
                    <CharString index="24">
                        230 vlineto
hintmask 10101000
214 458 rlineto
-168 hlineto
-124 -307 rlineto
hintmask 10011000
-131 311 rlineto
hintmask 11001000
-172 -7 216 -458 rlineto
-227 vlineto
endchar
                    </CharString>
                    <CharString index="25">
                        rmoveto
-93 -58 -54 -71 -68 60 -53 91 93 59 53 72 66 -61 55 -91 hvcurveto
return
                    </CharString>
                    <CharString index="26">
                        15 -21 27 -2 callgsubr
165 118 268 131 return
                    </CharString>
                    <CharString index="27">
                        56 26 32 34 46 vvcurveto
70 -75 45 -99 -123 -64 -67 -60 return
                    </CharString>
                    <CharString index="28">
                        -39 callgsubr
-165 hlineto
-4 -161 rlineto
return
                    </CharString>
                    <CharString index="29">
                        rmoveto
52 123 rlineto
-163 48 -80 38 51 vvcurveto
hintmask 10010000
53 93 45 71 vvcurveto
44 -34 43 -90 26 vhcurveto
hintmask 10001000
88 30 33 46 42 vvcurveto
hintmask 11000000
63 -96 52 44 vvcurveto
39 80 32 172 46 vhcurveto
-50 125 -268 -84 -87 -84 1 -84 rlinecurve
hintmask 10001000
1 -86 107 -43 -42 vvcurveto
-26 -35 -13 -116 -14 vhcurveto
-5 -110 rlineto
hintmask 10010000
98 -10 50 -24 -36 vvcurveto
hintmask 10100000
-46 -99 -48 -89 vvcurveto
-86 83 -51 265 -85 vhcurveto
endchar
                    </CharString>
                    <CharString index="30">
                        rmoveto
-300 18 -113 -93 -104 -142 287 -24 -61 vvcurveto
-38 -68 -10 -203 10 vhcurveto
-6 -133 rlineto
333 -11 109 84 104 vvcurveto
return
                    </CharString>
                    <CharString index="31">
                        rmoveto
70 -18 59 88 35 86 2 113 rlinecurve
-163 -1 11 -90 -1 -88 -13 -90 rlinecurve
return
                    </CharString>
                    <CharString index="32">
                        13 1 callsubr
-165 660 -308 hlineto
-13 -113 162 -9 rlineto
-538 5 callgsubr
return
                    </CharString>
                    <CharString index="33">
                        11 141 -310 -3 299 414 rlineto
136 -469 vlineto
-10 -141 301 4 -301 -414 rlineto
-137 vlineto
endchar
                    </CharString>
                    <CharString index="34">
                        -70 callgsubr
hintmask 1011111100010000
-44 callgsubr
hintmask 1011111010100000
-80 callsubr
vhcurveto
return
                    </CharString>
                    <CharString index="35">
                        0 134 152 118 150 134 return
                    </CharString>
                    <CharString index="36">
                        hstemhm
125 118 -7 callsubr
21 callsubr
-115 124 return
                    </CharString>
                    <CharString index="37">
                        rmoveto
6 hlineto
hintmask 11011000
-272 -71 vlineto
hintmask 10111000
23 91 22 91 20 90 rrcurveto
6 -554 rmoveto
296 hlineto
9 134 rlineto
-174 152 132 118 -132 150 168 134 -400 hlineto
-62 -226 -72 -234 -57 -228 rrcurveto
152 hlineto
hintmask 11011000
13 55 13 54 14 55 rrcurveto
100 hlineto
endchar
                    </CharString>
                    <CharString index="38">
                        -55 228 -55 226 -65 228 return
                    </CharString>
                    <CharString index="39">
                        52 150 51 170 34 117 rrcurveto
-152 hlineto
-102 -380 rlineto
-11 hlineto
return
                    </CharString>
                    <CharString index="40">
                        rmoveto
45 30 -26 -90 hvcurveto
-327 158 384 vlineto
return
                    </CharString>
                    <CharString index="41">
                        -67 callsubr
hintmask 10101110
-43 callsubr
hintmask 10011110
-8 62 rlineto
hintmask 10101110
-62 callsubr
hintmask 11001110
-54 callgsubr
endchar
                    </CharString>
                    <CharString index="42">
                        rmoveto
111 39 49 60 24 21 -8 -15 17 vhcurveto
-154 -219 rlineto
-4 23 -3 28 31 vvcurveto
110 -186 rmoveto
-24 -21 7 16 -17 hvcurveto
154 217 rlineto
5 -23 2 -26 -30 vvcurveto
-112 -39 -49 -60 vhcurveto
-29 -126 rmoveto
154 129 125 189 hvcurveto
return
                    </CharString>
                    <CharString index="43">
                        -105 callsubr
-72 -277 -70 callgsubr
return
                    </CharString>
                    <CharString index="44">
                        166 12 -69 callsubr
rlinecurve
-225 hlineto
return
                    </CharString>
                    <CharString index="45">
                        -147 -8 rlineto
8 -125 2 -172 -260 vvcurveto
158 hlineto
return
                    </CharString>
                    <CharString index="46">
                        139 hlineto
17 110 27 236 9 216 rrcurveto
-146 hlineto
return
                    </CharString>
                    <CharString index="47">
                        -259 122 158 -21 hstemhm
162 150 -150 275 hintmask 11010000
397 59 rmoveto
hintmask 11100000
-165 -70 -70 -64 -62 -11 callgsubr
13 122 rlineto
-83 6 -30 17 23 vvcurveto
23 30 30 95 38 vhcurveto
endchar
                    </CharString>
                    <CharString index="48">
                        -26 callgsubr
hintmask 01011100
-688 vlineto
hintmask 10011100
356 -47 145 138 265 vvcurveto
hintmask 10101100
-166 -21 rmoveto
-165 -31 -62 -144 20 vhcurveto
436 vlineto
141 14 34 -83 -160 vvcurveto
endchar
                    </CharString>
                    <CharString index="49">
                        100 262 99 hstem
107 124 161 123 vstem
303 return
                    </CharString>
                    <CharString index="50">
                        rmoveto
181 231 6 153 -182 226 -111 -90 176 -216 -181 -213 rlineto
-168 -91 rmoveto
181 231 7 153 -182 226 -111 -90 176 -216 -182 -213 rlineto
endchar
                    </CharString>
                    <CharString index="51">
                        60 -26 33 -22 -20 vvcurveto
-18 -33 -11 -81 -8 vhcurveto
return
                    </CharString>
                    <CharString index="52">
                        140 -288 38 58 vvcurveto
36 67 10 188 -16 vhcurveto
return
                    </CharString>
                    <CharString index="53">
                        146 125 -456 -125 return
                    </CharString>
                    <CharString index="54">
                        -11 callsubr
169 154 return
                    </CharString>
                    <CharString index="55">
                        -16 127 466 127 hstem
54 148 220 149 vstem
303 -16 rmoveto
166 102 149 223 217 -80 131 -170 -165 -102 -149 -223 -217 80 -131 169 hvcurveto
return
                    </CharString>
                    <CharString index="56">
                        rmoveto
-232 -205 -90 -161 -163 vvcurveto
-158 88 -158 229 -204 vhcurveto
109 95 rlineto
-204 172 -66 129 131 vvcurveto
129 62 123 211 177 vhcurveto
endchar
                    </CharString>
                    <CharString index="57">
                        103 239 108 hstem
354 125 vstem
490 return
                    </CharString>
                    <CharString index="58">
                        hintmask 10011100
428 -10 rmoveto
hintmask 00111100
176 20 -188 347 172 331 rlineto
-173 hlineto
-130 -272 rlineto
-44 272 -163 hlineto
hintmask 01011100
-688 163 281 39 vlineto
return
                    </CharString>
                    <CharString index="59">
                        95 110 78 hstem
121 118 148 115 vstem
311 return
                    </CharString>
                    <CharString index="60">
                        hstem
53 160 200 160 vstem
return
                    </CharString>
                    <CharString index="61">
                        107 242 102 hstem
373 119 vstem
152 return
                    </CharString>
                    <CharString index="62">
                        -9 140 420 144 -139 139 hstemhm
85 171 return
                    </CharString>
                    <CharString index="63">
                        21 -21 688 -20 hstem
72 147 187.5 146.5 vstem
return
                    </CharString>
                    <CharString index="64">
                        137 -60 56 -95 -75 -55 -34 -40 -42 vhcurveto
return
                    </CharString>
                    <CharString index="65">
                        -183 -70 callgsubr
return
                    </CharString>
                    <CharString index="66">
                        rmoveto
182 135 -524 hlineto
-11 -135 rlineto
188 -553 165 hlineto
return
                    </CharString>
                    <CharString index="67">
                        0 139.5 409.5 139 return
                    </CharString>
                    <CharString index="68">
                        105.5 return
                    </CharString>
                    <CharString index="69">
                        rmoveto
215 14 65 53 86 254 rrcurveto
return
                    </CharString>
                    <CharString index="70">
                        -69 65 -49 113 vhcurveto
return
                    </CharString>
                    <CharString index="71">
                        -47 39 -34 47 -26 vhcurveto
return
                    </CharString>
                    <CharString index="72">
                        rmoveto
-61 callsubr
return
                    </CharString>
                    <CharString index="73">
                        134 -10 -20 hstemhm
79 160 175 166 return
                    </CharString>
                    <CharString index="74">
                        110 238 103 return
                    </CharString>
                    <CharString index="75">
                        rmoveto
-65 -45 51 125 104 39 50 68 19 23 -4 -8 25 hvcurveto
1 -117 2 -101 2 -77 rrcurveto
-15 -20 -20 -8 -29 hhcurveto
return
                    </CharString>
                    <CharString index="76">
                        -211 108 -162 359 34 vhcurveto
endchar
                    </CharString>
                    <CharString index="77">
                        -177 -21 255 121 266 132 return
                    </CharString>
                    <CharString index="78">
                        549 hmoveto
-75 callsubr
return
                    </CharString>
                    <CharString index="79">
                        347.5 114 return
                    </CharString>
                    <CharString index="80">
                        rmoveto
249 231 10 153 -251 226 -104 -110 228 -195 -236 -195 rlineto
endchar
                    </CharString>
                    <CharString index="81">
                        -175 -21 758 -20 25 -20 return
                    </CharString>
                    <CharString index="82">
                        rmoveto
105 110 -228 195 236 195 -105 110 -248 -231 -10 -153 rlineto
endchar
                    </CharString>
                    <CharString index="83">
                        -16 129 -95 -21 28 -21 439 134 19 callsubr
54 156 174 158 return
                    </CharString>
                    <CharString index="84">
                        0 118 542.5 -21 callsubr
return
                    </CharString>
                    <CharString index="85">
                        rmoveto
0 9 7 6 9 9 7 -6 0 hflex1
0 -9 -7 -7 -9 -9 -7 6 0 hflex1
return
                    </CharString>
                    <CharString index="86">
                        117.5 return
                    </CharString>
                    <CharString index="87">
                        38 60 -80 71 hhcurveto
return
                    </CharString>
                    <CharString index="88">
                        0 135 553 -20 hstem
11 callsubr
vstem
return
                    </CharString>
                    <CharString index="89">
                        rmoveto
3 183 rlineto
-207 hlineto
-3 -183 rlineto
return
                    </CharString>
                    <CharString index="90">
                        hstem
232 164 vstem
return
                    </CharString>
                    <CharString index="91">
                        rmoveto
376 hlineto
15 125 rlineto
-240 730 232 124 -383 hlineto
endchar
                    </CharString>
                    <CharString index="92">
                        0 134 30 118 4 118 150 134 hstemhm
289 131 hintmask 10111000
return
                    </CharString>
                    <CharString index="93">
                        rmoveto
-11 -125 rlineto
388 979 -381 -124 230 -730 hlineto
endchar
                    </CharString>
                    <CharString index="94">
                        rmoveto
13 122 rlineto
-83 5 -30 17 23 vvcurveto
return
                    </CharString>
                    <CharString index="95">
                        hstemhm
-4 callsubr
return
                    </CharString>
                    <CharString index="96">
                        hstemhm
64 156 return
                    </CharString>
                    <CharString index="97">
                        -23 callsubr
hstem
238 159 return
                    </CharString>
                    <CharString index="98">
                        -8 129 322 119 146 -20 return
                    </CharString>
                    <CharString index="99">
                        hstemhm
26 574 return
                    </CharString>
                    <CharString index="100">
                        -112 124 return
                    </CharString>
                    <CharString index="101">
                        hintmask 000000000000000100000010000000000000000000000000
return
                    </CharString>
                    <CharString index="102">
                        0 137 288 137 return
                    </CharString>
                    <CharString index="103">
                        165 -39 callsubr
return
                    </CharString>
                    <CharString index="104">
                        -10 126 431 152 return
                    </CharString>
                    <CharString index="105">
                        417 639 rmoveto
10 161 rlineto
-166 hlineto
-10 -161 rlineto
return
                    </CharString>
                    <CharString index="106">
                        146 7 rlineto
-7 120 -2 169 274 vvcurveto
227 vlineto
return
                    </CharString>
                    <CharString index="107">
                        105 hstem
137 364 vstem
310 return
                    </CharString>
                    <CharString index="108">
                        118 rlineto
return
                    </CharString>
                    <CharString index="109">
                        -21 callsubr
-113.5 118.5 return
                    </CharString>
                    <CharString index="110">
                        580 356 -26 callgsubr
return
                    </CharString>
                    <CharString index="111">
                        145.5 return
                    </CharString>
                    <CharString index="112">
                        -125 hlineto
return
                    </CharString>
                    <CharString index="113">
                        -6 2 -3 5 4 2 2 4 1 vhcurveto
5 hlineto
return
                    </CharString>
                    <CharString index="114">
                        136 330 127 19 callsubr
return
                    </CharString>
                    <CharString index="115">
                        hintmask 010000000000000000000000000000000000000000000000
return
                    </CharString>
                    <CharString index="116">
                        -466 -132 466 hlineto
return
                    </CharString>
                    <CharString index="117">
                        238 159 return
                    </CharString>
                    <CharString index="118">
                        111 165 return
                    </CharString>
                    <CharString index="119">
                        rmoveto
25 hlineto
47 147 rlineto
2 -217 89 return
                    </CharString>
                    <CharString index="120">
                        -37 callgsubr
hstemhm
return
                    </CharString>
                    <CharString index="121">
                        -1 -76 rlineto
115 hlineto
-1 75 rlineto
endchar
                    </CharString>
                    <CharString index="122">
                        610 hstem
129 363 vstem
233 return
                    </CharString>
                    <CharString index="123">
                        -167 3 3 155 -149 1 rlineto
return
                    </CharString>
                    <CharString index="124">
                        -21 callsubr
hstem
10 callsubr
return
                    </CharString>
                    <CharString index="125">
                        1049 hstem
110 156 vstem
432 return
                    </CharString>
                    <CharString index="126">
                        203 11 callgsubr
return
                    </CharString>
                    <CharString index="127">
                        -20 20 -12 -20 return
                    </CharString>
                    <CharString index="128">
                        121 116 return
                    </CharString>
                <CharString name=".notdef">
                    443 -200 50 900 50 hstem
5 54 432 54 vstem
5 -200 rmoveto
540 1000 -540 hlineto
77 -50 rmoveto
386 hlineto
-193 -390 rlineto
216 316 rmoveto
-752 vlineto
-186 376 rlineto
-246 -376 rmoveto
752 vlineto
186 -376 rlineto
30 -60 rmoveto
193 -390 rlineto
-386 hlineto
endchar
                </CharString>
                <CharString name="A">
                    -81 callsubr
-8 callsubr
hintmask 10011100
434 -6 -103 callgsubr
                </CharString>
                <CharString name="AE">
                    -15 callsubr
283 554 -70 callsubr
                </CharString>
                <CharString name="AEacute">
                    -15 callsubr
218 817 -107 callgsubr
65 -263 -70 callsubr
                </CharString>
                <CharString name="Aacute">
                    -81 callsubr
-8 callsubr
hintmask 00111100
164 817 -107 callgsubr
hintmask 10011100
270 -823 -103 callgsubr
                </CharString>
                <CharString name="Abreve">
                    -81 callsubr
65 124 -8 callsubr
hintmask 00111110
314 753 -104 callsubr
hintmask 10011110
120 -759 rmoveto
hintmask 00111110
-63 callsubr
hintmask 01011110
-96 callgsubr
hintmask 10011110
12 -60 12 -59 11 -58 rrcurveto
hintmask 00111110
-96 callsubr
                </CharString>
                <CharString name="Acircumflex">
                    -81 callsubr
-8 callsubr
hintmask 00111100
430 750 -100 callgsubr
hintmask 10011100
140 -858 -103 callgsubr
                </CharString>
                <CharString name="Adieresis">
                    -81 callsubr
78 -24 callgsubr
107.5 -42 callgsubr
hintmask 00111111
514 766 -103 callsubr
hintmask 10011111
328 -772 rmoveto
hintmask 00111111
-63 callsubr
hintmask 01011111
-96 callgsubr
hintmask 10011111
12 -60 12 -59 11 -58 rrcurveto
hintmask 00111111
-96 callsubr
                </CharString>
                <CharString name="Agrave">
                    -81 callsubr
-8 callsubr
hintmask 00111100
449 815 -101 callsubr
hintmask 10011100
27 -753 -103 callgsubr
                </CharString>
                <CharString name="Amacron">
                    -81 callsubr
92 134 -8 callsubr
hintmask 00111110
510 914 -66 callgsubr
hintmask 10011110
-76 -786 rmoveto
hintmask 00111110
-63 callsubr
hintmask 01011110
-96 callgsubr
hintmask 10011110
12 -60 12 -59 11 -58 rrcurveto
hintmask 00111110
-96 callsubr
                </CharString>
                <CharString name="Aogonek">
                    -253 122 152 -2 callgsubr
165 118 268 131 hstemhm
326 149 hintmask 10111100
575 -253 rmoveto
14 122 rlineto
-84 6 -30 16 24 vvcurveto
23 30 30 95 38 vhcurveto
-69 callsubr
rrcurveto
-87 callgsubr
11 -58 12 -57 11 -56 rrcurveto
-74 -46 -33 -43 -42 vvcurveto
hintmask 10111100
-63 70 -55 179 -4 vhcurveto
-268 810 rmoveto
10 hlineto
hintmask 00111100
19 -88 19 -90 19 -90 rrcurveto
5 callsubr
hintmask 10111100
19 90 19 90 20 88 rrcurveto
endchar
                </CharString>
                <CharString name="Aring">
                    -81 callsubr
55 246 -8 callsubr
hintmask 00111110
309 989 -82 callsubr
hintmask 10011110
125 -995 rmoveto
hintmask 00111110
-63 callsubr
hintmask 01011110
-96 callgsubr
hintmask 10011110
12 -60 12 -59 11 -58 rrcurveto
hintmask 00111110
-96 callsubr
                </CharString>
                <CharString name="Aringacute">
                    -81 callsubr
-8 callsubr
hintmask 00111100
164 1086 -107 callgsubr
145 -97 -82 callsubr
hintmask 10011100
125 -995 -103 callgsubr
                </CharString>
                <CharString name="Atilde">
                    -81 callsubr
71 15 callgsubr
-8 callsubr
hintmask 00111101
395 759 -77 callgsubr
hintmask 00111011
-89 callsubr
hintmask 00111101
-20 callsubr
hintmask 10011101
39 -765 rmoveto
hintmask 00111101
-63 callsubr
hintmask 01011101
-96 callgsubr
hintmask 10011101
12 -60 12 -59 11 -58 rrcurveto
hintmask 00111101
-96 callsubr
                </CharString>
                <CharString name="B">
                    -9 125 -95 -21 287 109 171 131 -10 -20 hstemhm
89 160 148 156 -139 160 hintmask 10101101
574 210 rmoveto
79 -36 51 -79 28 vhcurveto
hintmask 01101110
59 36 35 52 69 vvcurveto
162 -182 31 -282 -30 vhcurveto
-688 vlineto
hintmask 10101101
280 -34 205 56 188 vvcurveto
hintmask 10110110
-325 357 rmoveto
98 11 50 -27 -66 vvcurveto
-68 -34 -26 -114 5 vhcurveto
hintmask 10101101
-275 vmoveto
166 vlineto
107 8 58 -14 -76 vvcurveto
-76 -46 -25 -119 17 vhcurveto
endchar
                </CharString>
                <CharString name="C">
                    -31 callgsubr
550 133 rmoveto
-82 callgsubr
hintmask 01110000
-31 callsubr
                </CharString>
                <CharString name="Cacute">
                    -31 callgsubr
202 817 -107 callgsubr
348 -684 rmoveto
-82 callgsubr
hintmask 01110000
-31 callsubr
                </CharString>
                <CharString name="Ccaron">
                    -31 callgsubr
362 742 -101 callgsubr
199 -609 rmoveto
-82 callgsubr
hintmask 01110000
-31 callsubr
                </CharString>
                <CharString name="Ccedilla">
                    -4 137 411 155 hstem
69 170 90 142 vstem
471 -129 rmoveto
40 -30 44 -87 42 vhcurveto
52 -7 60 -1 70 7 14 137 rcurveline
-82 callgsubr
-143 50 -121 143 -52 vhcurveto
-26 -59 rlineto
-56 callsubr
9 -118 rlineto
-27 callgsubr
endchar
                </CharString>
                <CharString name="Cdotaccent">
                    -8 141 -116 -21 548 155 67 -24 callgsubr
69 170 33 -52 callgsubr
hintmask 10111100
434 766 -79 callsubr
280 -633 rmoveto
-82 callgsubr
hintmask 01111100
-31 callsubr
                </CharString>
                <CharString name="D">
                    -9 133 -103 -21 564 -34 callsubr
hintmask 10011100
580 356 -59 callsubr
                </CharString>
                <CharString name="Dcaron">
                    -9 133 -103 -21 564 -34 callsubr
hintmask 10011100
310 747 -101 callgsubr
281 -391 -59 callsubr
                </CharString>
                <CharString name="Dcroat">
                    -79 callgsubr
                </CharString>
                <CharString name="E">
                    -72 callsubr
hstem
105 163 vstem
554 134 rmoveto
-93 callgsubr
                </CharString>
                <CharString name="Eacute">
                    -72 callsubr
hstem
105 163 vstem
175 817 -107 callgsubr
379 -683 rmoveto
-93 callgsubr
                </CharString>
                <CharString name="Ebreve">
                    -72 callsubr
65 124 hstem
105 163 vstem
326 753 -104 callsubr
228 -619 rmoveto
-93 callgsubr
                </CharString>
                <CharString name="Ecaron">
                    -72 callsubr
hstem
105 163 vstem
336 742 -101 callgsubr
229 -608 rmoveto
-93 callgsubr
                </CharString>
                <CharString name="Ecircumflex">
                    -72 callsubr
hstem
105 163 vstem
441 750 -100 callgsubr
249 -718 rmoveto
-93 callgsubr
                </CharString>
                <CharString name="Edieresis">
                    -72 callsubr
78 -24 callgsubr
105 163 -149.5 -42 callgsubr
hintmask 11111010
525 766 -39 callgsubr
-160 hlineto
-3 -161 rlineto
hintmask 11110110
-90 hmoveto
3 161 rlineto
-160 hlineto
-3 -161 rlineto
437 -632 rmoveto
hintmask 11111010
-93 callgsubr
                </CharString>
                <CharString name="Edotaccent">
                    -72 callsubr
78 -24 callgsubr
105 163 -22 -52 callgsubr
hintmask 11110100
408 766 -79 callsubr
310 -632 rmoveto
hintmask 11111000
-93 callgsubr
                </CharString>
                <CharString name="Egrave">
                    -72 callsubr
hstem
105 163 vstem
460 815 -101 callsubr
136 -613 rmoveto
-93 callgsubr
                </CharString>
                <CharString name="Emacron">
                    -72 callsubr
92 134 hstem
105 163 vstem
521 914 -66 callgsubr
33 -646 rmoveto
-93 callgsubr
                </CharString>
                <CharString name="Eogonek">
                    -259 122 137 134 152 118 150 134 hstemhm
105 163 -1 150 hintmask 11111000
530 -137 rmoveto
hintmask 11110100
-83 6 -30 17 23 vvcurveto
23 30 30 95 38 vhcurveto
12 134 rlineto
hintmask 11111000
-286 152 235 118 -235 150 278 134 -441 -688 278 hlineto
hintmask 11110100
-80 -48 -36 -45 -44 -11 callgsubr
endchar
                </CharString>
                <CharString name="Eth">
                    -79 callgsubr
                </CharString>
                <CharString name="Euro">
                    191 109 -94 97 64 97 hstemhm
125 144 hintmask 01110000
548 103 rmoveto
-154 22 -69 30 -31 51 rrcurveto
193 hlineto
4 97 rlineto
-221 hlineto
-1 15 0 15 17 6 0 6 5 vvcurveto
226 hlineto
6 97 rlineto
-218 hlineto
23 59 64 21 168 22 -23 150 rcurveline
-245 -43 -96 -85 -33 -112 rrcurveto
-78 -109 62 hlineto
hintmask 10110000
-7 0 -7 -7 vvcurveto
-16 0 -15 1 -15 vhcurveto
-62 -109 80 hlineto
38 -123 103 -72 244 -20 rrcurveto
endchar
                </CharString>
                <CharString name="F">
                    21 -21 268 125 160 135 hstem
109 164 vstem
513 268 rmoveto
125 -240 160 285 135 -449 -688 164 268 vlineto
endchar
                </CharString>
                <CharString name="G">
                    -3 callsubr
hstem
56 166 183 148 vstem
554 10 -92 callgsubr
endchar
                </CharString>
                <CharString name="Gbreve">
                    -3 callsubr
54 124 hstem
56 166 183 148 vstem
338 753 -104 callsubr
216 -743 -92 callgsubr
endchar
                </CharString>
                <CharString name="Gcommaaccent">
                    -3 callsubr
hstemhm
56 166 34 170 -21 148 hintmask 11101000
554 10 -92 callgsubr
hintmask 11110000
-314 -319 -99 callsubr
                </CharString>
                <CharString name="Gdotaccent">
                    -3 callsubr
67 -24 callgsubr
56 166 36 -52 callgsubr
-17.5 148 hintmask 11111000
420 766 -79 callsubr
hintmask 11110100
298 -756 -92 callgsubr
endchar
                </CharString>
                <CharString name="H">
                    21 -21 284 124 280 -20 hstem
71 167 149 167 vstem
387 hmoveto
167 688 -167 -280 -149 280 -167 -688 167 284 149 hlineto
endchar
                </CharString>
                <CharString name="Hbar">
                    21 -21 262 124 89 109 -103 97 -97 207 hstemhm
71 167 149 167 hintmask 11010110
387 386 rmoveto
-149 95 149 hlineto
-481 vmoveto
167 hlineto
hintmask 11100110
475 61 109 -61 vlineto
hintmask 11001110
104 -167 vlineto
hintmask 11010110
-110 -149 vlineto
hintmask 11001110
110 -167 vlineto
hintmask 11100110
-104 -61 -109 61 -475 167 262 149 vlineto
endchar
                </CharString>
                <CharString name="I">
                    -41 callgsubr
-17 callsubr
396 563 -91 callgsubr
                </CharString>
                <CharString name="Iacute">
                    -41 callgsubr
-17 callsubr
171 817 -107 callgsubr
225 -254 -91 callgsubr
                </CharString>
                <CharString name="Ibreve">
                    -41 callgsubr
65 124 -17 callsubr
322 753 -104 callsubr
74 -190 -91 callgsubr
                </CharString>
                <CharString name="Icircumflex">
                    -41 callgsubr
-17 callsubr
438 750 -100 callgsubr
94 -289 -91 callgsubr
                </CharString>
                <CharString name="Idieresis">
                    -41 callgsubr
78 -24 callgsubr
114.5 160 -42.5 164 -31.5 159 hintmask 11110100
521 766 -103 callsubr
hintmask 11101000
283 -203 rmoveto
hintmask 11100100
-54 callsubr
hlineto
hintmask 11101000
146 -438 -146 -125 452 hlineto
11 125 rlineto
-153 hlineto
endchar
                </CharString>
                <CharString name="Idotaccent">
                    -41 callgsubr
78 -24 callgsubr
232 164 -154 -52 callgsubr
hintmask 11101000
404 766 -79 callsubr
hintmask 11110000
156 -203 -91 callgsubr
                </CharString>
                <CharString name="Igrave">
                    -41 callgsubr
-17 callsubr
456 815 -101 callsubr
-18 -184 -91 callgsubr
                </CharString>
                <CharString name="Imacron">
                    -41 callgsubr
92 134 -17 callsubr
517 914 -66 callgsubr
-121 -217 -91 callgsubr
                </CharString>
                <CharString name="Iogonek">
                    -253 122 131 125 438 125 hstemhm
170 150 -88 164 hintmask 11101000
433 -131 rmoveto
hintmask 11110000
-83 6 -30 16 24 vvcurveto
22 15 28 46 35 vhcurveto
157 hlineto
11 125 rlineto
hintmask 11101000
-153 438 -54 callsubr
146 -438 hlineto
hintmask 11110000
-146 -125 165 hlineto
-56 -45 -25 -43 -39 vvcurveto
-67 4 callgsubr
endchar
                </CharString>
                <CharString name="J">
                    -10 137 -137 140 429 129 hstemhm
341 164 hintmask 10110000
126 688 rmoveto
-129 215 -317 vlineto
hintmask 01110000
-107 -11 -17 -244 12 vhcurveto
hintmask 10110000
-140 vlineto
313 -8 106 76 186 vvcurveto
444 vlineto
endchar
                </CharString>
                <CharString name="K">
                    -6 callgsubr
-49 callsubr
endchar
                </CharString>
                <CharString name="Kcommaaccent">
                    -6 callgsubr
-4 170 -49 callsubr
hintmask 00111010
-59 -590 -99 callsubr
                </CharString>
                <CharString name="L">
                    -19 callsubr
0 callgsubr
endchar
                </CharString>
                <CharString name="Lacute">
                    -19 callsubr
183 817 -107 callgsubr
366 -817 rmoveto
-40 callgsubr
endchar
                </CharString>
                <CharString name="Lcaron">
                    0 135 553 -20 119 -20 hstem
11 callsubr
114 155 vstem
379 518 -76 callsubr
170 -518 rmoveto
-40 callgsubr
endchar
                </CharString>
                <CharString name="Lcommaaccent">
                    0 135 553 -20 hstemhm
11 callsubr
-24 170 hintmask 11100000
0 callgsubr
hintmask 11010000
125 -299 -99 callsubr
                </CharString>
                <CharString name="Ldot">
                    0 135 148 164 241 -20 hstem
11 callsubr
149 4 callsubr
vstem
0 callgsubr
455 283 rmoveto
9 164 rlineto
-145 hlineto
-10 -164 rlineto
endchar
                </CharString>
                <CharString name="Lslash">
                    -19 callsubr
549 hmoveto
13 135 rlineto
-286 237 hlineto
124 62 -23 104 -101 -50 rlineto
200 -165 -282 vlineto
-80 -40 24 -104 56 28 rlineto
-290 vlineto
endchar
                </CharString>
                <CharString name="M">
                    21 -21 153 176 359 -20 hstem
65 139.5 210 4 callsubr
vstem
417 688 rmoveto
-101 -359 rlineto
-5 hlineto
-102 359 rlineto
-144 -688 144 hlineto
-9 384 rlineto
5 hlineto
65 -231 rlineto
79 hlineto
65 231 rlineto
5 hlineto
-9 -384 rlineto
150 688 hlineto
endchar
                </CharString>
                <CharString name="N">
                    -44 callsubr
421 hmoveto
-83 callgsubr
endchar
                </CharString>
                <CharString name="NUL">
                    -107 endchar
                </CharString>
                <CharString name="Nacute">
                    -44 callsubr
169 817 -107 callgsubr
252 -817 rmoveto
-83 callgsubr
endchar
                </CharString>
                <CharString name="Ncaron">
                    -44 callsubr
330 742 -101 callgsubr
102 -742 rmoveto
-83 callgsubr
endchar
                </CharString>
                <CharString name="Ncommaaccent">
                    21 -21 688 -20 hstemhm
72 147 20 170 -2.5 146.5 hintmask 11101000
421 hmoveto
-83 callgsubr
hintmask 11110000
2 -682 -99 callsubr
                </CharString>
                <CharString name="Ntilde">
                    21 -21 688 -20 91 15 callgsubr
hstemhm
72 147 187.5 146.5 hintmask 11101100
400 759 -77 callgsubr
hintmask 11011100
-89 callsubr
hintmask 11101100
-20 callsubr
hintmask 11011100
21 -759 rmoveto
-83 callgsubr
endchar
                </CharString>
                <CharString name="O">
                    -61 callgsubr
293 -18 -106 callsubr
                </CharString>
                <CharString name="OE">
                    -72 callsubr
hstem
34 161 94 132 vstem
195 354 rmoveto
156 26 44 68 -1 vhcurveto
-419 vlineto
-70 -2 -24 64 158 vvcurveto
391 -220 rmoveto
-165 152 124 118 -124 150 160 134 -260 hlineto
-186 -101 -126 -230 -243 94 -89 192 hvcurveto
259 hlineto
endchar
                </CharString>
                <CharString name="Oacute">
                    -61 callgsubr
172 824 -107 callgsubr
121 -842 -106 callsubr
                </CharString>
                <CharString name="Obreve">
                    -18 133 458 133 54 124 hstem
46 169 195 169 vstem
322 760 -104 callsubr
-29 -778 -106 callsubr
                </CharString>
                <CharString name="Ocircumflex">
                    -61 callgsubr
438 757 -100 callgsubr
-9 -877 -106 callsubr
                </CharString>
                <CharString name="Odieresis">
                    -18 133 458 133 67 -24 callgsubr
46 169 -99.5 -42 callgsubr
-114.5 169 hintmask 11101100
522 773 -28 callgsubr
179 -791 -106 callsubr
                </CharString>
                <CharString name="Ograve">
                    -61 callgsubr
456 822 -101 callsubr
-121 -772 -106 callsubr
                </CharString>
                <CharString name="Ohungarumlaut">
                    -61 callgsubr
125 809 -95 callgsubr
-68 -825 -106 callsubr
                </CharString>
                <CharString name="Omacron">
                    -18 133 458 133 81 134 hstem
46 169 195 169 vstem
518 921 -66 callgsubr
-225 -805 -106 callsubr
                </CharString>
                <CharString name="Omega">
                    0 125 437 143 hstem
72 151 178 153 vstem
281 8 rmoveto
-39 156 -19 126 91 vvcurveto
119 32 62 58 57 31 -64 -122 -91 -18 -124 -37 -153 vhcurveto
2 -8 rlineto
222 125 -74 hlineto
40 106 18 97 87 vvcurveto
169 1 -83 121 -153 hhcurveto
-158 -89 -121 -173 -86 20 -96 37 -104 hvcurveto
-73 -125 222 hlineto
endchar
                </CharString>
                <CharString name="Oslash">
                    -25 callgsubr
211 356 -86 callgsubr
                </CharString>
                <CharString name="Oslashacute">
                    -25 callgsubr
166 825 -107 callgsubr
45 -469 -86 callgsubr
                </CharString>
                <CharString name="Otilde">
                    -18 133 458 133 60 15 callgsubr
hstemhm
46 169 195 169 hintmask 11101100
402 766 -77 callgsubr
hintmask 11011100
-89 callsubr
hintmask 11101100
-20 callsubr
hintmask 11011100
-109 -784 -106 callsubr
                </CharString>
                <CharString name="P">
                    21 -21 563 136 -11 -20 hstemhm
90 162 171 159 hintmask 11011000
252 hmoveto
190 vlineto
192 27 138 83 170 vvcurveto
hintmask 10111000
180 -157 79 -335 -41 vhcurveto
-688 vlineto
hintmask 11011000
333 436 rmoveto
-102 -56 -29 -115 17 vhcurveto
241 vlineto
113 10 58 -43 -94 vvcurveto
endchar
                </CharString>
                <CharString name="Q">
                    6 -21 44 -21 565 133 hstemhm
46 169 195 169 hintmask 01111000
495 -172 rmoveto
45 131 -127 40 rlineto
9 vlineto
104 50 62 123 188 vvcurveto
218 -88 119 -160 -174 -111 -134 -252 vhcurveto
hintmask 10111000
-198 72 -116 131 -21 vhcurveto
-26 -74 rlineto
84 662 rmoveto
71 32 -79 -162 -150 -21 -67 -71 -71 -32 79 162 150 21 67 71 hvcurveto
endchar
                </CharString>
                <CharString name="R">
                    -59 callgsubr
151 159 hintmask 10010110
432 -10 -81 callgsubr
                </CharString>
                <CharString name="R_p">
                    -174 -21 212 -21 25 -21 23 -21 23 -21 683 -20 25 -20 hstemhm
26 113.5 203.5 108 hintmask 1100001110000000
201 -4 rmoveto
hintmask 1001010110000000
115 6 -60 302 3 callgsubr
hintmask 1010001110000000
-687 118 vlineto
-9 248 25 1 rlineto
291 -431 rmoveto
hintmask 1000101110000000
186 vlineto
80 -4 73 75 210 vvcurveto
212 -56 77 -129 -60 vhcurveto
-4 15 rlineto
-72 -724 hlineto
endchar
                </CharString>
                <CharString name="Racute">
                    -59 callgsubr
151 159 hintmask 00110110
147 822 -107 callgsubr
hintmask 10010110
285 -832 -81 callgsubr
                </CharString>
                <CharString name="Rcaron">
                    -59 callgsubr
151 159 hintmask 00110110
308 747 -101 callgsubr
hintmask 10010110
135 -757 -81 callgsubr
                </CharString>
                <CharString name="Rcommaaccent">
                    -59 callgsubr
10 170 -29 159 hintmask 1001011000000000
432 -10 rmoveto
hintmask 0011011010000000
176 20 -160 298 rlineto
63 45 44 57 84 vvcurveto
144 -106 91 -365 -41 vhcurveto
hintmask 0101101010000000
-688 161 222 vlineto
76 2 rlineto
-76 340 rmoveto
99 11 52 -37 -81 vvcurveto
-50 -24 -41 -38 -29 vhcurveto
-89 -2 rlineto
hintmask 0011011100000000
-6 -644 -99 callsubr
                </CharString>
                <CharString name="S">
                    -45 callsubr
127 171 hintmask 10111000
90 135 -84 callgsubr
                </CharString>
                <CharString name="Sacute">
                    -45 callsubr
127 171 hintmask 10111000
176 823 -107 callgsubr
-86 -688 -84 callgsubr
                </CharString>
                <CharString name="Scaron">
                    -45 callsubr
127 171 hintmask 10111000
337 748 -101 callgsubr
-236 -613 -84 callgsubr
                </CharString>
                <CharString name="Scedilla">
                    -9 140 -107 -21 548 144 -139 139 hstemhm
85 171 30 142 -45 171 hintmask 10011010
181 -265 rmoveto
hintmask 01011100
-27 callgsubr
42 -34 48 -100 44 vhcurveto
hintmask 01101010
190 33 70 89 87 163 -298 45 86 vvcurveto
42 47 17 207 -14 vhcurveto
hintmask 10011010
-9 144 rlineto
-289 14 -127 -115 -109 -158 298 -36 -98 vvcurveto
-49 -76 -23 -217 14 vhcurveto
-144 vlineto
hintmask 10011100
43 -1 39 1 37 2 -16 -35 rcurveline
-56 callsubr
endchar
                </CharString>
                <CharString name="Scommaaccent">
                    -45 callsubr
-33 170 -10 171 hintmask 11010100
90 135 rmoveto
-144 vlineto
345 -9 119 117 113 163 -298 45 86 vvcurveto
42 47 17 207 -14 vhcurveto
hintmask 10110100
-9 144 rlineto
-289 14 -127 -115 -109 -158 298 -36 -98 vvcurveto
hintmask 11010100
-49 -76 -23 -217 14 vhcurveto
hintmask 10101000
117 -443 -99 callsubr
                </CharString>
                <CharString name="T">
                    7 callgsubr
396 553 -41 callsubr
endchar
                </CharString>
                <CharString name="Tcaron">
                    7 callgsubr
321 742 -101 callgsubr
86 -189 -41 callsubr
endchar
                </CharString>
                <CharString name="Tcommaaccent">
                    21 -21 553 135 hstemhm
230 170 -169 165 hintmask 11010000
396 553 -41 callsubr
-182 -299 rmoveto
81 -24 rlineto
hintmask 11100000
65 58 39 103 1 92 rrcurveto
hintmask 11010000
-184 -8 19 -69 -1 -84 -20 -68 rlinecurve
endchar
                </CharString>
                <CharString name="Thorn">
                    0 232 226 135 95 -20 hstem
90 163 170 160 vstem
253 hmoveto
103 vlineto
192 26 138 81 164 vvcurveto
147 -109 76 -221 -4 vhcurveto
95 -163 -688 vlineto
333 341 rmoveto
-94 -56 -26 -114 15 vhcurveto
222 vlineto
113 9 57 -39 -87 vvcurveto
endchar
                </CharString>
                <CharString name="U">
                    -58 callgsubr
307 -18 -102 callgsubr
                </CharString>
                <CharString name="Uacute">
                    -58 callgsubr
167 817 -107 callgsubr
140 -835 -102 callgsubr
                </CharString>
                <CharString name="Ubreve">
                    -18 140 566 -20 85 124 hstem
69 163 161 163 vstem
317 753 -104 callsubr
-10 -771 -102 callgsubr
                </CharString>
                <CharString name="Ucircumflex">
                    -58 callgsubr
433 750 -100 callgsubr
10 -870 -102 callgsubr
                </CharString>
                <CharString name="Udieresis">
                    -18 140 566 -20 98 -24 callgsubr
69 163 -121.5 -42 callgsubr
-126.5 163 hintmask 11101100
517 766 -28 callgsubr
198 -784 -102 callgsubr
                </CharString>
                <CharString name="Ugrave">
                    -58 callgsubr
451 815 -101 callsubr
-102 -765 -102 callgsubr
                </CharString>
                <CharString name="Uhungarumlaut">
                    -58 callgsubr
120 802 -95 callgsubr
-49 -818 -102 callgsubr
                </CharString>
                <CharString name="Umacron">
                    -18 140 566 -20 112 134 hstem
69 163 161 163 vstem
513 914 -66 callgsubr
-206 -798 -102 callgsubr
                </CharString>
                <CharString name="Uogonek">
                    -259 122 143 -21 703 -20 hstemhm
69 163 -58 149 70 163 hintmask 11101100
423 -259 rmoveto
14 122 rlineto
-84 6 -30 18 26 vvcurveto
36 49 13 77 59 vhcurveto
71 54 36 67 109 vvcurveto
437 -163 -468 vlineto
-72 -23 -26 -53 vhcurveto
hintmask 11110100
-52 -33 35 82 hvcurveto
449 -163 -452 vlineto
-146 72 -89 124 -16 vhcurveto
hintmask 11101100
-67 -42 -24 -38 -42 vvcurveto
-63 69 -54 180 -5 vhcurveto
endchar
                </CharString>
                <CharString name="Uring">
                    -18 140 566 -20 75 246 hstem
69 163 161 163 vstem
312 989 -82 callsubr
-5 -1007 -102 callgsubr
                </CharString>
                <CharString name="V">
                    0 148 540 -20 26 -20 hstemhm
28 568 hintmask 10110000
425 hmoveto
hintmask 11010000
65 229 55 231 51 228 rrcurveto
-163 hlineto
-34 -176 -38 -188 -41 -176 rrcurveto
-10 hlineto
hintmask 10110000
-42 177 -39 191 -34 178 -167 -11 rcurveline
51 -229 57 -225 64 -229 rrcurveto
endchar
                </CharString>
                <CharString name="W">
                    -68 callgsubr
387 hmoveto
-95 callsubr
                </CharString>
                <CharString name="Wacute">
                    -68 callgsubr
169 817 -107 callgsubr
218 -817 rmoveto
-95 callsubr
                </CharString>
                <CharString name="Wcircumflex">
                    -68 callgsubr
436 750 -100 callgsubr
87 -852 rmoveto
-95 callsubr
                </CharString>
                <CharString name="Wdieresis">
                    0 219 -198 -21 688 -20 98 -24 callgsubr
36 -52 callgsubr
-88 -42 callgsubr
-88 156.5 hintmask 01110110
519 766 -103 callsubr
276 -766 rmoveto
hintmask 01110101
152 hlineto
14 130 22 262 15 296 rrcurveto
-152 hlineto
hintmask 10111001
-9 -469 rlineto
-5 hlineto
-25 102 -16 58 -27 101 rrcurveto
-81 hlineto
-26 -101 -11 -57 -25 -103 rrcurveto
-4 hlineto
-17 469 rlineto
-156 hlineto
14 -296 21 -262 15 -130 rrcurveto
147 hlineto
74 295 rlineto
endchar
                </CharString>
                <CharString name="Wgrave">
                    -68 callgsubr
454 815 -101 callsubr
-25 -747 rmoveto
-95 callsubr
                </CharString>
                <CharString name="X">
                    18 -21 24 -21 24 -21 682 7 -4 -20 24 -20 hstemhm
26 576 hintmask 10000110
420 -3 rmoveto
hintmask 00101010
181 6 -185 340 186 345 rlineto
-174 hlineto
-107 -229 rlineto
hintmask 00100110
-115 233 rlineto
hintmask 01010010
-180 -7 186 -341 -185 -344 rlineto
173 hlineto
107 225 rlineto
endchar
                </CharString>
                <CharString name="Y">
                    -48 callgsubr
396 hmoveto
-83 callsubr
                </CharString>
                <CharString name="Yacute">
                    -48 callgsubr
168 820 -107 callgsubr
228 -820 rmoveto
-83 callsubr
                </CharString>
                <CharString name="Ycircumflex">
                    -48 callgsubr
435 753 -100 callgsubr
97 -855 rmoveto
-83 callsubr
                </CharString>
                <CharString name="Ydieresis">
                    21 -21 685 7 -4 -20 24 -20 97 -24 callgsubr
111.5 160 -40.5 165 -34.5 159 hintmask 10011101
518 769 -103 callsubr
hintmask 10101010
286 -769 rmoveto
230 vlineto
214 458 rlineto
-168 hlineto
-124 -307 rlineto
hintmask 10011010
-131 311 rlineto
hintmask 11001010
-172 -7 216 -458 rlineto
-227 vlineto
endchar
                </CharString>
                <CharString name="Ygrave">
                    -48 callgsubr
453 818 -101 callsubr
-15 -750 rmoveto
-83 callsubr
                </CharString>
                <CharString name="Z">
                    -40 callsubr
hstem
72 490 vstem
551 hmoveto
-74 callsubr
                </CharString>
                <CharString name="Zacute">
                    -40 callsubr
hstem
72 490 vstem
180 817 -107 callgsubr
371 -817 rmoveto
-74 callsubr
                </CharString>
                <CharString name="Zcaron">
                    -40 callsubr
hstem
72 490 vstem
341 742 -101 callgsubr
221 -742 rmoveto
-74 callsubr
                </CharString>
                <CharString name="Zdotaccent">
                    -40 callsubr
78 161 hstem
251 -52 callgsubr
vstem
413 766 -79 callsubr
302 -766 rmoveto
-74 callsubr
                </CharString>
                <CharString name="a">
                    -80 callgsubr
-53 callsubr
hintmask 10011110
294 104 -72 callgsubr
                </CharString>
                <CharString name="aacute">
                    -80 callgsubr
206 -20 -53 callsubr
hintmask 00111111
159 701 -107 callgsubr
hintmask 10011111
135 -597 -104 callgsubr
                </CharString>
                <CharString name="abreve">
                    -80 callgsubr
63 124 -53 callsubr
hintmask 00111111
310 637 -104 callsubr
hintmask 10011111
-16 -533 -104 callgsubr
                </CharString>
                <CharString name="acircumflex">
                    -80 callgsubr
133 -20 -53 callsubr
hintmask 00111111
426 634 -100 callgsubr
hintmask 10011111
4 -632 -104 callgsubr
                </CharString>
                <CharString name="acute">
                    622 264 hstem
146 353 vstem
146 690 -107 callgsubr
endchar
                </CharString>
                <CharString name="acute.cap">
                    622 264 hstem
146 353 vstem
146 690 -107 callgsubr
endchar
                </CharString>
                <CharString name="adieresis">
                    -80 callgsubr
76 161 -11 callsubr
-117.5 -42 callgsubr
-122.5 154 hintmask 0011110110000000
509 650 -103 callsubr
hintmask 1001111001000000
193 -546 rmoveto
-46 -28 25 41 48 26 28 143 -15 hvcurveto
1 -37 0 -32 2 -28 rrcurveto
-19 -32 -36 -11 -30 hhcurveto
hintmask 0101110101000000
116 -108 rmoveto
hintmask 0011111001000000
145 7 rlineto
-5 76 -7 97 102 vvcurveto
223 -81 72 -353 1 vhcurveto
-14 -132 231 -5 54 -20 8 -86 rlinecurve
-227 4 -97 -93 -110 vvcurveto
hintmask 1001111010000000
-91 67 -55 99 75 54 33 40 40 vhcurveto
endchar
                </CharString>
                <CharString name="ae">
                    -38 callgsubr
hintmask 10101111
415 444 -89 callgsubr
                </CharString>
                <CharString name="aeacute">
                    -38 callgsubr
hintmask 01110111
168 691 -107 callgsubr
hintmask 10101111
247 -247 -89 callgsubr
                </CharString>
                <CharString name="agrave">
                    -80 callgsubr
125 -20 -53 callsubr
hintmask 00111111
444 699 -101 callsubr
hintmask 10011111
-108 -527 -104 callgsubr
                </CharString>
                <CharString name="amacron">
                    -80 callgsubr
90 134 -53 callsubr
hintmask 00111111
505 798 -66 callgsubr
hintmask 10011111
-211 -560 -104 callgsubr
                </CharString>
                <CharString name="ampersand">
                    -16 127 451 142 hstemhm
31 149 -59 160 hintmask 11100000
602 80 rmoveto
-41 55 -37 47 -33 42 32 59 33 78 22 75 -131 16 rcurveline
-8 -39 -13 -48 -14 -44 rrcurveto
hintmask 11010000
-88 104 -43 47 33 vvcurveto
44 30 18 133 -5 vhcurveto
-10 142 rlineto
-238 4 -75 -102 -102 vvcurveto
-43 20 -41 36 -51 vhcurveto
hintmask 11100000
-94 -59 -52 -65 -93 vvcurveto
-96 59 -72 121 69 68 31 68 52 vhcurveto
23 -30 24 -33 25 -36 rrcurveto
-225 127 rmoveto
-45 -22 33 42 39 18 36 37 32 hvcurveto
28 -35 33 -40 38 -48 rrcurveto
-40 -27 -27 -19 -33 hhcurveto
endchar
                </CharString>
                <CharString name="aogonek">
                    -255 122 119 118 -80 -21 28 -21 225 96 111 132 -11 callsubr
61 150 -42 154 hintmask 1010111100000000
531 -255 -13 callsubr
24 30 30 94 37 vhcurveto
hintmask 0100111010000000
-5 76 -7 97 102 vvcurveto
223 -81 72 -353 1 vhcurveto
-14 -132 231 -5 54 -20 8 -86 rlinecurve
-227 4 -97 -93 -110 vvcurveto
-91 67 -55 99 66 58 39 48 42 vhcurveto
hintmask 0001111010000000
12 -63 rlineto
hintmask 0001111100000000
-88 -50 -39 -48 -45 vvcurveto
hintmask 1010111100000000
-63 4 callgsubr
hintmask 0100111010000000
-237 359 rmoveto
-46 -28 24 42 48 26 28 143 -15 hvcurveto
1 -33 0 -29 1 -26 rrcurveto
-25 -28 -37 -14 -32 hhcurveto
endchar
                </CharString>
                <CharString name="approxequal">
                    99 134 -41 133 28 133 -41 134 -4 -20 hstemhm
50 515 hintmask 01101100
403 353 rmoveto
76 43 62 121 43 hvcurveto
-92 39 rlineto
-54 -25 -19 -35 -21 hhcurveto
hintmask 01010100
-40 -55 93 -86 hhcurveto
-79 -54 -70 -123 -44 hvcurveto
90 -39 rlineto
60 28 22 38 23 hhcurveto
hintmask 01101100
44 59 -92 87 hhcurveto
hintmask 10001100
-254 vmoveto
76 43 63 121 43 hvcurveto
-90 39 rlineto
-54 -26 -19 -35 -22 hhcurveto
hintmask 01001100
-40 -55 92 -85 hhcurveto
-80 -54 -70 -122 -44 hvcurveto
92 -38 rlineto
59 28 21 38 24 hhcurveto
hintmask 10001100
42 59 -93 87 hhcurveto
endchar
                </CharString>
                <CharString name="aring">
                    -80 callgsubr
53 246 -53 callsubr
hintmask 00111111
304 873 -82 callsubr
hintmask 10011111
-10 -769 -104 callgsubr
                </CharString>
                <CharString name="aringacute">
                    -80 callgsubr
-53 callsubr
hintmask 00111110
159 973 -107 callgsubr
145 -100 -82 callsubr
hintmask 10011110
-10 -769 -72 callgsubr
                </CharString>
                <CharString name="asciicircum">
                    566 -20 hstem
55 524 vstem
463 152 rmoveto
116 80 -255 334 -26 -3 -243 -332 104 -79 149 213 rlineto
endchar
                </CharString>
                <CharString name="asciitilde">
                    202 143 -13 143 hstemhm
33 559 hintmask 10100000
419 202 rmoveto
79 52 88 142 42 hvcurveto
-98 38 rlineto
-76 -27 -22 -49 -21 hhcurveto
hintmask 01100000
-41 -86 130 -87 hhcurveto
-78 -60 -93 -137 -39 hvcurveto
97 -37 rlineto
75 26 22 49 22 hhcurveto
hintmask 10100000
41 91 -130 87 hhcurveto
endchar
                </CharString>
                <CharString name="asterisk">
                    556 -20 hstem
41 550 vstem
407 236 rmoveto
91 56 -59 152 152 65 -25 103 -163 -11 -13 165 -108 8 -41 -160 -157 41 -43 -99 139 -91 -85 -136 80 -71 127 103 rlineto
endchar
                </CharString>
                <CharString name="asterisk.alt">
                    784 -20 hstem
30 564 vstem
371 587 rmoveto
62 169 -135 28 -2 -181 rlineto
-30 -8 rmoveto
-115 138 -91 -104 155 -94 rlineto
203 -44 rmoveto
176 33 -43 130 -160 -88 rlineto
-184 -58 rmoveto
-177 -33 44 -130 159 88 rlineto
126 -29 rmoveto
115 -138 91 104 -154 94 rlineto
-158 -52 rmoveto
-63 -169 138 -28 1 181 rlineto
endchar
                </CharString>
                <CharString name="at">
                    -174 122 117 119 454 125 hstem
34 130 59 139 77 134 vstem
514 -168 rmoveto
-1 121 rlineto
-288 -33 -61 123 244 vvcurveto
248 99 103 96 50 22 -33 -70 6 vhcurveto
-118 -11 -96 -67 -186 vvcurveto
-122 -1 54 -84 72 hhcurveto
40 29 17 38 29 hvcurveto
5 -50 129 14 rlineto
-2 83 -5 97 243 vvcurveto
167 -61 89 -138 -196 -144 -195 -300 -291 113 -191 367 46 vhcurveto
-111 352 rmoveto
-29 -12 36 76 76 9 44 68 -12 hvcurveto
-203 vlineto
-11 -12 -10 -6 -14 hhcurveto
endchar
                </CharString>
                <CharString name="atilde">
                    -80 callgsubr
69 125 -79 -20 54 125 -53 callsubr
hintmask 0011110011000000
390 643 -77 callgsubr
hintmask 0011101111000000
-89 callsubr
hintmask 0011110011000000
-20 callsubr
hintmask 1001101011000000
-96 -539 rmoveto
-46 -28 25 41 48 26 28 143 -15 hvcurveto
1 -37 0 -32 2 -28 rrcurveto
-19 -32 -36 -11 -30 hhcurveto
hintmask 0101101011000000
116 -108 rmoveto
hintmask 0011101011000000
145 7 rlineto
-5 76 -7 97 102 vvcurveto
223 -81 72 -353 1 vhcurveto
-14 -132 231 -5 54 -20 8 -86 rlinecurve
-227 4 -97 -93 -110 vvcurveto
hintmask 1001101011000000
-91 67 -55 99 75 54 33 40 40 vhcurveto
endchar
                </CharString>
                <CharString name="b">
                    -16 7 callsubr
80 158 176 157 hintmask 11011100
255 -16 rmoveto
168 148 124 204 162 -83 103 -117 -54 -45 -24 -31 -34 hvcurveto
272 vlineto
hintmask 11101100
-158 -14 rlineto
-764 vlineto
hintmask 11011100
-22 54 55 -10 66 hhcurveto
56 136 rmoveto
-27 -23 4 8 -23 hvcurveto
295 vlineto
15 23 23 8 22 hhcurveto
65 43 -57 -120 -111 -32 -42 -71 hvcurveto
endchar
                </CharString>
                <CharString name="backslash">
                    -211 1041 hstem
-17 649 vstem
120 830 rmoveto
-137 -57 504 -984 145 43 rlineto
endchar
                </CharString>
                <CharString name="bar">
                    794 -20 hstem
238 149 vstem
238 794 rmoveto
-998 149 1010 vlineto
endchar
                </CharString>
                <CharString name="braceleft">
                    -240 -19 callgsubr
-240 -78 callsubr
                </CharString>
                <CharString name="braceleft.cap">
                    -189 -19 callgsubr
-189 -78 callsubr
                </CharString>
                <CharString name="braceright">
                    699 -20 -15 callgsubr
-239 -78 callgsubr
                </CharString>
                <CharString name="braceright.cap">
                    -189 1062 -15 callgsubr
-189 -78 callgsubr
                </CharString>
                <CharString name="bracketleft">
                    -200 -3 callgsubr
140 151 vstem
140 -200 -16 callsubr
                </CharString>
                <CharString name="bracketleft.cap">
                    -149 -3 callgsubr
140 151 vstem
140 -149 -16 callsubr
                </CharString>
                <CharString name="bracketright">
                    -200 -3 callgsubr
334 151 vstem
108 -75 -14 callsubr
                </CharString>
                <CharString name="bracketright.cap">
                    -149 -3 callgsubr
334 151 vstem
108 -24 -14 callsubr
                </CharString>
                <CharString name="breve">
                    626 124 hstem
85 456 vstem
310 626 -104 callsubr
endchar
                </CharString>
                <CharString name="breve.cap">
                    626 124 hstem
85 456 vstem
310 626 -104 callsubr
endchar
                </CharString>
                <CharString name="bullet">
                    159 344 hstem
136 352 vstem
488 334 rmoveto
102 -74 67 -98 -98 -82 -69 -105 -103 74 -67 98 97 83 69 106 vhcurveto
endchar
                </CharString>
                <CharString name="bullet.alt">
                    183 300 hstem
161 302 vstem
462 183 rmoveto
2 300 rlineto
-302 hlineto
-2 -300 rlineto
endchar
                </CharString>
                <CharString name="c">
                    -5 callgsubr
hstem
78 157 vstem
78 271 -88 callsubr
                </CharString>
                <CharString name="cacute">
                    -5 callgsubr
hstem
78 157 vstem
182 690 -107 callgsubr
-104 -419 -88 callsubr
                </CharString>
                <CharString name="caron">
                    785 -20 hstem
96 432 vstem
320 615 -101 callgsubr
endchar
                </CharString>
                <CharString name="caron.alt">
                    611 287 hstem
224 155 vstem
213 629 -76 callsubr
endchar
                </CharString>
                <CharString name="caron.alt.cap">
                    611 287 hstem
224 155 vstem
213 629 -76 callsubr
endchar
                </CharString>
                <CharString name="caron.cap">
                    785 -20 hstem
96 432 vstem
320 615 -101 callgsubr
endchar
                </CharString>
                <CharString name="ccaron">
                    -5 callgsubr
216 -20 hstem
78 157 vstem
342 615 -101 callgsubr
-253 -344 -88 callsubr
                </CharString>
                <CharString name="ccedilla">
                    -8 130 -93 -21 416 145 hstemhm
78 157 101 142 hintmask 10111000
478 -132 rmoveto
39 -29 43 -83 42 vhcurveto
47 -3 53 1 62 6 15 129 rcurveline
-231 -16 -77 42 141 vvcurveto
97 27 48 273 -16 vhcurveto
-10 148 rlineto
-345 5 -102 -143 -160 vvcurveto
hintmask 01111000
-121 43 -102 145 -40 vhcurveto
-23 -51 rlineto
-56 callsubr
9 -118 rlineto
hintmask 10111000
-27 callgsubr
endchar
                </CharString>
                <CharString name="cdotaccent">
                    -5 callgsubr
70 -24 callgsubr
78 157 17 -52 callgsubr
hintmask 11101000
414 639 -79 callsubr
hintmask 11111000
-172 -368 -88 callsubr
                </CharString>
                <CharString name="cedilla">
                    -50 callgsubr
                </CharString>
                <CharString name="cedilla.cap">
                    -50 callgsubr
                </CharString>
                <CharString name="cent">
                    30 131 243 148 136 -20 hstem
75 150 vstem
225 313 rmoveto
44 19 39 84 13 vhcurveto
-28 -206 rlineto
-51 24 -24 36 50 vvcurveto
286 -283 rmoveto
17 131 -49 3 -43 4 -36 6 rlinecurve
30 239 30 -1 35 -3 39 -5 rlinecurve
18 145 rlineto
2 -34 -32 1 -30 hhcurveto
19 136 rlineto
-135 hlineto
-16 -147 rlineto
-196 -35 -53 -108 -102 vvcurveto
-101 53 -82 140 -46 vhcurveto
-23 -159 rlineto
135 hlineto
14 132 35 -5 39 -3 43 -2 rlinecurve
endchar
                </CharString>
                <CharString name="check.1">
                    8 -21 hstem
54 541 vstem
595 723 rmoveto
-158 47 -54 -162 -49 -198 -37 -222 rlinecurve
-8 hlineto
-100 238 -135 -57 175 -389 137 7 65 268 76 242 88 226 rlinecurve
endchar
                </CharString>
                <CharString name="check.2">
                    7 -21 hstem
67 515 vstem
366 -14 rmoveto
150 33 -147 284 213 416 -153 55 -140 -349 -77 169 -145 -51 138 -261 -125 -269 102 -33 99 193 rlineto
endchar
                </CharString>
                <CharString name="circumflex">
                    696 -20 hstem
96 432 vstem
432 623 -100 callgsubr
endchar
                </CharString>
                <CharString name="circumflex.cap">
                    696 -20 hstem
96 432 vstem
432 623 -100 callgsubr
endchar
                </CharString>
                <CharString name="colon">
                    0 183 163 183 hstemhm
206.5 208 -200 207 hintmask 11010000
420 346 -18 callsubr
hintmask 11100000
198 -346 rmoveto
7 19 callgsubr
-7 -183 rlineto
endchar
                </CharString>
                <CharString name="colon.alt">
                    79 183 163 183 hstemhm
210 207 -202.5 207 hintmask 11010000
420 425 -18 callsubr
hintmask 11100000
202 -346 rmoveto
4 19 callgsubr
-2 -183 rlineto
endchar
                </CharString>
                <CharString name="colonmonetary">
                    528 139 -90 -20 hstemhm
60 143 1.5 116 0.5 112.5 -47.5 114 hintmask 01101000
203 350 rmoveto
67 35 60 132 30 vhcurveto
-27 -313 rlineto
-107 33 -33 47 76 vvcurveto
111 -432 rmoveto
115 hlineto
9 114 rlineto
hintmask 10010100
23 -4 25 -3 25 -3 29 133 rcurveline
-34 4 -30 5 -28 5 32 354 rcurveline
28 3 30 1 34 1 -7 139 rcurveline
-24 -1 -24 -1 -22 -2 10 106 rcurveline
-114 hlineto
-10 -123 -24 -5 -22 -6 -21 -6 rlinecurve
13 140 rlineto
-115 hlineto
hintmask 01010000
-15 -192 rlineto
hintmask 01101000
-100 -64 -37 -90 -92 vvcurveto
-87 31 -66 66 -49 vhcurveto
-22 -211 rlineto
115 hlineto
14 156 20 -7 21 -6 23 -6 rlinecurve
endchar
                </CharString>
                <CharString name="comma">
                    -175 370 hstem
239 178 vstem
191 -152 rmoveto
85 -23 97 84 84 164 -60 122 rlinecurve
-192 -7 55 -113 -14 -152 -55 -75 rlinecurve
endchar
                </CharString>
                <CharString name="commaaccent">
                    -323 253 hstem
233 170 vstem
217 -299 -99 callsubr
                </CharString>
                <CharString name="commaaccent.cap">
                    -323 253 hstem
233 170 vstem
217 -299 -99 callsubr
                </CharString>
                <CharString name="commaaccent.rot">
                    634 253 hstem
219 171 vstem
405 862 -14 callgsubr
endchar
                </CharString>
                <CharString name="copyright">
                    8 79 91 93 140 103 88 78 hstem
43 85 70 103 197 84 vstem
582 349 rmoveto
206 -105 125 -154 -158 -122 -135 -205 -219 114 -113 160 152 113 125 216 vhcurveto
-454 -5 rmoveto
170 79 88 114 108 69 -91 -167 -180 -67 -77 -110 -111 -82 78 179 vhcurveto
276 -73 rmoveto
-81 -1 -22 20 65 vvcurveto
41 13 17 87 -2 vhcurveto
-7 103 rlineto
-149 -8 -47 -74 -88 vvcurveto
-100 47 -76 151 10 vhcurveto
endchar
                </CharString>
                <CharString name="d">
                    -24 callsubr
hintmask 10010111
320 113 -32 callsubr
hintmask 01010111
85 -116 rmoveto
hintmask 00110111
-1 callsubr
hintmask 10011011
-30 callgsubr
                </CharString>
                <CharString name="dagger">
                    497 124.5 -119.5 124.5 152.5 -20 hstemhm
241 130.5 hintmask 10110000
361 160 rmoveto
21 338 164 -2 8 124 16 callsubr
hintmask 01110000
-154 vlineto
-157 3 -7 -125 164 -2 rlineto
-377 vlineto
25 -11 rlineto
endchar
                </CharString>
                <CharString name="daggerdbl">
                    279 2 callsubr
102.5 2 callsubr
152.5 -20 hstemhm
241 147.5 -147 139 -138.5 124.5 hintmask 01101001
362 101 rmoveto
hintmask 10101001
9 179 168 -2 7 117 rlineto
hintmask 10101010
-168 3 5 107 163 -2 8 117 rlineto
hintmask 01101100
16 callsubr
hintmask 01011100
-154 vlineto
-157 3 -7 -119 rlineto
hintmask 01011010
164 -2 1 -107 -166 3 -7 -119 rlineto
hintmask 01101001
173 -2 rlineto
-217 vlineto
25 -11 rlineto
endchar
                </CharString>
                <CharString name="dcaron">
                    -24 callsubr
86 155 hintmask 0011011110000000
617 629 -76 callsubr
hintmask 1001011110000000
-297 -516 -32 callsubr
hintmask 0101011110000000
85 -116 rmoveto
hintmask 0011011110000000
-1 callsubr
hintmask 1001101110000000
-30 callgsubr
                </CharString>
                <CharString name="dcroat">
                    -16 129 -95 -21 28 -21 436 131 53 95 66 -20 hstemhm
54 156 174 158 hintmask 10011111
320 113 rmoveto
-65 -45 51 125 102 39 49 68 19 23 -4 -8 25 hvcurveto
-116 2 -101 2 -76 vhcurveto
-14 -20 -20 -8 -28 hhcurveto
hintmask 01011111
84 -116 rmoveto
hintmask 00111111
147 7 rlineto
-7 120 -2 169 274 vvcurveto
56 61 96 -61 66 vlineto
-159 -14 rlineto
-52 -125 -95 125 -53 vlineto
-185 -144 -117 -204 hvcurveto
hintmask 10011111
-168 83 -98 116 60 48 29 37 36 vhcurveto
endchar
                </CharString>
                <CharString name="degree">
                    320 115 212 117 hstem
95 124 186 125 vstem
530 546 rmoveto
134 -90 84 -120 -120 -105 -89 -138 -134 91 -83 118 120 106 88 138 vhcurveto
-125 -3 rmoveto
-67 -39 -41 -53 -55 -39 46 61 64 39 41 53 55 39 -44 -60 vhcurveto
endchar
                </CharString>
                <CharString name="dieresis">
                    639 161 hstem
109.5 -42 callgsubr
vstem
516 639 -103 callsubr
endchar
                </CharString>
                <CharString name="dieresis.cap">
                    639 161 hstem
109.5 -42 callgsubr
vstem
516 639 -103 callsubr
endchar
                </CharString>
                <CharString name="divide">
                    65 144 61 132 61 143 hstem
233.5 157.5 vstem
390 463 rmoveto
3 143 rlineto
-157 hlineto
-3 -143 rlineto
326 -61 rmoveto
-493 -132 493 hlineto
-169 -205 rmoveto
2 144 rlineto
-157 hlineto
-3 -144 rlineto
endchar
                </CharString>
                <CharString name="dollar">
                    48 120 353 116 hstem
74 171 135 171 vstem
308 -82 rmoveto
20 125 rlineto
162 18 61 63 76 163 -306 61 67 vvcurveto
36 81 12 198 -56 vhcurveto
20 154 -40 6 -38 3 -34 2 rlinecurve
25 121 -139 1 -21 -123 rlineto
-162 -16 -61 -69 -77 -159 306 -54 -70 vvcurveto
-40 -84 -10 -212 50 vhcurveto
-29 -154 51 -5 46 -3 42 -1 rlinecurve
-25 -120 rlineto
endchar
                </CharString>
                <CharString name="dotaccent">
                    639 161 hstem
230 -52 callgsubr
vstem
392 639 -79 callsubr
endchar
                </CharString>
                <CharString name="dotaccent.cap">
                    639 161 hstem
230 -52 callgsubr
vstem
392 639 -79 callsubr
endchar
                </CharString>
                <CharString name="dotlessi">
                    -86 callsubr
-17 callgsubr
585 hmoveto
-8 callgsubr
-90 callsubr
                </CharString>
                <CharString name="e">
                    -85 callsubr
-47 callgsubr
531 -13 -107 callsubr
                </CharString>
                <CharString name="eacute">
                    -85 callsubr
201 -20 -47 callgsubr
175 699 -107 callgsubr
356 -712 -107 callsubr
                </CharString>
                <CharString name="ebreve">
                    -85 callsubr
58 124 -47 callgsubr
326 635 -104 callsubr
205 -648 -107 callsubr
                </CharString>
                <CharString name="ecaron">
                    -85 callsubr
217 -20 -47 callgsubr
336 624 -101 callgsubr
206 -637 -107 callsubr
                </CharString>
                <CharString name="ecircumflex">
                    -85 callsubr
128 -20 -47 callgsubr
441 632 -100 callgsubr
226 -747 -107 callsubr
                </CharString>
                <CharString name="edieresis">
                    -85 callsubr
71 -24 callgsubr
61 156 -98.5 -42 callgsubr
-120.5 155 hintmask 11110110
525 648 -103 callsubr
hintmask 11111001
414 -661 -107 callsubr
                </CharString>
                <CharString name="edotaccent">
                    -85 callsubr
71 -24 callgsubr
61 156 29 -52 callgsubr
-3.5 155 hintmask 11110100
408 648 -79 callsubr
hintmask 11111010
287 -661 -107 callsubr
                </CharString>
                <CharString name="egrave">
                    -85 callsubr
120 -20 -47 callgsubr
460 697 -101 callsubr
113 -642 -107 callsubr
                </CharString>
                <CharString name="eight">
                    -16 118 484 118 hstemhm
68 148 -139 150 172 145 -136 151 hintmask 11100100
300 -16 rmoveto
161 98 89 112 84 -64 52 -71 42 hvcurveto
hintmask 11011000
76 41 44 52 79 vvcurveto
103 -99 66 -125 -159 -84 -98 -97 -74 54 -52 64 -42 vhcurveto
hintmask 11100100
-79 -45 -48 -58 -78 vvcurveto
-107 99 -69 133 vhcurveto
hintmask 11011000
-73 543 rmoveto
31 29 28 55 62 26 -34 -46 -35 -20 -36 -36 -27 vhcurveto
-63 35 -53 34 50 vvcurveto
hintmask 11100100
87 -425 rmoveto
-69 -29 38 51 39 20 37 36 28 hvcurveto
72 -41 64 -36 -51 vvcurveto
-37 -37 -28 -57 vhcurveto
endchar
                </CharString>
                <CharString name="eight.den">
                    -244 88 160 -21 34 -21 134 -55 callgsubr
hintmask 10111001
303 -244 -71 callgsubr
hintmask 10110110
-80 callsubr
vhcurveto
hintmask 11010101
-36 callsubr
hintmask 10111001
-33 callgsubr
hintmask 10110110
-93 callsubr
hintmask 10111001
-94 callgsubr
                </CharString>
                <CharString name="eight.inf">
                    -178 88 286 -55 callgsubr
hintmask 11100100
303 -178 -71 callgsubr
hintmask 11011000
-80 callsubr
-36 callsubr
hintmask 11100100
-33 callgsubr
hintmask 11011000
-93 callsubr
hintmask 11100100
-94 callgsubr
                </CharString>
                <CharString name="eight.num">
                    461 88 139 -20 33 -20 154 -55 callgsubr
hintmask 10111001
303 461 -71 callgsubr
hintmask 11010110
-80 callsubr
-36 callsubr
hintmask 11011001
-36 callgsubr
hintmask 10111001
-37 callsubr
hintmask 10110110
-93 callsubr
hintmask 10111001
-94 callgsubr
                </CharString>
                <CharString name="eight.small">
                    -11 88 286 -55 callgsubr
hintmask 11100100
303 -11 -71 callgsubr
hintmask 11011000
-80 callsubr
-36 callsubr
hintmask 11100100
-33 callgsubr
hintmask 11011000
-93 callsubr
hintmask 11100100
-94 callgsubr
                </CharString>
                <CharString name="eight.sup">
                    350 88 139 -20 167 -55 callgsubr
hintmask 11110010
303 350 -71 callgsubr
hintmask 11101100
-80 callsubr
-36 callsubr
hintmask 11110010
-33 callgsubr
hintmask 11101100
-93 callsubr
hintmask 11110010
-94 callgsubr
                </CharString>
                <CharString name="ellipsis">
                    0 194 hstem
36 4 callsubr
57.5 4 callsubr
57.5 4 callsubr
cntrmask 01110000
584 -18 callgsubr
-58 -18 callgsubr
-58 -18 callgsubr
endchar
                </CharString>
                <CharString name="emacron">
                    -85 callsubr
85 134 -47 callgsubr
521 796 -66 callgsubr
10 -675 -107 callsubr
                </CharString>
                <CharString name="emdash">
                    276 119 hstem
67 498 vstem
565 395 rmoveto
-498 -119 489 hlineto
endchar
                </CharString>
                <CharString name="endash">
                    276 119 hstem
80 471 vstem
551 395 rmoveto
-471 -119 458 hlineto
endchar
                </CharString>
                <CharString name="eogonek">
                    -255 122 136 114 126.5 91.5 115 127 hstemhm
61 156 34 150 6 155 hintmask 11111100
501 -255 -13 callsubr
20 31 27 99 33 vhcurveto
14 125 -225 3 -83 25 -17 94 rlinecurve
339 9 rlineto
hintmask 11111010
205 20 -75 124 -161 hhcurveto
-150 -132 -133 -175 -168 93 -101 225 3 hvcurveto
hintmask 11111100
-89 -47 -39 -47 -47 vvcurveto
-58 4 callgsubr
hintmask 11111010
-187 705 rmoveto
63 26 -41 -74 4 hvcurveto
-58 -1 -81 -3 -51 -2 rrcurveto
90 5 32 31 60 hhcurveto
endchar
                </CharString>
                <CharString name="equal">
                    152 132 110 132 9 callgsubr
526 rmoveto
9 callsubr
-110 vmoveto
9 callsubr
endchar
                </CharString>
                <CharString name="eth">
                    -18 128 280 123 191 -20 21 -20 111 -20 hstemhm
56 154 204 151 hintmask 11011110
298 -18 rmoveto
143 124 111 206 127 -43 108 -87 101 hvcurveto
75 30 -31 86 -114 -46 -34 31 -39 30 -44 30 rlinecurve
hintmask 11101110
-103 -92 28 -19 25 -19 24 -19 rlinecurve
-97 -39 32 -86 138 56 20 -21 17 -22 14 -22 rlinecurve
-153 -10 -137 -92 -172 vvcurveto
hintmask 11011110
-161 109 -96 133 vhcurveto
19 128 rmoveto
-56 -51 53 96 107 56 51 138 -41 hvcurveto
7 -31 3 -31 -33 vvcurveto
-117 -34 -54 -63 vhcurveto
endchar
                </CharString>
                <CharString name="exclam">
                    0 169 hstem
210 193 vstem
366 284 rmoveto
55 469 rlineto
-202 hlineto
41 -469 rlineto
141 -284 rmoveto
4 169 rlineto
-193 hlineto
-4 -169 rlineto
endchar
                </CharString>
                <CharString name="exclamdown">
                    521 168 hstem
221.5 193.5 vstem
223 689 rmoveto
-3 -168 rlineto
193 hlineto
4 168 rlineto
-158 -284 rmoveto
-56 -468 rlineto
204 hlineto
-43 468 rlineto
endchar
                </CharString>
                <CharString name="f">
                    0 118 290 119 120 152 hstem
216 157 vstem
529 118 rmoveto
-156 290 168 119 -168 28 hlineto
81 14 7 192 4 vhcurveto
-10 152 rlineto
-267 -13 -86 -114 -140 vvcurveto
-5 -122 vlineto
-14 -119 rlineto
136 -290 -129 -118 428 hlineto
endchar
                </CharString>
                <CharString name="five">
                    4 -21 569.5 135.5 hstem
120.5 138 138.5 146 vstem
543 236 rmoveto
88 -67 77 -221 32 vhcurveto
7 120 249 -1 12 136 rlineto
-392 hlineto
-21 -353 rlineto
208 -25 79 -37 -48 vvcurveto
-57 -73 -21 -233 -19 vhcurveto
9 -145 rlineto
311 19 132 105 129 vvcurveto
endchar
                </CharString>
                <CharString name="five.den">
                    -246 -65 callgsubr
-86 -106 callgsubr
endchar
                </CharString>
                <CharString name="five.inf">
                    -180 -65 callgsubr
-20 -106 callgsubr
endchar
                </CharString>
                <CharString name="five.num">
                    459 110 238 103 hstem
165 105.5 106.5 115 vstem
-57 callgsubr
endchar
                </CharString>
                <CharString name="five.small">
                    -13 -65 callgsubr
147 -106 callgsubr
endchar
                </CharString>
                <CharString name="five.sup">
                    348 -65 callgsubr
508 -106 callgsubr
endchar
                </CharString>
                <CharString name="fiveeighths">
                    -43 callgsubr
72 100 70 -33 callsubr
hstemhm
125 118 -7 callsubr
-90 -39 callsubr
106.5 115 -115 124 hintmask 1011111001100000
-57 callgsubr
-420 -330 -73 callsubr
hintmask 1101111010100000
-36 callsubr
hintmask 1011111100100000
-36 callgsubr
hintmask 1011111100010000
-37 callsubr
hintmask 1011111010100000
-93 callsubr
hintmask 1011111100010000
-94 callgsubr
                </CharString>
                <CharString name="fivesixths">
                    -244 95 110 78 250 100 70 -33 callsubr
hstemhm
121 118 -74 -39 callsubr
106.5 115 -105 115 hintmask 1111101100000000
-57 callgsubr
-420 -330 -70 callgsubr
hintmask 1111110010000000
239 -633 -102 callsubr
                </CharString>
                <CharString name="four">
                    21 -21 118 134 433 -20 30 -20 hstemhm
364 145 hintmask 11011000
570 118 rmoveto
12 134 rlineto
-73 232 hlineto
-145 -16 rlineto
-216 -163 vlineto
hintmask 11101000
110 433 rlineto
hintmask 11011000
-167 10 -49 -198 -24 -226 7 -153 rlinecurve
286 -118 145 118 hlineto
endchar
                </CharString>
                <CharString name="four.den">
                    -158 -20 callgsubr
14 callgsubr
-159 -97 callsubr
endchar
                </CharString>
                <CharString name="four.inf">
                    -92 -20 callgsubr
21.5 -21 hstemhm
-28 callsubr
hintmask 10100000
508 -93 rmoveto
8 100 -55 -1 1 133 -115 -10 1 -123 rlineto
hintmask 01100000
-111 1 75 262 -133 8 rlineto
hintmask 10100000
-34 -125 -18 -146 5 -99 216 2 rcurveline
14 callsubr
                </CharString>
                <CharString name="four.num">
                    547 -20 callgsubr
132.5 -20 14 callgsubr
546 -97 callsubr
endchar
                </CharString>
                <CharString name="four.small">
                    0 173.5 -98.5 -20 callgsubr
hstemhm
-28 callsubr
hintmask 10100000
508 74 rmoveto
8 100 -55 -1 1 133 -115 -10 1 -123 -111 1 75 262 -133 8 rlineto
hintmask 01100000
-34 -125 -18 -146 5 -99 216 2 rcurveline
hintmask 10100000
14 callsubr
                </CharString>
                <CharString name="four.sup">
                    436 -20 callgsubr
262.5 -20 14 callgsubr
435 -97 callsubr
endchar
                </CharString>
                <CharString name="fourfifths">
                    -21 callgsubr
158 -20 callgsubr
132.5 -20 -12 callsubr
77 114 -84.5 115 hintmask 01111010
508 546 -97 callsubr
-389 -258 -87 callsubr
                </CharString>
                <CharString name="fraction">
                    790 -20 hstem
20 579 vstem
154 -178 rmoveto
445 968 -134 55 -445 -969 rlineto
endchar
                </CharString>
                <CharString name="fraction.afrc">
                    289 100 hstem
72 480 vstem
72 289 -70 callgsubr
endchar
                </CharString>
                <CharString name="g">
                    -30 callsubr
hstem
56 155 176 157 vstem
139 -198 rmoveto
-98 callgsubr
                </CharString>
                <CharString name="gbreve">
                    -30 callsubr
58 124 hstem
56 155 176 157 vstem
332 634 -104 callsubr
-193 -832 rmoveto
-98 callgsubr
                </CharString>
                <CharString name="gcommaaccent">
                    -30 callsubr
hstemhm
56 155 24 171 -19 157 hintmask 11111000
421 870 -14 callgsubr
-282 -1068 rmoveto
hintmask 11110100
-98 callgsubr
                </CharString>
                <CharString name="gdotaccent">
                    -30 callsubr
71 -24 callgsubr
56 155 41 -52 callgsubr
-29.5 157 hintmask 10111100
414 647 -79 callsubr
-111 -845 rmoveto
hintmask 11111010
-98 callgsubr
                </CharString>
                <CharString name="germandbls">
                    -10 133 -123 123 541 133 hstemhm
67 156 63 153 -69 159 -85 160 hintmask 10111000
439 398 rmoveto
hintmask 01110100
49 90 50 125 vvcurveto
83 -58 92 -135 -175 -94 -129 -164 vhcurveto
-504 156 536 vlineto
94 24 34 54 47 22 -37 -41 vhcurveto
hintmask 10111000
-71 -84 -54 -85 vvcurveto
hintmask 10110010
-132 158 -16 -63 vvcurveto
-38 -41 -10 -106 10 vhcurveto
-7 -137 rlineto
248 -6 66 95 91 vvcurveto
hintmask 10111000
136 -165 30 62 vvcurveto
endchar
                </CharString>
                <CharString name="grave">
                    688 -20 hstem
140 352 vstem
492 688 -101 callsubr
endchar
                </CharString>
                <CharString name="grave.cap">
                    688 -20 hstem
140 352 vstem
492 688 -101 callsubr
endchar
                </CharString>
                <CharString name="greater">
                    579 -20 134 -20 hstem
400 141 vstem
171 -30 rmoveto
370 298 rlineto
129 vlineto
-364 296 -88 -114 311 -240 rlineto
-14 vlineto
-312 -243 rlineto
endchar
                </CharString>
                <CharString name="greaterequal">
                    -1 132 445 -20 138 -20 hstem
379 164 vstem
379 424 rmoveto
-8 vlineto
-285 -124 50 -122 400 184 -2 117 -387 223 -61 -118 rlineto
-17 -445 rmoveto
-132 472 132 vlineto
endchar
                </CharString>
                <CharString name="guillemotleft">
                    -23 610 hstem
29 577 vstem
211 -23 -56 callgsubr
                </CharString>
                <CharString name="guillemotleft.cap">
                    556 -20 hstem
29 577 vstem
211 37 -56 callgsubr
                </CharString>
                <CharString name="guillemotright">
                    -23 610 hstem
18 577 vstem
408 -23 -57 callsubr
                </CharString>
                <CharString name="guillemotright.cap">
                    557 -20 hstem
18 577 vstem
408 37 -57 callsubr
                </CharString>
                <CharString name="guilsinglleft">
                    -23 18 callgsubr
-23 -25 callsubr
                </CharString>
                <CharString name="guilsinglleft.cap">
                    37 18 callgsubr
37 -25 callsubr
                </CharString>
                <CharString name="guilsinglright">
                    -23 15 callsubr
-23 -27 callsubr
                </CharString>
                <CharString name="guilsinglright.cap">
                    37 15 callsubr
37 -27 callsubr
                </CharString>
                <CharString name="h">
                    21 -21 443 134 19 callsubr
79 158 157 158 hintmask 11011100
319 443 -67 callsubr
137 -60 56 -95 -68 -51 -28 -34 -41 vhcurveto
279 vlineto
hintmask 11101100
-158 -14 rlineto
-780 158 419 vlineto
hintmask 11011100
15 25 26 9 31 hhcurveto
endchar
                </CharString>
                <CharString name="hbar">
                    21 -21 443 129 52 95 61 11 callgsubr
78 159 157 158 hintmask 11101110
319 443 -67 callsubr
132 -60 56 -95 -68 -51 -28 -34 -41 vhcurveto
114 126 95 -126 75 vlineto
hintmask 11110110
-159 -14 rlineto
-61 -61 -96 61 -623 159 419 vlineto
hintmask 11101110
15 25 26 9 31 hhcurveto
endchar
                </CharString>
                <CharString name="hcoslug">
                    -100 75 5 10 -6 10 -4 11 -10 10 -9 7 0 12 -11 11 -7 15 -15 26 -25 26 -15 8 -8 15 -12 12 0 14 -9 10 -10 19 -9 11 2 8 -7 32 71.5 22.5 514 -20 hstemhm
87 64 10 16 -3 8 5 40 -35 12 -1 12 14 10 -2 10 -10 42 -31 9 -1 7 3 12 -6 11 9 40 -29 13 -9 10 0 12 -4 11 -2 12 -5 16 18 11 10 8 hintmask 000000100000000000010110000010000010000010010000
537 700 rmoveto
-450 hlineto
hintmask 100000000000000000011010000000100000001000000000
-800 450 vlineto
-300 396 rmoveto
-17 11 -11 17 -16 vhcurveto
9 13 5 12 12 vvcurveto
18 -9 11 -13 -12 -8 -9 -13 vhcurveto
49 -64 rmoveto
12 -12 9 -12 9 -11 15 25 3 18 -17 17 -7 -7 -10 -9 -14 -9 rrcurveto
-39 -93 rmoveto
12 9 3 6 8 hvcurveto
-2 callgsubr
22 -14 13 rrcurveto
-8 -8 -4 -11 -11 vvcurveto
-23 17 -18 22 vhcurveto
91 34 rmoveto
-22 19 13 -9 15 hhcurveto
15 9 9 13 8 hvcurveto
5 -1 rlineto
-44 -1 -27 -27 -32 hhcurveto
-22 -17 8 26 -25 hvcurveto
-23 -21 -25 -11 -32 hhcurveto
-45 -36 30 40 31 21 24 40 13 hvcurveto
-16 17 -7 13 22 vvcurveto
32 31 32 51 46 25 -30 -26 -10 -2 -8 -5 -7 vhcurveto
20 15 -8 -20 2 hvcurveto
18 12 14 10 19 hhcurveto
21 16 -15 -24 -23 -16 -17 -21 -14 -12 7 12 -6 hvcurveto
-12 -7 -12 -10 -11 -15 rrcurveto
hintmask 000000000000000000010000000000000100000000000000
-72 -105 rmoveto
-8 10 -5 -10 vlineto
hintmask 000000000000000010000000000000000100000000000000
-15 vlineto
-3 1 -1 2 2 1 1 4 1 vhcurveto
4 -1 rlineto
-2 -7 -3 -3 -6 -6 -3 4 0 hflex1
hintmask 000000000000000001000000000000010000000000000000
15 -5 5 5 7 vlineto
hintmask 000000000000000100000000100000000000000000000000
-75 -21 -22 callsubr
-6 callsubr
22 hmoveto
-46 callgsubr
hintmask 000000000000001000000000000000000000000100000000
132 -1 rmoveto
0 6 -2 4 -3 -5 -1 -5 0 hflex1
0 -6 1 -4 5 3 2 4 0 hflex1
-6 callsubr
-120 -9 rmoveto
4 hlineto
hintmask 000000000000000001000010000000000000000000000000
19 -4 5 vlineto
hintmask 000000000000000000010000000010000000000000000000
13 -6 hlineto
4 2 3 3 5 hhcurveto
7 2 -5 -6 hvcurveto
hintmask 000000000000000100000000000000010000000000000000
-14 5 -5 vlineto
hintmask 000000000010000000000000000010000000000000000000
-17 5 3 hlineto
hintmask 000000000000000001000000000010000000000000000000
13 vlineto
3 -1 3 -3 -3 -3 -3 -5 vhcurveto
-11 3 -5 vlineto
-6 callsubr
-16 hlineto
-71 5 rmoveto
6 hlineto
hintmask 000000000000000000100010000000000000000000000000
31 -6 5 vlineto
hintmask 000000000000000000010000001000000000000000000000
38 hlineto
hintmask 000000000000000001000000001000000000000000000000
-15 -5 vlineto
8 -2 -1 2 -6 hhcurveto
-8 hlineto
hintmask 000000000000000000100001000000000000000000000000
-14 3 vlineto
4 0 1 5 1 hvcurveto
5 hlineto
hintmask 000000000000000100000000100000000000000000000000
-17 -5 vlineto
5 -1 0 1 -4 hhcurveto
-3 hlineto
hintmask 000000000000000100000001000000000000000000000000
-12 7 -5 vlineto
-6 callsubr
-23 hlineto
hintmask 000000000000000010000000000000000100000000000000
133 10 rmoveto
5 hlineto
-4 3 3 -3 3 hhcurveto
3 1 2 1 hvcurveto
hintmask 000000000000000000100000000000000100000000000000
7 -18 -4 12 vvcurveto
4 4 5 7 3 3 -1 -3 2 vhcurveto
1 4 rlineto
5 -10 -5 hlineto
4 -3 -2 1 -3 hhcurveto
-2 -2 -1 -2 hvcurveto
hintmask 000000000010000000000000000000000000100000000000
-5 18 2 -11 vvcurveto
-5 -3 -4 -7 -5 -3 2 2 -2 vhcurveto
-1 -3 rlineto
-5 hlineto
hintmask 000000000000000000100000000000000000100000000000
38 38 rmoveto
-5 5 hlineto
hintmask 000000000000000000010000000000000000000100000000
14 hlineto
hintmask 000000000000000000100000000000000000000100000000
-20 vlineto
4 1 4 3 4 hhcurveto
hintmask 000000000100000000000000000000000000000010000000
7 0 5 -6 0 -9 0 -7 -3 -9 0 flex1
-6 -3 2 4 -2 hvcurveto
-3 -6 rlineto
-4 hlineto
hintmask 100000000000000000010000000000000000000010000000
39 -6 rmoveto
3 3 2 4 hvcurveto
-3 7 -9 18 0 vvcurveto
-3 5 18 -5 -4 hlineto
7 -15 6 15 rlineto
-4 5 13 -5 -4 hlineto
hintmask 000000001000000000000000000000000000000010000000
-10 -24 rlineto
-7 -3 -4 -5 -6 hhcurveto
-6 -3 3 4 3 2 2 3 hvcurveto
hintmask 100000000000000000010000000000000000000010000000
5 1 -5 -2 -2 hvcurveto
hintmask 000000010000000000000000000000000000000000000000
45 -24 rmoveto
-6 -4 vlineto
-2 -4 -2 -3 -3 -3 rrcurveto
2 -2 2 -2 1 1 1 1 1 hflex1
3 -1 rlineto
-5 -1 -2 -4 -6 hhcurveto
hintmask 100000000000000000000000000000000000000001000000
-4 0 -2 2 -3 3 -3 -3 -4 -2 -6 flex1
-7 -5 4 6 6 4 3 6 2 hvcurveto
-3 3 -2 3 4 vvcurveto
hintmask 000000000001000000000000000000000000000000100000
5 4 6 9 6 4 -4 -5 -5 -3 -2 -5 -3 vhcurveto
2 -2 4 -5 3 -3 2 2 2 3 1 2 rrcurveto
-5 6 hlineto
hintmask 000000000100000000000000000000000010000000000000
-114 4 rmoveto
11 4 hlineto
-3 -2 2 2 2 1 1 0 hvcurveto
0 -1 1 -2 -2 -2 -2 -6 vhcurveto
hintmask 100000000000000000000000000000000000000000010000
132 -13 rmoveto
hintmask 000100000000000000000000000000000000000000010000
15 9 8 11 vhcurveto
hintmask 000100000000000000000000000000000000000000000000
5 4 -2 -3 3 hvcurveto
4 6 vlineto
-16 -6 vlineto
hintmask 000000100000000000000000000000000000000000000000
9 -3 -2 3 -6 hhcurveto
-6 -4 -5 -12 hvcurveto
8 callsubr
-11 4 -6 8 vhcurveto
hintmask 000010000000000000000000000000000000000000000000
6 3 6 6 1 hvcurveto
6 hlineto
hintmask 100000000000000000000000000000000000000000000000
-10 -1 -6 -7 -11 hhcurveto
hintmask 100000000000000000000000000000000000000000010000
-13 -8 7 14 hvcurveto
hintmask 000000100000000000000000000000000000000000100000
-29 4 rmoveto
2 1 2 3 3 vvcurveto
3 -2 2 -3 -2 -2 -1 -3 -2 2 -3 3 -3 vhcurveto
hintmask 010000000000000000000000000000000000010000000000
-68 -11 rmoveto
6 callsubr
hintmask 100000000000000000000000000000000000010000000000
-6 -1 -4 -5 -8 hhcurveto
-10 -6 6 9 hvcurveto
hintmask 000000000010000000000000000000000000010000000000
10 7 6 8 11 4 -7 -10 -1 vhcurveto
hintmask 010000000000000000000000000001000000000000000000
-89 hmoveto
6 callsubr
8 callgsubr
-6 -1 -4 -5 -8 hhcurveto
hintmask 100000000000000000000000010000000000000000000000
-10 -6 6 9 hvcurveto
hintmask 000000000010000000000000010000000000000000000000
10 7 6 8 vhcurveto
hintmask 000000000010000000000000000000001000000000000000
11 4 -7 -10 -1 hvcurveto
hintmask 010000000000000000000010000001000000000000000000
-63 2 -22 callsubr
252 hmoveto
8 callsubr
0 9 7 6 9 9 7 -6 0 hflex1
hintmask 010000000000000000000010000001000000000000000000
0 -9 -7 -7 -9 -9 -7 6 0 hflex1
hintmask 000001000000000000000000000001000000010000000000
-138 2 rmoveto
10 hlineto
0 6 -1 3 -4 -3 -2 -2 0 hflex1
-70 hmoveto
10 hlineto
0 6 -1 3 -4 -3 -2 -2 0 hflex1
hintmask 010000000000000000000000000100000000000000000000
-22 -2 rmoveto
-46 callgsubr
8 callsubr
252 hmoveto
-46 callgsubr
8 callgsubr
-208 -10 rmoveto
4 hlineto
hintmask 000001000000000000000000000000001000000000000000
19 -5 5 5 1 vlineto
hintmask 000000000000010000000000000000001000000000000000
10 7 4 6 4 2 -1 -1 2 vhcurveto
8 2 rlineto
hintmask 010000000000000000000000000000000000100000000000
-39 4 -5 vlineto
hintmask 100000000000000000000000000000000010000000000000
-17 5 4 hlineto
hintmask 000001000000000000000000000000000010000000000000
19 -11 vlineto
hintmask 010000000000000000000000000000000010000000000000
-19 4 -5 vlineto
8 callgsubr
-17 hlineto
hintmask 100000000000000000000000000000000001000000000000
69 5 rmoveto
4 hlineto
hintmask 000001000000000000000000000000000001000000000000
19 -4 5 vlineto
hintmask 000000000010000000000000000000000001000000000000
13 -6 hlineto
5 2 3 2 4 hhcurveto
4 2 -2 -4 -3 -2 -2 -3 -2 -3 1 3 hvcurveto
1 vlineto
-1 -3 -3 -4 -1 hvcurveto
hintmask 010000000000000000000000000000000001000000000000
-12 6 -5 vlineto
hintmask 100000000000000000000000000000000001000000000000
-19 hlineto
hintmask 100000000000000000000010000000000000000000000000
-183 5 rmoveto
6 hlineto
hintmask 000000100000000000000010000000000000000000000000
31 -6 5 vlineto
hintmask 000000000000100000000001000000000000000000000000
21 -5 -5 hlineto
hintmask 000000100000000000000001000000000000000000000000
-12 16 12 -5 5 vlineto
hintmask 000000000000100000000000000100000000000000000000
21 -5 -6 hlineto
hintmask 010000000000000000000000000100000000000000000000
-31 6 -5 vlineto
hintmask 100000000000000000000001000000000000000000000000
-21 5 5 hlineto
hintmask 001000000000000000000001000000000000000000000000
14 -16 vlineto
hintmask 010000000000000000000001000000000000000000000000
-14 5 -5 vlineto
hintmask 100000000000000000000010000000000000000000000000
-21 hlineto
hintmask 001000000000000000000000000000000000000000100000
234 7 rmoveto
-2 2 -4 5 -4 4 rrcurveto
-2 -2 -1 -2 -3 vvcurveto
-4 3 -3 4 2 2 1 2 2 vhcurveto
hintmask 100000000000000000000000000000000000000000000000
111 -2 rmoveto
0 -3 -2 -3 -4 -4 -2 3 0 hflex1
0 3 2 3 4 4 2 -3 0 hflex1
endchar
                </CharString>
                <CharString name="hungarumlaut">
                    628 273 hstem
134 497 vstem
134 675 -95 callgsubr
endchar
                </CharString>
                <CharString name="hungarumlaut.cap">
                    628 273 hstem
134 497 vstem
134 675 -95 callgsubr
endchar
                </CharString>
                <CharString name="hyphen">
                    269 134 hstem
136 361 vstem
497 403 rmoveto
-361 -134 347 hlineto
endchar
                </CharString>
                <CharString name="i">
                    -86 callsubr
77 -24 callgsubr
256 166 -163 159 hintmask 11110000
-2 callsubr
334 -639 rmoveto
-8 callgsubr
hintmask 11101000
-90 callsubr
                </CharString>
                <CharString name="iacute">
                    -86 callsubr
-17 callgsubr
193 690 -107 callgsubr
392 -690 rmoveto
-8 callgsubr
-90 callsubr
                </CharString>
                <CharString name="ibreve">
                    -86 callsubr
64 124 -17 callgsubr
343 626 -104 callsubr
242 -626 rmoveto
-8 callgsubr
-90 callsubr
                </CharString>
                <CharString name="icircumflex">
                    -86 callsubr
134 -20 -17 callgsubr
459 623 -100 callgsubr
262 -725 rmoveto
-8 callgsubr
-90 callsubr
                </CharString>
                <CharString name="idieresis">
                    -86 callsubr
77 -24 callgsubr
136.5 160 -37.5 159 -31.5 159 hintmask 11110100
543 639 -103 callsubr
450 -639 rmoveto
-8 callgsubr
hintmask 11101000
-90 callsubr
                </CharString>
                <CharString name="igrave">
                    -86 callsubr
126 -20 -17 callgsubr
478 688 -101 callsubr
149 -620 rmoveto
-8 callgsubr
-90 callsubr
                </CharString>
                <CharString name="imacron">
                    -86 callsubr
91 134 -17 callgsubr
539 787 -66 callgsubr
46 -653 rmoveto
-8 callgsubr
-90 callsubr
                </CharString>
                <CharString name="iogonek">
                    -259 122 137 118 327.5 116.5 77 -24 callgsubr
171 150 -65 166 -163 159 hintmask 11110100
-2 callsubr
183 -776 rmoveto
hintmask 11111000
-83 6 -30 17 23 vvcurveto
23 21 30 68 38 vhcurveto
175 hlineto
-8 callgsubr
hintmask 01110010
-181 444 -332 hlineto
-12 -112 185 -9 rlineto
-323 vlineto
hintmask 11111000
-181 -118 191 hlineto
-68 -48 -30 -45 -44 -11 callgsubr
endchar
                </CharString>
                <CharString name="j">
                    -194 146 491.5 118.5 77 -24 callgsubr
297 165.5 -155.5 157 hintmask 11110000
460 639 -39 callgsubr
-165 hlineto
-6 -161 rlineto
-190 -77 rmoveto
-13 -112 rlineto
hintmask 11101000
216 -13 rlineto
-388 vlineto
-85 -17 -7 -213 -5 vhcurveto
-6 -146 rlineto
292 3 101 106 168 vvcurveto
479 vlineto
endchar
                </CharString>
                <CharString name="k">
                    -32 callgsubr
-60 callgsubr
endchar
                </CharString>
                <CharString name="kcommaaccent">
                    -32 callgsubr
4 170 -60 callgsubr
hintmask 0011010101000000
-62 -541 -99 callsubr
                </CharString>
                <CharString name="l">
                    -10 callsubr
vstem
-29 callsubr
endchar
                </CharString>
                <CharString name="lacute">
                    -10 callsubr
vstem
172 906 -107 callgsubr
377 -906 rmoveto
-75 callsubr
endchar
                </CharString>
                <CharString name="lcaron">
                    -10 callsubr
82 155 vstem
468 629 -76 callsubr
81 -629 rmoveto
-75 callsubr
endchar
                </CharString>
                <CharString name="lcommaaccent">
                    -23 callsubr
hstemhm
10 callsubr
-156 170 hintmask 11100000
-29 callsubr
hintmask 11010000
151 -299 -99 callsubr
                </CharString>
                <CharString name="ldot">
                    0 118 164 164 214.5 17 callsubr
154 143.5 vstem
-29 callsubr
616 282 rmoveto
9 164 rlineto
-143 hlineto
-10 -164 rlineto
endchar
                </CharString>
                <CharString name="less">
                    582 -20 132 -20 hstem
88 141 vstem
458 694 rmoveto
-370 -298 rlineto
-130 vlineto
364 -295 88 113 -311 241 rlineto
14 vlineto
312 243 rlineto
endchar
                </CharString>
                <CharString name="lessequal">
                    -1 132 563 -20 hstem
82.5 -52 callgsubr
vstem
247 424 rmoveto
285 152 -61 118 -387 -223 -3 -117 401 -184 50 122 -285 124 rlineto
302 -285 rmoveto
-472 -132 472 hlineto
endchar
                </CharString>
                <CharString name="lslash">
                    0 118 436 -20 126.5 17 callsubr
vstem
549 hmoveto
13 1 callsubr
-165 275 hlineto
123 61 -23 100 -100 -49 rlineto
273 -308 vlineto
-13 -113 162 -9 rlineto
-230 vlineto
-131 -65 23 -100 108 53 rlineto
-196 5 callgsubr
endchar
                </CharString>
                <CharString name="m">
                    13 callsubr
49 144 70 105 69 144 hintmask 11001110
235 443 rmoveto
17 11 -11 -38 hvcurveto
-394 105 428 vlineto
10 10 11 5 15 hhcurveto
20 13 -11 -38 hvcurveto
-394 144 446 vlineto
hintmask 10101110
85 -28 46 -66 -50 -37 -26 -33 -28 vhcurveto
36 -11 -24 23 -44 hhcurveto
-44 -37 -25 -32 -29 hvcurveto
hintmask 10011110
-4 45 rlineto
hintmask 10101110
-134 -8 rlineto
4 -125 0 -172 -260 vvcurveto
144 hlineto
hintmask 11001110
172 -1 146 -1 108 vhcurveto
11 13 14 6 17 hhcurveto
endchar
                </CharString>
                <CharString name="macron">
                    -23 callgsubr
                </CharString>
                <CharString name="macron.cap">
                    -23 callgsubr
                </CharString>
                <CharString name="minus">
                    270 132 9 callgsubr
402 rmoveto
9 callsubr
endchar
                </CharString>
                <CharString name="mu">
                    -174 -21 181 132 -111 -21 30 -21 23 -21 28 -21 553 -20 25 -20 24 -20 -53 callgsubr
hintmask 1000010011100000
227 -182 rmoveto
hintmask 1001000011100000
-4 177 rlineto
hintmask 1010000011100000
-6 14 16 -3 18 hhcurveto
58 42 33 40 33 hvcurveto
hintmask 1000100011100000
8 -62 rlineto
hintmask 1000010101100000
143 7 rlineto
-7 127 -3 171 260 vvcurveto
-157 hlineto
hintmask 1100000011100000
-168 1 -144 2 -106 vhcurveto
-17 -26 -27 -9 -32 hhcurveto
-46 -29 21 76 hvcurveto
351 vlineto
hintmask 1000011001100000
-157 -9 rlineto
-752 vlineto
endchar
                </CharString>
                <CharString name="multiply">
                    582 -20 hstem
64 498 vstem
463 84 rmoveto
99 97 -153 156 149 151 -96 94 -147 -149 -151 153 -100 -98 153 -155 -149 -150 96 -94 147 149 rlineto
endchar
                </CharString>
                <CharString name="n">
                    13 callsubr
80 158 156 158 hintmask 11001100
319 443 -67 callsubr
hintmask 10101100
-43 callsubr
hintmask 10011100
-8 62 rlineto
hintmask 10101100
-62 callsubr
hintmask 11001100
-54 callgsubr
endchar
                </CharString>
                <CharString name="nacute">
                    -37 callgsubr
240 -20 -12 callgsubr
hintmask 10101110
165 706 -107 callgsubr
hintmask 11001110
154 -263 -66 callsubr
                </CharString>
                <CharString name="naira">
                    21 -21 153 100 -99 124 115 123 -98 100 170 -20 hstemhm
102 126.5 189 120.5 hintmask 11001111
414 269 rmoveto
-66 149 rlineto
71 hlineto
1 -149 rlineto
-194 143 rmoveto
6 hlineto
71 -159 rlineto
-76 hlineto
190 -253 rmoveto
121 hlineto
hintmask 10110111
154 62 124 -62 115 63 123 -63 172 -121 vlineto
hintmask 11001111
1 -170 rlineto
-114 hlineto
-75 170 rlineto
-127 hlineto
hintmask 10110111
-172 -64 -123 64 -115 -64 -124 64 -154 127 vlineto
hintmask 11001111
-1 153 rlineto
120 hlineto
endchar
                </CharString>
                <CharString name="ncaron">
                    -37 callgsubr
238 -20 -12 callgsubr
hintmask 10101110
326 631 -101 callgsubr
hintmask 11001110
4 -188 -66 callsubr
                </CharString>
                <CharString name="ncommaaccent">
                    13 callsubr
80 158 13 170 -27 158 hintmask 11001010
319 443 -67 callsubr
hintmask 10101010
-43 callsubr
hintmask 10011010
-8 62 rlineto
hintmask 10101010
-62 callsubr
hintmask 11001010
-54 callgsubr
hintmask 10101100
-84 -742 -99 callsubr
                </CharString>
                <CharString name="nine">
                    267 105 210 122 hstem
64 145 203 147 vstem
196 -24 rmoveto
252 108 111 154 193 vvcurveto
178 -98 95 -147 -134 -116 -91 -149 -177 178 -71 154 89 vhcurveto
-27 -76 -71 -60 -167 -64 rrcurveto
78 373 rmoveto
69 37 35 54 62 50 -49 -118 vhcurveto
-6 0 -6 -7 vvcurveto
-121 -52 -82 36 98 vvcurveto
endchar
                </CharString>
                <CharString name="nine.den">
                    -68 -62 callgsubr
-253 -97 callgsubr
                </CharString>
                <CharString name="nine.inf">
                    -2 -62 callgsubr
-187 -97 callgsubr
                </CharString>
                <CharString name="nine.num">
                    637 -62 callgsubr
452 -97 callgsubr
                </CharString>
                <CharString name="nine.small">
                    165 -62 callgsubr
-20 -97 callgsubr
                </CharString>
                <CharString name="nine.sup">
                    526 -62 callgsubr
341 -97 callgsubr
                </CharString>
                <CharString name="notequal">
                    15 -21 158 132 110 132 159 -20 9 callgsubr
152 rmoveto
132 -185 vlineto
40 110 rlineto
145 132 -98 hlineto
44 123 -119 36 -57 -159 rlineto
-236 -132 188 hlineto
-39 -110 rlineto
-149 -132 101 hlineto
-44 -123 120 -35 57 158 rlineto
endchar
                </CharString>
                <CharString name="ntilde">
                    -37 callgsubr
103 125 -79 -20 54 125 -12 callgsubr
hintmask 1010100110000000
396 648 -77 callgsubr
hintmask 1010011110000000
-89 callsubr
hintmask 1010100110000000
-20 callsubr
hintmask 1100011110000000
-77 -205 -67 callsubr
hintmask 1010011110000000
-43 callsubr
hintmask 1001011110000000
-8 62 rlineto
hintmask 1010011110000000
-62 callsubr
hintmask 1100011110000000
-54 callgsubr
endchar
                </CharString>
                <CharString name="numbersign">
                    21 -21 164 130 102 130 162 -20 hstem
159 -39 callsubr
94 106 vstem
353 294 rmoveto
-94 hlineto
11 102 rlineto
94 hlineto
-40 -396 rmoveto
106 hlineto
16 164 rlineto
97 hlineto
13 130 rlineto
-97 hlineto
11 102 rlineto
95 hlineto
15 130 rlineto
-97 13 callgsubr
-94 13 callgsubr
-95 hlineto
-13 -130 rlineto
95 hlineto
-10 -102 rlineto
-94 hlineto
-14 -130 rlineto
95 hlineto
-16 -164 rlineto
105 hlineto
16 164 rlineto
94 hlineto
endchar
                </CharString>
                <CharString name="numero">
                    0 174 -104 104 514 -20 28 -20 hstemhm
24 119 57.5 119.5 20 270 -261 249 hintmask 10011110
462 210 rmoveto
89 59 101 160 152 -46 73 -76 -89 -59 -101 -160 -152 46 -73 76 hvcurveto
hintmask 10101100
-239 -210 rmoveto
97 688 5 callsubr
11 -290 rlineto
-3 hlineto
-77 290 rlineto
-102 -688 125 hlineto
-12 336 rlineto
3 hlineto
hintmask 01011101
458 -266 rmoveto
hintmask 10011101
104 -249 vlineto
hintmask 01011101
-104 vlineto
endchar
                </CharString>
                <CharString name="o">
                    -45 callgsubr
-47 callsubr
290 -18 -105 callgsubr
                </CharString>
                <CharString name="oacute">
                    -45 callgsubr
199 -20 -47 callsubr
167 699 -107 callgsubr
123 -717 -105 callgsubr
                </CharString>
                <CharString name="obreve">
                    -45 callgsubr
56 124 -47 callsubr
317 635 -104 callsubr
-27 -653 -105 callgsubr
                </CharString>
                <CharString name="ocircumflex">
                    -45 callgsubr
126 -20 -47 callsubr
433 632 -100 callgsubr
-7 -752 -105 callgsubr
                </CharString>
                <CharString name="odieresis">
                    -45 callgsubr
69 -24 callgsubr
53 160 -102.5 -42 callgsubr
-106.5 160 hintmask 11101100
517 648 -28 callgsubr
181 -666 -105 callgsubr
                </CharString>
                <CharString name="oe">
                    -10 125 -123 129 123.5 87.5 114 126 hstemhm
25 155 79 132 67 138 hintmask 10111110
225 115 rmoveto
-33 -12 61 119 109 13 42 24 30 12 -61 -117 -110 -11 -43 -23 hvcurveto
199 329 rmoveto
22 10 -37 -71 2 hvcurveto
-18 -1 -25 -1 -25 -2 rrcurveto
86 2 11 26 21 hhcurveto
hintmask 01111110
157 -452 rmoveto
10 129 -167 -2 -29 26 -4 96 rlinecurve
205 7 rlineto
205 14 -55 119 -110 hhcurveto
-43 -39 -24 -40 -29 hvcurveto
42 -24 -34 22 -46 hhcurveto
-122 -83 -121 -186 hvcurveto
hintmask 10111110
-185 70 -90 103 51 42 27 48 30 vhcurveto
hintmask 01111110
43 -52 79 -26 138 5 rrcurveto
endchar
                </CharString>
                <CharString name="ogonek">
                    -60 callsubr
                </CharString>
                <CharString name="ogonek.cap">
                    -60 callsubr
                </CharString>
                <CharString name="ograve">
                    -45 callgsubr
118 -20 -47 callsubr
451 697 -101 callsubr
-119 -647 -105 callgsubr
                </CharString>
                <CharString name="ohungarumlaut">
                    -45 callgsubr
105 -20 -47 callsubr
120 684 -95 callgsubr
-66 -700 -105 callgsubr
                </CharString>
                <CharString name="omacron">
                    -45 callgsubr
83 134 -47 callsubr
513 796 -66 callgsubr
-223 -680 -105 callgsubr
                </CharString>
                <CharString name="one">
                    0 131 353 130 82 -20 32 -20 hstemhm
267 151 hintmask 11011000
569 hmoveto
12 131 rlineto
-163 577 hlineto
hintmask 11101000
-151 -12 rlineto
-82 vlineto
-165 -16 4 -114 rlineto
161 -353 -183 -131 hlineto
endchar
                </CharString>
                <CharString name="one.den">
                    -233 -34 callgsubr
-233 -63 callgsubr
                </CharString>
                <CharString name="one.inf">
                    -167 -34 callgsubr
-167 -63 callgsubr
                </CharString>
                <CharString name="one.num">
                    472 -34 callgsubr
472 -63 callgsubr
                </CharString>
                <CharString name="one.small">
                    0 -34 callgsubr
hmoveto
-99 callgsubr
endchar
                </CharString>
                <CharString name="one.sup">
                    361 -34 callgsubr
361 -63 callgsubr
                </CharString>
                <CharString name="oneeighth">
                    -43 callgsubr
72 10 callgsubr
125 118 -7 callsubr
16 119 -14 116 -115 124 hintmask 1011111001000000
494 472 rmoveto
10 101 rlineto
-114 353 hlineto
-119 -10 rlineto
-65 vlineto
-117 -12 3 -89 rlineto
114 -177 -124 -101 hlineto
-75 -183 -73 callsubr
hintmask 1101111011000000
-36 callsubr
hintmask 1011111101000000
-36 callgsubr
hintmask 1011111100010000
-37 callsubr
hintmask 1011111010100000
-93 callsubr
hintmask 1011111100010000
-94 callgsubr
                </CharString>
                <CharString name="onefifth">
                    -21 callgsubr
83 -16 callgsubr
-12 callsubr
0.5 119 -13 115 hintmask 11111010
494 472 rmoveto
10 101 rlineto
-114 353 hlineto
-119 -10 rlineto
-65 vlineto
-117 -12 3 -89 rlineto
114 -177 -124 -101 hlineto
-75 -183 -87 callsubr
                </CharString>
                <CharString name="onehalf">
                    -233 103 239 108 72 -13 callgsubr
-36 125 hintmask 11111100
-92 callsubr
418 -622 rmoveto
1 callgsubr
hintmask 11111010
-98 callsubr
endchar
                </CharString>
                <CharString name="onequarter">
                    -158 -20 callgsubr
348.5 -13 callgsubr
-42.5 114 hintmask 11111000
-92 callsubr
hintmask 11110100
436 -548 -97 callsubr
endchar
                </CharString>
                <CharString name="onesixth">
                    -244 95 110 78 250 10 callgsubr
121 118 32 119 -3 115 hintmask 11111110
-92 callsubr
239 -633 rmoveto
hintmask 11111101
104 87 64 94 126 -150 35 -108 -73 hvcurveto
15 55 50 27 140 39 -39 101 rcurveline
-194 -54 -95 -101 -128 vvcurveto
hintmask 11111110
-121 77 -64 113 vhcurveto
hintmask 11111101
10 95 rmoveto
-44 -36 29 66 -2 hvcurveto
87 31 61 -19 -51 vvcurveto
-37 -26 -19 -40 vhcurveto
endchar
                </CharString>
                <CharString name="onethird">
                    -246 107 242 102 84 -13 callgsubr
-17 119 hintmask 11111100
-92 callsubr
80 -635 rmoveto
hintmask 11111010
-105 callsubr
endchar
                </CharString>
                <CharString name="ordfeminine">
                    109 101 61 94 81 80 60 110 hstem
121 129 113 127 vstem
301 365 rmoveto
-33 -18 10 31 33 15 16 98 -9 hvcurveto
-25 1 -21 1 -19 vhcurveto
-10 -21 -23 -6 -20 hhcurveto
80 -86 rmoveto
118 5 rlineto
-4 55 -5 69 79 vvcurveto
156 -65 52 -267 1 vhcurveto
-11 -110 160 -3 45 -8 8 -49 rlinecurve
-167 -1 -72 -67 -78 vvcurveto
-67 57 -42 80 51 37 18 24 28 vhcurveto
-258 -103 rmoveto
-101 393 101 vlineto
endchar
                </CharString>
                <CharString name="ordmasculine">
                    109 101 61 102 222 102 hstem
101 128 164 129 vstem
101 473 rmoveto
-131 77 -71 114 127 103 91 134 128 -79 73 -113 -123 -106 -92 -132 vhcurveto
215 -100 rmoveto
-57 -30 34 87 69 23 32 56 58 27 -34 -86 -70 -23 -32 -54 hvcurveto
193 -264 rmoveto
101 -394 -101 vlineto
endchar
                </CharString>
                <CharString name="oslash">
                    2 callgsubr
hstemhm
53 156 209 155 hintmask 10010011
209 294 -65 callsubr
hintmask 10001011
78 -17 63 -31 46 vhcurveto
49 70 rlineto
hintmask 10000111
-89 58 -39 -56 rlineto
hintmask 00110011
-22 callgsubr
hintmask 01010011
87 -58 38 54 rlineto
hintmask 10010011
-16 32 37 -8 41 hhcurveto
endchar
                </CharString>
                <CharString name="oslashacute">
                    2 callgsubr
243 -20 hstemhm
53 156 209 155 hintmask 1001001110000000
167 699 -107 callgsubr
42 -405 -65 callsubr
hintmask 1000101110000000
78 -17 63 -31 46 vhcurveto
49 70 rlineto
hintmask 1000011110000000
-89 58 -39 -56 rlineto
hintmask 0011001110000000
-22 callgsubr
hintmask 0101001110000000
87 -58 38 54 rlineto
hintmask 1001001110000000
-16 32 37 -8 41 hhcurveto
endchar
                </CharString>
                <CharString name="otilde">
                    -45 callgsubr
62 125 -79 -20 54 125 hstemhm
53 160 200 160 hintmask 11100110
397 641 -77 callgsubr
hintmask 11011110
-89 callsubr
hintmask 11100110
-20 callsubr
hintmask 11011110
-107 -659 -105 callgsubr
                </CharString>
                <CharString name="p">
                    -174 -21 179 136 330 127 20 callsubr
hstemhm
82 157 175 157 hintmask 11010110
291 120 rmoveto
-21 -15 3 6 -16 hvcurveto
hintmask 11100110
-1 128 -2 97 -2 71 rrcurveto
16 24 25 9 23 hhcurveto
63 45 -57 -120 hvcurveto
hintmask 11010110
-105 -52 -48 -71 vhcurveto
-52 -302 rmoveto
166 vlineto
185 147 119 209 162 -84 103 -116 -60 -48 -30 -36 -36 hvcurveto
hintmask 11001110
-7 54 rlineto
hintmask 11010110
-144 -8 rlineto
5 -105 1 -149 -309 vvcurveto
-189 vlineto
endchar
                </CharString>
                <CharString name="paragraph">
                    89 123 345 145 hstemhm
48 141 47 125 -94.5 90.5 67 128 hintmask 11101100
424 212 rmoveto
-24 -22 3 4 -21 hvcurveto
341 vlineto
20 1 22 -1 25 -3 rrcurveto
-235 -162 rmoveto
60 20 56 57 29 vhcurveto
1 -286 rlineto
-51 33 -27 50 58 vvcurveto
hintmask 11110100
172 -512 rmoveto
208 vlineto
-1 20 21 -1 22 hhcurveto
-196 vlineto
128 14 rlineto
795 vlineto
-340 1 -164 -128 -202 vvcurveto
-118 65 -93 123 -44 vhcurveto
-248 vlineto
endchar
                </CharString>
                <CharString name="parenleft">
                    -233 18 callsubr
816 -51 callsubr
                </CharString>
                <CharString name="parenleft.cap">
                    -183 18 callsubr
866 -51 callsubr
                </CharString>
                <CharString name="parenright">
                    -233 17 callgsubr
-233 -51 callgsubr
                </CharString>
                <CharString name="parenright.cap">
                    -183 17 callgsubr
-183 -51 callgsubr
                </CharString>
                <CharString name="percent">
                    5 -21 720 -20 hstem
41 227 89 226 vstem
134 -16 rmoveto
452 658 -95 62 -453 -657 rlineto
3 498 rmoveto
-92 45 -55 61 68 53 62 96 92 -45 56 -61 -66 -55 -62 -97 vhcurveto
542 -403 rmoveto
92 -44 56 -61 -67 -54 -62 -97 -92 44 -55 61 68 53 62 96 vhcurveto
endchar
                </CharString>
                <CharString name="period">
                    0 183 hstem
198 207.5 vstem
401 hmoveto
9 183 rlineto
-207 hlineto
-10 -183 rlineto
endchar
                </CharString>
                <CharString name="periodcentered">
                    241 183 hstem
208.5 207.5 vstem
415 241 rmoveto
2 19 callgsubr
-1 -183 rlineto
endchar
                </CharString>
                <CharString name="peso">
                    21 -21 367 126 -116 111 85 127 -12 -20 hstemhm
101 144 hintmask 10110100
245 488 rmoveto
85 vlineto
83 7 53 -29 18 -63 rrcurveto
-154 -184 rmoveto
73 157 vlineto
-17 -70 -54 -17 -86 14 rrcurveto
hintmask 11001100
359 63 rmoveto
126 -58 vlineto
-18 165 -150 72 -277 -42 rrcurveto
-195 -65 -126 65 -367 144 171 vlineto
144 20 110 59 36 117 rrcurveto
endchar
                </CharString>
                <CharString name="plus">
                    270 132 hstem
242 141 vstem
559 270 rmoveto
132 -176 186 -141 -186 -176 -132 176 -188 141 188 vlineto
endchar
                </CharString>
                <CharString name="plusminus">
                    39 132 153 132 hstem
242 141 vstem
552 39 rmoveto
132 -169 153 169 132 -169 179 -141 -179 -170 -132 170 -153 -170 -132 vlineto
endchar
                </CharString>
                <CharString name="published">
                    8 79 89 330 96 78 hstem
41 85 90 91 192 84 vstem
41 340 rmoveto
-208 101 -124 159 -1 callgsubr
-157 -109 16 callgsubr
66 88 112 6 callgsubr
-108 -70 89 168 vhcurveto
181 -168 rmoveto
79 vlineto
77 19 54 49 68 vvcurveto
86 -71 44 -151 -20 vhcurveto
-325 vlineto
endchar
                </CharString>
                <CharString name="q">
                    -174 -21 178 129 330 135 hstem
54 156 177 157 vstem
387 -195 rmoveto
157 13 rlineto
728 vlineto
21 -53 -54 10 -65 hhcurveto
-170 -148 -123 -205 -162 82 -104 119 54 44 24 31 34 hvcurveto
-68 74 rmoveto
-67 -42 57 118 106 38 49 65 25 24 -4 -9 25 hvcurveto
-295 vlineto
-14 -21 -21 -8 -26 hhcurveto
endchar
                </CharString>
                <CharString name="question">
                    0 167 hstemhm
174.5 190.5 17 171 hintmask 11000000
96 607 rmoveto
hintmask 11100000
246 -19 40 -24 -33 vvcurveto
-54 -155 -42 -7 -163 vhcurveto
113 -3 rlineto
15 141 205 36 127 vvcurveto
92 -96 75 -346 15 vhcurveto
hintmask 11000000
252 -755 rmoveto
4 167 rlineto
-190 hlineto
-5 -167 rlineto
endchar
                </CharString>
                <CharString name="questiondown">
                    522 166 hstemhm
71 172 17 190 hintmask 10100000
262 688 rmoveto
-4 -166 rlineto
190 hlineto
4 166 rlineto
78 -607 rmoveto
hintmask 11100000
-248 19 -39 24 34 vvcurveto
53 156 42 6 163 vhcurveto
-113 4 rlineto
-15 -141 -206 -37 -127 vvcurveto
-92 97 -75 345 -15 vhcurveto
endchar
                </CharString>
                <CharString name="quotedbl">
                    413 340 hstem
116.5 171.5 82.5 171 vstem
484 413 rmoveto
59 284 -3 56 rlineto
-172 hlineto
5 -340 rlineto
-143 hmoveto
59 284 -2 56 rlineto
-173 hlineto
5 -340 rlineto
endchar
                </CharString>
                <CharString name="quotedblbase">
                    -176 371 hstem
113 168 247 12 vstem
84 -153 rmoveto
77 -23 94 91 54 164 -44 116 rlinecurve
-185 -7 45 -108 -3 -154 -38 -79 rlinecurve
249 1 rmoveto
77 -23 98 86 58 164 -38 120 rlinecurve
-185 -6 39 -107 -4 -155 -45 -79 rlinecurve
endchar
                </CharString>
                <CharString name="quotedblleft">
                    397 371 hstem
86 169 90 166 vstem
541 746 rmoveto
-78 22 -92 -90 -55 -164 44 -117 rlinecurve
184 8 -44 108 2 154 39 79 rlinecurve
-250 -1 rmoveto
-76 23 -97 -88 -60 -163 40 -120 rlinecurve
184 7 -40 107 5 155 44 79 rlinecurve
endchar
                </CharString>
                <CharString name="quotedblright">
                    386 372 hstem
119 167 249 12 vstem
88 410 rmoveto
79 -24 92 91 57 165 -46 116 rlinecurve
-184 -8 45 -107 -3 -155 -40 -78 rlinecurve
253 1 rmoveto
77 -24 96 87 61 164 -40 120 rlinecurve
-185 -7 41 -106 -5 -155 -45 -79 rlinecurve
endchar
                </CharString>
                <CharString name="quoteleft">
                    397 371 hstem
209 178 vstem
434 745 rmoveto
-84 23 -98 -84 -83 -165 60 -122 rlinecurve
193 8 -56 112 14 152 54 76 rlinecurve
endchar
                </CharString>
                <CharString name="quoteright">
                    387 372 hstem
250 178 vstem
202 412 rmoveto
85 -25 97 85 83 164 -59 123 rlinecurve
-193 -8 55 -113 -13 -152 -55 -74 rlinecurve
endchar
                </CharString>
                <CharString name="quotesinglbase">
                    -175 370 hstem
240 177 vstem
192 -152 rmoveto
85 -23 97 88 83 164 -61 118 rlinecurve
-190 -7 54 -107 -12 -154 -56 -79 rlinecurve
endchar
                </CharString>
                <CharString name="quotesingle">
                    413 340 hstem
246.5 182 vstem
358 413 rmoveto
72 284 -3 56 rlineto
-182 hlineto
3 -340 rlineto
endchar
                </CharString>
                <CharString name="r">
                    -86 callsubr
23 -20 hstemhm
203 156 hintmask 11010000
499 hmoveto
13 1 callsubr
-153 hlineto
-2 107 -1 80 -2 72 65 24 73 13 80 3 rrcurveto
hintmask 10110000
-6 168 rlineto
hintmask 11010000
-35 callgsubr
                </CharString>
                <CharString name="racute">
                    -86 callsubr
23 -20 214 -20 hstemhm
203 156 hintmask 11011000
192 700 -107 callgsubr
307 -700 -64 callgsubr
                </CharString>
                <CharString name="rcaron">
                    -86 callsubr
23 -20 230 -20 hstemhm
203 156 hintmask 11011000
352 625 -101 callgsubr
158 -625 -64 callgsubr
                </CharString>
                <CharString name="rcommaaccent">
                    -86 callsubr
23 -20 hstemhm
203 156 -143 170 hintmask 11010000
499 hmoveto
13 1 callsubr
-153 hlineto
-2 107 -1 80 -2 72 65 24 73 13 80 3 rrcurveto
hintmask 10110000
-6 168 rlineto
hintmask 11010000
-73 callgsubr
hintmask 11001000
121 -299 -99 callsubr
                </CharString>
                <CharString name="registered">
                    199 73 166 169 80 73 hstem
33 78 97 83 221 80 vstem
592 487 rmoveto
168 -119 108 -160 -3 vhcurveto
-166 -2 -114 -115 -171 vvcurveto
-168 108 -105 168 160 123 117 171 vhcurveto
-80 -7 rmoveto
-133 -81 -75 -120 -119 -81 75 133 131 81 76 119 120 81 -76 -131 vhcurveto
-155 -129 rmoveto
91 8 -68 97 rlineto
28 21 20 28 27 vvcurveto
40 -40 52 -180 -22 vhcurveto
-248 83 84 12 vlineto
endchar
                </CharString>
                <CharString name="registered.alt">
                    8 79 182.5 238.5 94 78 hstem
41 85 79 91 203 84 vstem
41 340 rmoveto
-208 104 -124 156 -1 callgsubr
-155 -111 16 callgsubr
69 88 109 6 callgsubr
-106 -72 89 168 vhcurveto
217 -171 rmoveto
97 10 -51 132 rlineto
23 27 15 32 31 vvcurveto
53 -40 73 -182 -30 vhcurveto
-325 91 93 vlineto
20 1 rlineto
endchar
                </CharString>
                <CharString name="ring">
                    616 246 hstem
169 303 vstem
320 862 -82 callsubr
endchar
                </CharString>
                <CharString name="ring.cap">
                    616 246 hstem
169 303 vstem
320 862 -82 callsubr
endchar
                </CharString>
                <CharString name="ruble">
                    0 218 -108 108 58 114 180 126 -8 -20 hstemhm
120 151 159 150 hintmask 10110110
430 483 rmoveto
-72 -41 -18 -118 -2 vhcurveto
179 vlineto
108 5 51 -28 -64 vvcurveto
hintmask 01110110
33 -373 rmoveto
hintmask 10101110
11 108 rlineto
-203 64 hlineto
197 17 112 65 137 vvcurveto
162 -156 56 -304 -31 vhcurveto
-298 -69 -114 69 vlineto
hintmask 01110110
-53 -69 -113 69 vlineto
hintmask 10110110
-110 151 vlineto
hintmask 01110110
110 vlineto
endchar
                </CharString>
                <CharString name="rupee">
                    -11 123 -97 -2 callgsubr
451 122 114 -20 25 -20 hstemhm
59 114 199 123 -13 129 hintmask 0101101000000000
241 -6 rmoveto
123 17 -75 293 3 callgsubr
hintmask 0011011100000000
-687 118 vlineto
-8 225 23 1 rlineto
402 347 rmoveto
-151 9 -71 -77 -87 vvcurveto
hintmask 1001011010000000
-113 110 -90 -64 vvcurveto
-28 -27 -13 -74 2 vhcurveto
8 -123 rlineto
167 -6 55 80 81 vvcurveto
hintmask 0011011100000000
111 -116 106 56 vvcurveto
27 24 12 80 -5 vhcurveto
endchar
                </CharString>
                <CharString name="rupeeindia">
                    362 105 89 132 -129 -20 hstemhm
82 472 hintmask 11010000
554 67 rmoveto
-140 94 -73 47 -70 26 94 27 60 47 25 54 rrcurveto
83 105 -75 hlineto
-9 35 -20 31 -33 23 rrcurveto
139 hlineto
9 132 rlineto
-443 hlineto
hintmask 10110000
-9 -129 134 -13 60 -33 22 -46 rlinecurve
-213 -105 213 hlineto
-21 -45 -58 -30 -123 -5 -24 -113 rcurveline
137 -37 40 -25 180 -129 rrcurveto
endchar
                </CharString>
                <CharString name="s">
                    -29 callgsubr
20 callgsubr
123 165 hintmask 10111000
505 569 -77 callsubr
hintmask 11011000
-55 callsubr
endchar
                </CharString>
                <CharString name="sacute">
                    -29 callgsubr
20 callgsubr
123 165 hintmask 10111000
172 690 -107 callgsubr
333 -121 -77 callsubr
hintmask 11011000
-55 callsubr
endchar
                </CharString>
                <CharString name="scaron">
                    -29 callgsubr
216 -20 20 callgsubr
123 165 hintmask 10111100
333 615 -101 callgsubr
183 -46 -77 callsubr
hintmask 11011100
-55 callsubr
endchar
                </CharString>
                <CharString name="scedilla">
                    -8 129 -98 -21 433 134 -127 127 20 callgsubr
54 142 -73 165 hintmask 10011010
205 -265 rmoveto
hintmask 01011100
-27 callgsubr
42 -33 47 -98 44 vhcurveto
hintmask 01101010
164 25 59 66 76 -55 callsubr
hintmask 10011010
-6 134 rlineto
-300 18 -113 -93 -104 -142 287 -24 -61 vvcurveto
-38 -68 -10 -203 10 vhcurveto
-6 -133 rlineto
hintmask 10011100
48 -2 43 1 40 2 -16 -35 rcurveline
-56 callsubr
endchar
                </CharString>
                <CharString name="schwa">
                    -16 128 114 92.5 126.5 130 hstem
64 154 191 155 vstem
282 -16 rmoveto
150 132 134 175 183 -94 109 -375 -10 hvcurveto
-15 -130 225 -3 83 -26 18 -93 rlinecurve
-339 -9 rlineto
-205 -20 74 -125 161 hhcurveto
29 128 rmoveto
-63 -26 41 73 -4 hvcurveto
58 2 82 2 51 2 rrcurveto
-89 -5 -32 -31 -61 hhcurveto
endchar
                </CharString>
                <CharString name="scommaaccent">
                    -29 callgsubr
20 callgsubr
-26 170 -21 165 hintmask 10110100
505 569 -77 callsubr
hintmask 11010100
-55 callsubr
hintmask 10101000
-297 -743 -99 callsubr
                </CharString>
                <CharString name="section">
                    -127 129 569 128 hstemhm
54 139 -94 162 102 163 -95 140 hintmask 11100100
193 293 rmoveto
23 35 24 49 17 vhcurveto
79 -27 75 -20 -29 vvcurveto
-24 -35 -24 -49 -17 vhcurveto
-79 28 -75 19 30 vvcurveto
hintmask 11011000
333 -225 rmoveto
48 -36 34 -48 26 vhcurveto
hintmask 11010100
72 33 57 48 62 128 -310 21 51 vvcurveto
23 48 42 214 -17 vhcurveto
-7 132 rlineto
-309 15 -108 -120 -89 vvcurveto
-48 36 -34 48 -26 vhcurveto
hintmask 11101000
-72 -32 -57 -47 -62 -128 309 -25 -50 vvcurveto
-22 -49 -42 -213 17 vhcurveto
-4 -133 rlineto
hintmask 11011000
322 -14 107 120 89 vvcurveto
endchar
                </CharString>
                <CharString name="semicolon">
                    346 183 hstemhm
216.5 207 -179.5 179 hintmask 11000000
422 346 -18 callsubr
hintmask 10100000
-19 -497 rmoveto
84 -24 98 84 85 160 -59 124 rlinecurve
-195 -8 56 -111 -15 -151 -54 -74 rlinecurve
endchar
                </CharString>
                <CharString name="servicemark">
                    311 82 218 77 -77 79 hstemhm
38 90 37 91 34 87 122 89 hintmask 10100110
425 382 12 callsubr
hlineto
hintmask 11001110
376 -88 vlineto
-9 callgsubr
-342 -136 rmoveto
-82 vlineto
159 -6 60 64 59 vvcurveto
hintmask 10111110
85 -128 29 41 vvcurveto
25 32 7 80 -7 vhcurveto
-3 82 rlineto
-148 9 -51 -72 -52 -82 127 -28 -39 vvcurveto
hintmask 11001110
-26 -40 -14 -88 7 vhcurveto
endchar
                </CharString>
                <CharString name="seven">
                    11 -21 38 -21 541 140 hstemhm
84 476 hintmask 10110000
301 -10 rmoveto
63 189 88 193 108 181 rrcurveto
135 -465 vlineto
-11 -140 rlineto
317 hlineto
3 -6 rlineto
hintmask 01110000
-108 -176 -90 -177 -64 -182 rrcurveto
endchar
                </CharString>
                <CharString name="seven.den">
                    100 0 callsubr
-242 -85 callgsubr
endchar
                </CharString>
                <CharString name="seven.inf">
                    166 0 callsubr
-176 -85 callgsubr
endchar
                </CharString>
                <CharString name="seven.num">
                    805 0 callsubr
463 -85 callgsubr
endchar
                </CharString>
                <CharString name="seven.small">
                    12 -21 33 -21 330 105 hstemhm
137 364 hintmask 10110000
310 -9 rmoveto
47 118 65 114 79 112 rrcurveto
103 -354 vlineto
-10 -105 rlineto
236 hlineto
2 -5 rlineto
hintmask 01110000
-81 -108 -62 -105 -51 -112 rrcurveto
endchar
                </CharString>
                <CharString name="seven.sup">
                    694 0 callsubr
352 -85 callgsubr
endchar
                </CharString>
                <CharString name="seveneighths">
                    -43 callgsubr
72 100 416 105 -71 callsubr
hintmask 1011110101000000
310 463 -85 callgsubr
-109 -186 -70 callgsubr
hintmask 1011111001000000
-44 callgsubr
hintmask 1011110110000000
-80 callsubr
vhcurveto
hintmask 1101110101000000
-36 callsubr
hintmask 1011111001000000
-33 callgsubr
hintmask 1011110110000000
-93 callsubr
hintmask 1011111001000000
-94 callgsubr
                </CharString>
                <CharString name="six">
                    -16 123 210 105 hstem
66 146 203 146 vstem
310 -16 rmoveto
134 117 91 149 177 -178 73 -155 -91 hvcurveto
27 77 72 59 166 64 -64 130 rcurveline
-252 -109 -111 -153 -193 vvcurveto
-178 98 -96 146 vhcurveto
14 123 rmoveto
-62 -50 48 118 hvcurveto
7 0 6 6 vvcurveto
121 54 82 -38 -97 vvcurveto
-70 -36 -34 -55 vhcurveto
endchar
                </CharString>
                <CharString name="six.den">
                    -244 -48 callsubr
-244 -102 callsubr
                </CharString>
                <CharString name="six.inf">
                    -178 -48 callsubr
-178 -102 callsubr
                </CharString>
                <CharString name="six.num">
                    461 95 110 41 hstem
121 118 148 115 vstem
311 461 -102 callsubr
                </CharString>
                <CharString name="six.small">
                    -11 -48 callsubr
-11 -102 callsubr
                </CharString>
                <CharString name="six.sup">
                    350 -48 callsubr
350 -102 callsubr
                </CharString>
                <CharString name="slash">
                    -235 1073 hstem
-1 636 vstem
500 838 rmoveto
-501 -1009 136 -64 500 1009 rlineto
endchar
                </CharString>
                <CharString name="space">
                    endchar
                </CharString>
                <CharString name="sterling">
                    0 131 151 114 152 157 hstem
70 480 vstem
542 132 rmoveto
-258 -2 18 152 rlineto
168 hlineto
11 114 rlineto
-166 hlineto
19 147 26 8 190 -3 -8 157 rcurveline
-284 -14 -72 -84 -25 -211 rrcurveto
-75 hlineto
-11 -114 rlineto
75 hlineto
-15 -153 rlineto
-65 -129 472 hlineto
endchar
                </CharString>
                <CharString name="t">
                    -9 callsubr
hstem
178 156 vstem
524 -8 -75 callgsubr
endchar
                </CharString>
                <CharString name="tcaron">
                    -9 callsubr
hstem
178 156 78 155 vstem
401 662 -76 callsubr
123 -670 -75 callgsubr
endchar
                </CharString>
                <CharString name="tcommaaccent">
                    -9 callsubr
hstemhm
178 156 -57 170 hintmask 11110000
524 -8 -75 callgsubr
hintmask 11101000
-263 -299 -99 callsubr
                </CharString>
                <CharString name="thorn">
                    -174 -21 179 7 callsubr
79 159 173 157 hintmask 11101110
288 120 rmoveto
-20 -15 3 6 -15 hvcurveto
300 vlineto
14 21 22 7 21 hhcurveto
64 45 -57 -120 -105 -52 -48 -71 hvcurveto
-50 -302 rmoveto
166 vlineto
185 145 119 209 162 -85 103 -115 -53 -43 -22 -30 -34 hvcurveto
269 vlineto
hintmask 11110110
-159 -14 rlineto
-975 vlineto
endchar
                </CharString>
                <CharString name="three">
                    -16 143 -122 -21 569 135 hstemhm
392 152 hintmask 01110000
105 -16 rmoveto
306 16 133 91 121 vvcurveto
77 -63 67 -164 35 vhcurveto
209 162 -11 135 rlineto
-408 -135 260 hlineto
-222 -173 rlineto
-69 vlineto
hintmask 10110000
181 -24 66 -45 -40 vvcurveto
-42 -64 -19 -233 -14 vhcurveto
endchar
                </CharString>
                <CharString name="three.den">
                    -246 -46 callsubr
-246 rmoveto
-105 callsubr
endchar
                </CharString>
                <CharString name="three.inf">
                    -180 -46 callsubr
-180 rmoveto
-105 callsubr
endchar
                </CharString>
                <CharString name="three.num">
                    459 -46 callsubr
459 rmoveto
-105 callsubr
endchar
                </CharString>
                <CharString name="three.small">
                    -13 -46 callsubr
-13 rmoveto
-105 callsubr
endchar
                </CharString>
                <CharString name="three.sup">
                    348 -46 callsubr
348 rmoveto
-105 callsubr
endchar
                </CharString>
                <CharString name="threeeighths">
                    -43 callgsubr
72 100 70 107 242 102 hstemhm
125 118 -7 callsubr
118 119 -116 116 -115 124 hintmask 1011111011000000
152 459 rmoveto
-64 callsubr
hintmask 1011111100010000
-44 callgsubr
hintmask 1011111010100000
-80 callsubr
vhcurveto
hintmask 1101111011000000
-36 callsubr
hintmask 1011111101000000
-36 callgsubr
hintmask 1011111100010000
-37 callsubr
hintmask 1011111010100000
-93 callsubr
hintmask 1011111100010000
-94 callgsubr
                </CharString>
                <CharString name="threefifths">
                    -21 callgsubr
70 107 242 102 -12 callsubr
102.5 119 -115 115 hintmask 01111101
152 459 rmoveto
hintmask 01111110
250 3 90 66 75 vvcurveto
50 -47 42 -121 21 vhcurveto
156 99 -9 95 rlineto
-317 -103 hlineto
183 2 rlineto
-4 vlineto
-149 -92 rlineto
-60 vlineto
126 -11 59 -18 -21 vvcurveto
-22 -52 -10 -177 -5 vhcurveto
-72 -277 -87 callsubr
                </CharString>
                <CharString name="threequarters">
                    -158 -20 callgsubr
348.5 100 70 107 242 102 hstemhm
-28 callsubr
-88.5 119 hintmask 11111000
152 459 rmoveto
hintmask 11110100
-64 callsubr
hintmask 11111000
436 -548 -97 callsubr
endchar
                </CharString>
                <CharString name="tilde">
                    632 15 callgsubr
-46 -20 hstemhm
76 476 hintmask 10110000
389 632 -77 callgsubr
hintmask 01010000
-89 callsubr
hintmask 10110000
-20 callsubr
endchar
                </CharString>
                <CharString name="tilde.cap">
                    632 15 callgsubr
-46 -20 hstemhm
76 476 hintmask 10110000
389 632 -77 callgsubr
hintmask 01010000
-89 callsubr
hintmask 10110000
-20 callsubr
endchar
                </CharString>
                <CharString name="trademark">
                    612 76 hstem
107 86 97 87 122 89 vstem
193 612 rmoveto
72 76 -239 hlineto
-3 -76 rlineto
84 -300 86 hlineto
232 70 12 callsubr
376 -88 hlineto
-9 callgsubr
endchar
                </CharString>
                <CharString name="two">
                    0 134 418 145 hstem
376 156 vstem
545 hmoveto
134 -277 vlineto
164 125 100 92 137 vvcurveto
116 -97 96 -324 -3 vhcurveto
-13 -145 rlineto
214 -6 64 -29 -72 vvcurveto
-90 -106 -91 -193 -141 vhcurveto
15 -123 rlineto
endchar
                </CharString>
                <CharString name="two.den">
                    -233 -50 callsubr
-233 rmoveto
-90 callgsubr
                </CharString>
                <CharString name="two.inf">
                    -167 -50 callsubr
-167 rmoveto
-90 callgsubr
                </CharString>
                <CharString name="two.num">
                    472 -50 callsubr
472 rmoveto
-90 callgsubr
                </CharString>
                <CharString name="two.small">
                    0 -50 callsubr
hmoveto
-90 callgsubr
                </CharString>
                <CharString name="two.sup">
                    361 -50 callsubr
361 rmoveto
-90 callgsubr
                </CharString>
                <CharString name="twofifths">
                    -21 callgsubr
83 103 239 108 -12 callsubr
83.5 125 -102 115 hintmask 11111101
490 472 rmoveto
1 callgsubr
hintmask 11111110
-98 callsubr
-69 -183 -87 callsubr
                </CharString>
                <CharString name="twothirds">
                    -246 107 242 102 84 100 83 103 239 108 hstemhm
354 125 -106 119 hintmask 11111100
490 472 rmoveto
-69 callgsubr
-69 -42 callsubr
80 -635 rmoveto
hintmask 11111010
-105 callsubr
endchar
                </CharString>
                <CharString name="u">
                    -76 callgsubr
-53 callgsubr
hintmask 01000111
409 -3 -88 callgsubr
                </CharString>
                <CharString name="uacute">
                    -76 callgsubr
-53 callgsubr
hintmask 00100111
169 694 -107 callgsubr
hintmask 01000111
240 -697 -88 callgsubr
                </CharString>
                <CharString name="ubreve">
                    -76 callgsubr
84 124 -53 callgsubr
hintmask 0010011110000000
320 630 -104 callsubr
hintmask 0100011110000000
89 -633 -100 callsubr
                </CharString>
                <CharString name="ucircumflex">
                    -76 callgsubr
154 -20 -53 callgsubr
hintmask 0010011110000000
436 627 -100 callgsubr
hintmask 0100011110000000
109 -732 -100 callsubr
                </CharString>
                <CharString name="udieresis">
                    -76 callgsubr
97 -24 callgsubr
74 157 -118.5 -42 callgsubr
-133.5 157 hintmask 0010011011000000
519 643 -103 callsubr
hintmask 0100011100100000
298 -646 rmoveto
hintmask 0010101100100000
146 7 rlineto
-7 127 -3 171 260 vvcurveto
-157 hlineto
hintmask 1000011100100000
-167 1 -144 2 -106 vhcurveto
-16 -26 -26 -10 -32 hhcurveto
-46 -30 25 91 hvcurveto
331 vlineto
hintmask 1001001100100000
-157 -9 rlineto
-379 vlineto
-137 58 -57 97 75 55 35 41 42 vhcurveto
endchar
                </CharString>
                <CharString name="ugrave">
                    -76 callgsubr
146 -20 -53 callgsubr
hintmask 0010011110000000
454 692 -101 callsubr
hintmask 0100011110000000
-3 -627 -100 callsubr
                </CharString>
                <CharString name="uhungarumlaut">
                    -76 callgsubr
-53 callgsubr
hintmask 00100111
123 679 -95 callgsubr
hintmask 01000111
50 -680 -88 callgsubr
                </CharString>
                <CharString name="umacron">
                    -76 callgsubr
111 134 -53 callgsubr
hintmask 0010011110000000
515 791 -66 callgsubr
hintmask 0100011110000000
-106 -660 -100 callsubr
                </CharString>
                <CharString name="underscore">
                    -183 127 hstem
40 544 vstem
584 -56 rmoveto
-544 -127 544 hlineto
endchar
                </CharString>
                <CharString name="underscore.alt">
                    -183 127 hstem
-4 633 vstem
629 -56 rmoveto
-633 -127 633 hlineto
endchar
                </CharString>
                <CharString name="uni00A0">
                    endchar
                </CharString>
                <CharString name="uogonek">
                    -254 122 116 135 -114 -21 41 -2 callgsubr
547 -20 25 -20 24 -20 hstemhm
74 157 50 150 -43 157 hintmask 1001000111000000
531 -254 -13 callsubr
24 30 30 94 37 vhcurveto
hintmask 1100001010100000
-7 127 -3 171 260 vvcurveto
-157 hlineto
-158 1 -136 2 -105 vhcurveto
-28 -26 -26 -16 -32 hhcurveto
-46 -30 25 91 hvcurveto
hintmask 1000100110100000
331 vlineto
hintmask 1010010010100000
-157 -9 rlineto
-379 vlineto
-137 58 -57 97 67 58 44 52 45 vhcurveto
hintmask 1000100110100000
8 -70 rlineto
hintmask 1000100111000000
-87 -50 -39 -47 -45 vvcurveto
hintmask 1001000111000000
-63 4 callgsubr
endchar
                </CharString>
                <CharString name="uring">
                    -76 callgsubr
74 246 -53 callgsubr
hintmask 0010011110000000
314 866 -82 callsubr
hintmask 0100011110000000
95 -869 -100 callsubr
                </CharString>
                <CharString name="v">
                    -4 161 405 -20 25 -20 hstemhm
35 557 hintmask 10110000
320 157 rmoveto
-9 hlineto
-42 135 -40 142 -37 133 -157 -11 rcurveline
53 -184 64 -191 66 -185 rrcurveto
187 hlineto
hintmask 11010000
66 185 68 195 53 186 rrcurveto
-159 hlineto
hintmask 10110000
-34 -132 -38 -139 -41 -134 rrcurveto
endchar
                </CharString>
                <CharString name="w">
                    -49 callgsubr
21 callgsubr
221 146 hintmask 00111100
382 hmoveto
-61 callsubr
hintmask 10011100
-67 callgsubr
hintmask 01011100
-91 callsubr
                </CharString>
                <CharString name="wacute">
                    -49 callgsubr
21 callgsubr
221 146 hintmask 00111100
166 690 -107 callgsubr
216 -690 -35 callsubr
hintmask 10011100
-67 callgsubr
hintmask 01011100
-91 callsubr
                </CharString>
                <CharString name="wcircumflex">
                    -49 callgsubr
154 12 callgsubr
433 623 -100 callgsubr
85 -725 -35 callsubr
hintmask 10011110
-67 callgsubr
hintmask 01011110
-91 callsubr
                </CharString>
                <CharString name="wdieresis">
                    -49 callgsubr
97 161 21 callgsubr
-97.5 -42 callgsubr
-90.5 146 hintmask 0011110100000000
516 639 -39 callgsubr
-160 hlineto
-3 -161 rlineto
hintmask 0011101010000000
-90 hmoveto
3 161 rlineto
-160 hlineto
-3 -161 rlineto
274 -639 -35 callsubr
hintmask 1001110010000000
-67 callgsubr
hintmask 0101110100000000
-91 callsubr
                </CharString>
                <CharString name="wgrave">
                    -49 callgsubr
146 12 callgsubr
451 688 -101 callsubr
-27 -620 -35 callsubr
hintmask 10011110
-67 callgsubr
hintmask 01011110
-91 callsubr
                </CharString>
                <CharString name="x">
                    19 -21 23 -21 24 -21 555 7 -3 -20 23 -20 hstemhm
29 567 hintmask 10000110
417 -2 rmoveto
hintmask 00101010
179 5 -181 279 179 280 rlineto
-166 hlineto
-108 -188 rlineto
hintmask 00100110
-113 191 rlineto
hintmask 01010010
-178 -7 180 -277 -179 -281 rlineto
167 hlineto
108 186 rlineto
endchar
                </CharString>
                <CharString name="y">
                    -26 callsubr
hstemhm
33 556 hintmask 10110000
86 -196 -38 callsubr
hintmask 11010000
-68 callsubr
hintmask 10110000
-84 callsubr
                </CharString>
                <CharString name="yacute">
                    -26 callsubr
hstemhm
33 556 hintmask 10110000
173 696 -107 callgsubr
-87 -892 -38 callsubr
hintmask 11010000
-68 callsubr
hintmask 10110000
-84 callsubr
                </CharString>
                <CharString name="ycircumflex">
                    -26 callsubr
155 -20 hstemhm
33 556 hintmask 10111000
439 629 -100 callgsubr
-217 -927 -38 callsubr
hintmask 11011000
-68 callsubr
hintmask 10111000
-84 callsubr
                </CharString>
                <CharString name="ydieresis">
                    -26 callsubr
98 -24 callgsubr
116.5 -42 callgsubr
hintmask 10111100
523 645 -103 callsubr
-29 -841 -38 callsubr
hintmask 11011100
-68 callsubr
hintmask 10111100
-84 callsubr
                </CharString>
                <CharString name="yen">
                    21 -21 138 110 62 110 265 7 -4 -20 24 -20 hstemhm
233 153 hintmask 11100110
555 138 rmoveto
1 110 rlineto
-168 hlineto
28 62 rlineto
140 110 -89 hlineto
hintmask 11101010
122 268 rlineto
-158 hlineto
-115 -306 rlineto
hintmask 11100110
-121 310 rlineto
hintmask 11110010
-166 -7 123 -265 rlineto
-88 -110 139 hlineto
29 -62 rlineto
-168 hlineto
-1 -110 rlineto
171 hlineto
-2 -138 rlineto
155 hlineto
-2 138 rlineto
endchar
                </CharString>
                <CharString name="ygrave">
                    -26 callsubr
147 -20 hstemhm
33 556 hintmask 10111000
458 694 -101 callsubr
-330 -822 -38 callsubr
hintmask 11011000
-68 callsubr
hintmask 10111000
-84 callsubr
                </CharString>
                <CharString name="z">
                    -5 callsubr
hstem
74 482 vstem
544 hmoveto
-74 callgsubr
                </CharString>
                <CharString name="zacute">
                    -5 callsubr
hstem
74 482 vstem
160 690 -107 callgsubr
384 -690 rmoveto
-74 callgsubr
                </CharString>
                <CharString name="zcaron">
                    -5 callsubr
223 -20 hstem
74 482 vstem
321 615 -101 callgsubr
234 -615 rmoveto
-74 callgsubr
                </CharString>
                <CharString name="zdotaccent">
                    -5 callsubr
77 161 hstem
231 -52 callgsubr
vstem
393 639 -79 callsubr
315 -639 rmoveto
-74 callgsubr
                </CharString>
                <CharString name="zero">
                    -52 callsubr
-101 376 rmoveto
140 34 77 74 52 33 -46 -76 16 vhcurveto
-209 -109 rlineto
5 0 4 5 vvcurveto
112 -249 rmoveto
-51 -33 45 73 -16 hvcurveto
208 108 rlineto
-2 0 -3 -3 vvcurveto
-140 -33 -78 -75 vhcurveto
endchar
                </CharString>
                <CharString name="zero.alt">
                    -52 callsubr
7 593 rmoveto
77 35 -100 -148 -140 -33 -78 -75 -76 -36 100 149 140 34 77 74 hvcurveto
endchar
                </CharString>
                <CharString name="zero.den">
                    -244 -58 callsubr
-244 -94 callsubr
                </CharString>
                <CharString name="zero.inf">
                    -178 -58 callsubr
-178 -94 callsubr
                </CharString>
                <CharString name="zero.num">
                    461 -58 callsubr
461 -94 callsubr
                </CharString>
                <CharString name="zero.small">
                    -11 -58 callsubr
-11 -94 callsubr
                </CharString>
                <CharString name="zero.sup">
                    350 -58 callsubr
350 -94 callsubr
                </CharString>
                <CharString name="less_exclam_hyphen_hyphen.liga">
                    0 169 100 134 hstem
-1787 141 656 193 vstem
-834 284 rmoveto
55 469 rlineto
-202 hlineto
41 -469 rlineto
-477 410 rmoveto
-370 -298 rlineto
-130 vlineto
364 -295 88 113 -239 185 rlineto
497 hlineto
14 134 rlineto
-501 hlineto
230 179 rlineto
620 -313 rmoveto
1197 hlineto
14 134 rlineto
-1211 hlineto
-85 -403 rmoveto
4 169 rlineto
-193 hlineto
-4 -169 rlineto
endchar
                </CharString>
                <CharString name="equal_equal_equal.liga">
                    273 132 110 132 hstem
-1091 1636 vstem
545 647 rmoveto
-1636 -132 1636 hlineto
-110 vmoveto
-1636 -132 1636 hlineto
-110 vmoveto
-1636 -132 1636 hlineto
endchar
                </CharString>
                <CharString name="equal_equal_greater.liga">
                    152 132 110 132 hstemhm
-1171 1712 -141 141 hintmask 11100000
89 579 rmoveto
69 -53 rlineto
-1329 -132 1500 hlineto
hintmask 11010000
71 -55 rlineto
-14 vlineto
-53 -41 rlineto
hintmask 11100000
-1518 -132 1349 hlineto
-90 -70 83 -112 370 298 rlineto
129 vlineto
-364 296 rlineto
endchar
                </CharString>
                <CharString name="equal_less_less.liga">
                    152 132 110 132 hstemhm
-1171 1712 -872 141 278 141 hintmask 11010000
122 582 rmoveto
-83 112 -209 -168 rlineto
hintmask 11100000
-1001 -132 hlineto
hintmask 11010000
840 -110 hlineto
hintmask 11100000
-840 -132 hlineto
hintmask 11010000
981 hlineto
223 -181 88 113 -311 241 rlineto
14 vlineto
hintmask 11100000
731 243 rmoveto
-83 112 rlineto
hintmask 11011000
-370 -298 rlineto
-130 vlineto
364 -295 rlineto
hintmask 11100000
88 113 rlineto
hintmask 11011000
-311 241 rlineto
14 vlineto
endchar
                </CharString>
                <CharString name="exclam_equal_equal.liga">
                    273 132 110 132 hstem
-1091 1636 vstem
545 647 rmoveto
-563 hlineto
63 127 -135 64 -95 -191 rlineto
-906 -132 841 hlineto
-55 -110 rlineto
-786 -132 720 hlineto
-54 -110 rlineto
-666 -132 600 hlineto
-100 -202 136 -64 132 266 rlineto
868 132 -803 hlineto
55 110 rlineto
748 132 -683 hlineto
55 110 rlineto
628 hlineto
endchar
                </CharString>
                <CharString name="greater_equal_greater.liga">
                    152 132 110 132 hstemhm
-1162 1703 -1391 141 1109 141 hintmask 11010000
89 579 rmoveto
69 -53 rlineto
-1026 hlineto
-205 167 rlineto
hintmask 11100000
-88 -114 rlineto
hintmask 11010000
311 -240 rlineto
-14 vlineto
hintmask 11100000
-312 -243 83 -112 226 182 rlineto
1031 hlineto
-90 -70 83 -112 370 298 rlineto
129 vlineto
-364 296 rlineto
170 -409 rmoveto
hintmask 11010000
-1056 110 1038 hlineto
hintmask 11011000
71 -55 rlineto
-14 vlineto
endchar
                </CharString>
                <CharString name="greater_greater_equal.liga">
                    152 132 110 132 hstemhm
-1162 1707 -1395 141 279 141 hintmask 11011000
-1073 693 rmoveto
hintmask 11100000
-88 -114 rlineto
hintmask 11011000
311 -240 rlineto
-14 vlineto
hintmask 11100000
-312 -243 83 -112 rlineto
hintmask 11011000
370 298 rlineto
129 vlineto
hintmask 11100000
1254 129 rmoveto
-993 hlineto
-205 167 -88 -114 rlineto
hintmask 11011000
311 -240 rlineto
-14 vlineto
-312 -243 83 -112 226 182 rlineto
hintmask 11100000
978 132 hlineto
hintmask 11011000
-834 110 hlineto
hintmask 11100000
834 hlineto
endchar
                </CharString>
                <CharString name="hyphen_hyphen_greater.liga">
                    269 134 hstem
-1114 1655 vstem
89 579 rmoveto
228 -176 rlineto
-1431 -134 1442 hlineto
-240 -187 83 -112 370 298 rlineto
129 vlineto
-364 296 rlineto
endchar
                </CharString>
                <CharString name="less_equal_equal.liga">
                    152 132 110 132 hstemhm
-1162 141 -141 1707 hintmask 11010000
545 394 rmoveto
132 -1326 vlineto
72 56 -83 112 rlineto
hintmask 11100000
-370 -298 rlineto
-130 vlineto
364 -295 88 113 -88 68 rlineto
hintmask 11010000
1343 132 -1513 hlineto
hintmask 11100000
-53 41 rlineto
14 vlineto
71 55 rlineto
endchar
                </CharString>
                <CharString name="less_equal_greater.liga">
                    152 132 110 132 hstemhm
-1162 141 -141 1703 -141 141 hintmask 11100000
89 579 rmoveto
69 -53 rlineto
-939 hlineto
72 56 -83 112 -370 -298 rlineto
-130 vlineto
364 -295 88 113 -88 68 rlineto
976 hlineto
-90 -70 83 -112 rlineto
hintmask 11010000
370 298 rlineto
129 vlineto
-364 296 rlineto
168 -411 rmoveto
2 -1313 vlineto
hintmask 11100000
-53 41 rlineto
14 vlineto
71 55 rlineto
1279 hlineto
hintmask 11101000
71 -55 rlineto
-14 vlineto
endchar
                </CharString>
                <CharString name="less_equal_less.liga">
                    152 132 110 132 hstemhm
-1162 141 -141 1703 -453 141 hintmask 11010000
541 582 rmoveto
-83 112 -209 -168 rlineto
-1030 hlineto
72 56 -83 112 rlineto
hintmask 11100000
-370 -298 rlineto
-130 vlineto
364 -295 88 113 -88 68 rlineto
hintmask 11101000
1027 hlineto
223 -181 rlineto
hintmask 11010000
88 113 rlineto
hintmask 11101000
-311 241 rlineto
14 vlineto
-1250 hmoveto
71 55 rlineto
1038 -110 -1056 hlineto
-53 41 rlineto
endchar
                </CharString>
                <CharString name="less_hyphen_greater.liga">
                    269 134 hstemhm
-1162 141 -141 1703 hintmask 11000000
177 693 rmoveto
-88 -114 228 -176 rlineto
-1256 hlineto
230 179 -83 112 -370 -298 rlineto
-130 vlineto
364 -295 88 113 -239 185 rlineto
1277 hlineto
-240 -187 83 -112 rlineto
hintmask 10100000
370 298 rlineto
129 vlineto
endchar
                </CharString>
                <CharString name="less_hyphen_hyphen.liga">
                    269 134 hstemhm
-1162 141 -141 1659 hintmask 11000000
-939 403 rmoveto
230 179 -83 112 -370 -298 rlineto
-130 vlineto
364 -295 88 113 -239 185 rlineto
1432 hlineto
hintmask 10100000
14 134 rlineto
endchar
                </CharString>
                <CharString name="ampersand_ampersand.liga">
                    -16 127 451 142 hstem
-449 149 267 131 23 160 166 131 vstem
491 224 rmoveto
32 59 33 78 22 75 -131 16 rcurveline
-8 -39 -13 -48 -14 -44 rrcurveto
-88 104 -43 47 33 vvcurveto
44 30 18 133 -5 vhcurveto
-10 142 rlineto
-238 4 -75 -102 -102 vvcurveto
-43 20 -41 36 -51 vhcurveto
-79 -50 -50 -54 -13 -71 -24 30 rcurveline
32 59 33 78 22 75 -131 16 rcurveline
-8 -39 -13 -48 -14 -44 rrcurveto
-88 104 -43 47 33 vvcurveto
44 30 18 133 -5 vhcurveto
-10 142 rlineto
-238 4 -75 -102 -102 vvcurveto
-43 20 -41 36 -51 vhcurveto
-94 -59 -52 -65 -93 vvcurveto
-96 59 -72 121 69 68 31 68 52 vhcurveto
-68 62 108 -31 121 hhcurveto
69 68 31 68 52 hvcurveto
23 -30 24 -33 25 -36 130 96 rcurveline
-41 55 -37 47 -33 42 rrcurveto
-724 -113 rmoveto
-45 -22 33 42 39 18 36 37 32 hvcurveto
28 -35 33 -40 38 -48 rrcurveto
-40 -27 -27 -19 -33 hhcurveto
480 hmoveto
-45 -22 33 42 39 18 36 37 32 hvcurveto
28 -35 33 -40 38 -48 rrcurveto
-40 -27 -27 -19 -33 hhcurveto
endchar
                </CharString>
                <CharString name="bar_bar.liga">
                    -308 149 318 149 vstem
-308 794 rmoveto
-998 149 1010 vlineto
318 -12 rmoveto
-998 149 1010 vlineto
endchar
                </CharString>
                <CharString name="bar_greater.liga">
                    -304 652 vstem
-304 794 rmoveto
-998 149 vlineto
503 472 rlineto
129 vlineto
-503 409 rlineto
-820 vmoveto
637 vlineto
362 -284 rlineto
-14 vlineto
endchar
                </CharString>
                <CharString name="colon_equal.liga">
                    126 183 60 183 hstem
-450 907 vstem
-243 369 rmoveto
3 183 rlineto
-207 hlineto
-3 -183 rlineto
876 157 rmoveto
-566 -132 566 hlineto
-669 -268 rmoveto
3 183 rlineto
-207 hlineto
-3 -183 rlineto
876 158 rmoveto
-566 -132 566 hlineto
endchar
                </CharString>
                <CharString name="equal_equal.liga">
                    152 132 110 132 hstem
-546 1091 vstem
545 526 rmoveto
-1091 -132 1091 hlineto
-110 vmoveto
-1091 -132 1091 hlineto
endchar
                </CharString>
                <CharString name="equal_greater.liga">
                    152 132 110 132 hstemhm
-546 1087 -141 141 hintmask 11100000
89 579 rmoveto
69 -53 rlineto
-704 -132 875 hlineto
hintmask 11010000
71 -55 rlineto
-14 vlineto
-53 -41 rlineto
hintmask 11100000
-893 -132 724 hlineto
-90 -70 83 -112 370 298 rlineto
129 vlineto
-364 296 rlineto
endchar
                </CharString>
                <CharString name="exclam_equal.liga">
                    -235 1073 -686 132 110 132 hstemhm
-546 1091 -864 636 hintmask 01110000
545 526 rmoveto
-351 hlineto
hintmask 01101000
123 248 rlineto
hintmask 10001000
-135 64 rlineto
hintmask 01101000
-155 -312 rlineto
-573 -132 508 hlineto
-55 -110 rlineto
-453 -132 387 hlineto
-160 -323 rlineto
hintmask 10001000
136 -64 rlineto
hintmask 01101000
192 387 rlineto
536 132 -471 hlineto
55 110 rlineto
416 hlineto
endchar
                </CharString>
                <CharString name="greater_equal.liga">
                    -397 805 vstem
-355 -45 rmoveto
756 313 rlineto
129 vlineto
-763 311 -47 -129 589 -240 rlineto
-14 vlineto
-582 -243 rlineto
803 75 rmoveto
-803 -335 47 -127 756 313 rlineto
endchar
                </CharString>
                <CharString name="hyphen_greater.liga">
                    269 134 hstem
-489 1030 vstem
89 579 rmoveto
228 -176 rlineto
-806 -134 817 hlineto
-240 -187 83 -112 370 298 rlineto
129 vlineto
-364 296 rlineto
endchar
                </CharString>
                <CharString name="hyphen_hyphen.liga">
                    269 134 hstem
-415 361 108 361 vstem
-54 403 rmoveto
-361 -134 347 hlineto
483 134 rmoveto
-361 -134 347 hlineto
endchar
                </CharString>
                <CharString name="less_bar.liga">
                    -348 646 vstem
-348 396 rmoveto
-130 vlineto
497 -468 rlineto
149 1010 hlineto
-149 -12 rlineto
-356 -457 rmoveto
356 280 rlineto
-626 vlineto
-356 332 rlineto
endchar
                </CharString>
                <CharString name="less_equal.liga">
                    29 -21 700 -20 hstemhm
-379 221 hintmask 00000000
hintmask 11100000
-158 325 rmoveto
14 vlineto
589 240 -47 129 -763 -311 rlineto
-129 vlineto
756 -313 47 127 rlineto
-47 -387 rmoveto
47 127 -803 335 rlineto
-149 vlineto
endchar
                </CharString>
                <CharString name="less_hyphen.liga">
                    269 134 hstemhm
-537 141 -141 1034 hintmask 11000000
-314 403 rmoveto
230 179 -83 112 -370 -298 rlineto
-130 vlineto
364 -295 88 113 -239 185 rlineto
807 hlineto
hintmask 10100000
14 134 rlineto
endchar
                </CharString>
                <CharString name="less_slash.liga">
                    -235 1073 hstem
-537 141 152 636 vstem
-108 102 rmoveto
-288 223 rlineto
14 vlineto
312 243 -83 112 -370 -298 rlineto
-130 vlineto
364 -295 -71 -142 136 -64 500 1009 -135 64 rlineto
endchar
                </CharString>
                <CharString name="plus_plus.liga">
                    270 132 hstem
-317 141 352 141 vstem
317 588 rmoveto
-141 -186 -352 186 -141 -186 -176 -132 176 -188 141 188 352 -188 141 188 176 132 -176 hlineto
endchar
                </CharString>
                <CharString name="question_question.liga">
                    0 167 hstem
-386 191 17 171 102 191 16 171 vstem
-464 607 rmoveto
246 -19 40 -24 -33 vvcurveto
-54 -155 -42 -7 -163 vhcurveto
113 -3 rlineto
15 141 205 36 127 vvcurveto
92 -96 75 -346 15 vhcurveto
465 -148 rmoveto
246 -19 40 -24 -33 vvcurveto
-54 -155 -42 -7 -163 vhcurveto
113 -3 rlineto
15 141 205 36 127 vvcurveto
92 -96 75 -346 15 vhcurveto
-228 -755 rmoveto
4 167 rlineto
-190 hlineto
-5 -167 rlineto
671 hmoveto
4 167 rlineto
-190 hlineto
-5 -167 rlineto
endchar
                </CharString>
                <CharString name="slash_greater.liga">
                    -235 1073 hstem
-418 636 182 141 vstem
218 774 rmoveto
-135 64 -501 -1009 136 -64 394 796 288 -222 rlineto
-14 vlineto
-312 -243 83 -112 370 298 rlineto
129 vlineto
-363 296 rlineto
endchar
                </CharString>
                <CharString name="underscore_underscore.liga">
                    -183 127 hstem
-629 1258 vstem
629 -56 rmoveto
-1258 -127 1258 hlineto
endchar
                </CharString>
                <CharString name="ampersand.spacer">
                    endchar
                </CharString>
                <CharString name="bar.spacer">
                    endchar
                </CharString>
                <CharString name="colon.spacer">
                    endchar
                </CharString>
                <CharString name="equal.spacer">
                    endchar
                </CharString>
                <CharString name="exclam.spacer">
                    endchar
                </CharString>
                <CharString name="greater.spacer">
                    endchar
                </CharString>
                <CharString name="hyphen.spacer">
                    endchar
                </CharString>
                <CharString name="less.spacer">
                    endchar
                </CharString>
                <CharString name="LIG">
                    endchar
                </CharString>
                <CharString name="percent.alt">
                    -143 91 -90 887 -663 90 255 91 134 90 hstemhm
32 95 -73 526 -384 92 46 92 72 90 hintmask 0100010101000000
468 745 rmoveto
hintmask 0100001000000000
-414 -834 113 -53 413 834 rlineto
hintmask 0001101000000000
-424 -265 rmoveto
hintmask 0001110101000000
79 53 68 95 93 -44 59 -79 -79 -53 -68 -95 -94 44 -58 79 hvcurveto
3 225 rmoveto
26 13 -27 -45 -39 -11 -23 -25 -26 -13 26 45 39 11 24 25 hvcurveto
hintmask 0100010101000000
297 -795 rmoveto
79 53 68 95 hvcurveto
hintmask 0011110101000000
93 -44 59 -79 vhcurveto
hintmask 0011110111000000
-79 -53 -68 -95 hvcurveto
hintmask 0100010111000000
-94 44 -58 79 vhcurveto
hintmask 0011110111000000
3 225 rmoveto
26 13 -27 -45 hvcurveto
hintmask 1001110111000000
-39 -11 -23 -25 -26 -13 26 45 vhcurveto
hintmask 0011110111000000
39 11 24 25 vhcurveto
endchar
                </CharString>
                <CharString name="plus.spacer">
                    endchar
                </CharString>
                <CharString name="question.spacer">
                    endchar
                </CharString>
                <CharString name="slash.spacer">
                    endchar
                </CharString>
                <CharString name="underscore.spacer">
                    endchar
                </CharString>
                <CharString name="uniE0A0">
                    -136 63 193 127 320 -20 20 64 64 64 hstemhm
0 64 0 128 0 64 128 64 0 128 0 64 hintmask 0000000000000000
hintmask 1101101010100000
512 631 rmoveto
-71 -57 -57 -71 hvcurveto
hintmask 1110101001000000
-47 26 -41 38 -22 vhcurveto
-18 vlineto
-64 -64 -64 -64 -53 -42 -11 -18 -33 vhcurveto
303 vlineto
hintmask 1110110110100000
38 22 26 41 47 vvcurveto
71 -57 57 -71 -71 -57 -57 -71 vhcurveto
hintmask 1110101010100000
-47 26 -41 38 -22 vhcurveto
-419 vlineto
hintmask 1110110101000000
-38 -22 -26 -41 -47 vvcurveto
-71 57 -57 71 71 57 57 71 34 -13 30 -21 23 vhcurveto
23 19 30 18 49 hhcurveto
128 128 128 128 hvcurveto
18 vlineto
hintmask 1110101010100000
38 22 26 41 47 vvcurveto
hintmask 1101101010100000
71 -57 57 -71 vhcurveto
hintmask 1110110110100000
-384 63 rmoveto
35 29 -29 -35 -35 -29 -29 -35 -35 -29 29 35 35 29 29 35 hvcurveto
384 -256 rmoveto
hintmask 1101101010100000
-35 -29 29 35 35 29 29 35 35 29 -29 -35 hvcurveto
hintmask 1110110110100000
-35 -29 -29 -35 vhcurveto
-384 -512 rmoveto
-35 -29 29 35 35 29 29 35 35 29 -29 -35 -35 -29 -29 -35 hvcurveto
endchar
                </CharString>
                <CharString name="uniE0B0">
                    -205 1209 hstem
-20 692 vstem
-18 1004 rmoveto
-2 -1209 692 570 rlineto
endchar
                </CharString>
                <CharString name="uniE0B2">
                    -205 1209 hstem
-20 692 vstem
672 -205 rmoveto
-2 1209 -690 -639 rlineto
endchar
                </CharString>
            <CharString index="0">
                rmoveto
37 -68 86 23 149 64 81 60 rlinecurve
-111 117 -66 -68 -112 -88 -64 -40 rlinecurve
return
            </CharString>
            <CharString index="1">
                rmoveto
60 -56 53 -168 18 vhcurveto
5 57 rlineto
197 hlineto
10 103 rlineto
-306 hlineto
-18 -240 rlineto
155 -13 66 -15 -27 vvcurveto
-29 -60 -9 -172 -8 vhcurveto
6 -110 rlineto
235 11 106 64 85 vvcurveto
return
            </CharString>
            <CharString index="2">
                rmoveto
154 129 125 189 185 -96 98 -141 -156 -127 -131 -183 -184 96 -99 141 hvcurveto
29 127 rmoveto
-68 -38 60 125 109 36 50 59 66 39 -60 -124 -110 -35 -50 -59 hvcurveto
endchar
            </CharString>
            <CharString index="3">
                rmoveto
-46 -28 25 41 48 26 28 143 -15 hvcurveto
1 -37 0 -32 2 -28 rrcurveto
-19 -32 -36 -11 -30 hhcurveto
hintmask 01011111
116 -108 rmoveto
hintmask 00111111
145 7 rlineto
-5 76 -7 97 102 vvcurveto
223 -81 72 -353 1 vhcurveto
-14 -132 231 -5 54 -20 8 -86 rlinecurve
-227 4 -97 -93 -110 vvcurveto
hintmask 10011111
-91 67 -55 99 75 54 33 40 40 vhcurveto
endchar
            </CharString>
            <CharString index="4">
                rmoveto
hintmask 00111100
166 12 -55 228 -55 226 -65 228 rlinecurve
-87 callgsubr
hintmask 10011100
12 -60 12 -59 11 -58 rrcurveto
hintmask 00111100
-96 callsubr
            </CharString>
            <CharString index="5">
                rmoveto
153 96 105 164 hvcurveto
437 -163 -468 vlineto
-72 -23 -26 -53 -52 -33 35 82 vhcurveto
449 -163 -452 vlineto
-162 89 -92 149 vhcurveto
endchar
            </CharString>
            <CharString index="6">
                rmoveto
208 170 -74 73 -128 -101 -134 102 -96 -92 213 -152 rlineto
return
            </CharString>
            <CharString index="7">
                rmoveto
96 91 -214 152 rlineto
-11 hlineto
-207 -170 73 -72 127 101 rlineto
return
            </CharString>
            <CharString index="8">
                10 101 rlineto
-114 353 hlineto
-119 -10 rlineto
-65 vlineto
-117 -12 3 -89 rlineto
114 -177 -124 -101 hlineto
return
            </CharString>
            <CharString index="9">
                330 17 75 139 215 vvcurveto
119 -1 176 -2 80 vhcurveto
18 -58 -60 10 -57 hhcurveto
-173 -137 -115 -176 -140 88 -88 114 53 42 17 23 34 hvcurveto
-3 -126 -27 -7 -232 -21 rrcurveto
195 235 rmoveto
-60 -49 44 100 82 36 40 61 26 26 -4 -9 27 hvcurveto
-79 0 -102 -61 vvcurveto
-7 -22 -23 -4 -22 hhcurveto
endchar
            </CharString>
            <CharString index="10">
                rmoveto
196 54 93 101 128 vvcurveto
121 -78 64 -112 -104 -87 -64 -93 -126 150 -34 107 70 vhcurveto
-15 -53 -50 -27 -139 -40 rrcurveto
63 216 rmoveto
37 25 20 39 45 37 -28 -68 1 vhcurveto
-86 -31 -61 19 51 vvcurveto
endchar
            </CharString>
            <CharString index="11">
                -64 -228 -56 -231 -54 -229 rrcurveto
163 hlineto
12 56 11 58 12 57 rrcurveto
175 hlineto
return
            </CharString>
            <CharString index="12">
                rmoveto
74 -46 65 57 75 82 45 66 rlinecurve
-146 67 -25 -65 -47 -98 -41 -63 rlinecurve
236 -2 rmoveto
74 -45 68 57 73 80 46 66 rlinecurve
-153 59 -25 -69 -42 -84 -41 -64 rlinecurve
return
            </CharString>
            <CharString index="13">
                57 -252 rmoveto
-47 -22 23 27 23 17 19 26 12 hvcurveto
49 -23 42 -19 -25 vvcurveto
-20 -25 -17 -40 vhcurveto
endchar
            </CharString>
            <CharString index="14">
                -286 152 235 118 -235 150 278 134 -441 -688 437 hlineto
endchar
            </CharString>
            <CharString index="15">
                rmoveto
90 -1 103 141 vvcurveto
-148 hlineto
2 -68 3 -94 3 -66 rrcurveto
-138 7 -53 77 151 vvcurveto
130 34 84 267 -21 vhcurveto
-10 155 rlineto
-348 -7 -109 -163 -204 vvcurveto
-254 169 -134 329 73 vhcurveto
return
            </CharString>
            <CharString index="16">
                rmoveto
-54 callsubr
146 -438 -146 -125 452 hlineto
11 125 rlineto
-153 hlineto
endchar
            </CharString>
            <CharString index="17">
                -69 callgsubr
endchar
            </CharString>
            <CharString index="18">
                rmoveto
27 9 -38 -74 1 hvcurveto
-22 -31 0 -1 -28 hvcurveto
87 1 8 26 35 hhcurveto
-199 -334 rmoveto
-30 -14 24 41 41 9 33 61 -6 hvcurveto
-1 vlineto
-44 2 -40 10 -35 vhcurveto
-8 -11 -13 -5 -14 hhcurveto
hintmask 01101111
362 -118 rmoveto
11 128 -194 3 -23 22 -1 94 rlinecurve
223 5 rlineto
206 15 -56 122 -119 hhcurveto
-58 -45 -25 -49 -31 hvcurveto
hintmask 01110111
-38 49 -70 15 -132 6 -10 -130 rcurveline
162 -5 26 -16 4 -84 rrcurveto
-160 -3 -53 -70 -122 vvcurveto
-91 46 -56 81 57 46 31 37 30 vhcurveto
hintmask 01101111
44 -47 84 -25 161 5 rrcurveto
endchar
            </CharString>
            <CharString index="19">
                rmoveto
hintmask 00101011
146 7 rlineto
-7 127 -3 171 260 vvcurveto
-157 hlineto
hintmask 10000111
-167 1 -144 2 -106 vhcurveto
-16 -26 -26 -10 -32 hhcurveto
-46 -30 25 91 hvcurveto
331 vlineto
hintmask 10010011
-157 -9 rlineto
-379 vlineto
-137 58 -57 97 75 55 35 41 42 vhcurveto
endchar
            </CharString>
            <CharString index="20">
                -225 hlineto
hintmask 01011100
-96 callgsubr
return
            </CharString>
            <CharString index="21">
                rmoveto
153 28 65 68 25 20 -10 -22 17 vhcurveto
-151 -293 rlineto
-5 30 -2 36 41 vvcurveto
107 -242 rmoveto
-25 -21 11 21 -17 hvcurveto
151 294 rlineto
5 -31 2 -36 -41 vvcurveto
-153 -27 -65 -68 vhcurveto
-25 -132 rmoveto
175 111 135 252 hvcurveto
hintmask 10000111
107 -21 84 -41 57 vhcurveto
39 77 rlineto
hintmask 10001011
-98 51 -28 -58 rlineto
hintmask 01010011
13 -29 -33 6 -37 hhcurveto
-174 -111 -134 -252 -109 22 -85 42 -57 hvcurveto
-41 -75 rlineto
hintmask 00110011
99 -51 29 57 rlineto
hintmask 10010011
-12 28 32 -6 36 hhcurveto
endchar
            </CharString>
            <CharString index="22">
                rmoveto
47 118 65 114 79 112 rrcurveto
103 -354 vlineto
-10 -105 rlineto
236 hlineto
2 -5 -81 -108 -62 -105 -51 -112 rlinecurve
return
            </CharString>
            <CharString index="23">
                rmoveto
-144 vlineto
345 -9 119 117 113 vvcurveto
hintmask 11011000
163 -298 45 86 vvcurveto
42 47 17 207 -14 vhcurveto
hintmask 10111000
-9 144 rlineto
-289 14 -127 -115 -109 -158 298 -36 -98 vvcurveto
-49 -76 -23 -217 14 vhcurveto
endchar
            </CharString>
            <CharString index="24">
                132 688 -150 hlineto
7 -383 rlineto
-5 hlineto
-190 383 rlineto
-143 -688 150 hlineto
-6 383 rlineto
5 hlineto
return
            </CharString>
            <CharString index="25">
                -239 -13 -72 60 176 vvcurveto
142 38 59 266 -13 vhcurveto
-9 155 rlineto
-346 -2 -119 -168 -194 vvcurveto
return
            </CharString>
            <CharString index="26">
                rmoveto
hintmask 00110111
176 20 -160 298 rlineto
63 45 44 57 84 vvcurveto
144 -106 91 -365 -41 vhcurveto
hintmask 01011011
-688 161 222 vlineto
76 2 rlineto
-76 340 rmoveto
99 11 52 -37 -81 vvcurveto
-50 -24 -41 -38 -29 vhcurveto
-89 -2 rlineto
endchar
            </CharString>
            <CharString index="27">
                -14 118 -87 -21 28 -21 232 96 111 132 return
            </CharString>
            <CharString index="28">
                -9 133 -103 -21 292 109 163 -34 callsubr
hintmask 10101110
3 callsubr
-287 -61 -109 61 vlineto
hintmask 01101110
-292 vlineto
hintmask 10101110
356 -47 145 138 265 vvcurveto
-341 -228 rmoveto
164 91 vlineto
7 109 rlineto
-98 hlineto
hintmask 10110110
163 vlineto
141 14 34 -83 -160 vvcurveto
hintmask 10101110
-165 -31 -62 -144 20 vhcurveto
endchar
            </CharString>
            <CharString index="29">
                rmoveto
hintmask 10001000
268 85 87 84 -1 83 rrcurveto
hintmask 10100000
-1 87 -108 43 41 vvcurveto
27 36 13 115 14 vhcurveto
6 109 rlineto
hintmask 11000000
-98 10 -50 25 35 vvcurveto
hintmask 10010000
47 99 48 89 vvcurveto
86 -83 51 -266 85 vhcurveto
-52 -124 rlineto
163 -47 80 -38 -51 vvcurveto
hintmask 11000000
-54 -92 -44 -71 vvcurveto
-44 34 -44 91 -25 vhcurveto
hintmask 10100000
-89 -30 -34 -46 -42 vvcurveto
hintmask 10001000
-63 97 -52 -45 vvcurveto
-39 -80 -32 -172 -45 vhcurveto
endchar
            </CharString>
            <CharString index="30">
                rmoveto
64 59 70 89 40 hvcurveto
-79 38 rlineto
-55 -30 -22 -17 -14 hhcurveto
return
            </CharString>
            <CharString index="31">
                -16 135 -101 -21 28 -21 553 -20 25 -20 24 -20 return
            </CharString>
            <CharString index="32">
                rmoveto
17 129 rlineto
-154 3 -53 16 79 vvcurveto
224 196 119 -196 161 vlineto
-156 -15 rlineto
-146 -100 vlineto
-13 -119 rlineto
113 -249 hlineto
-150 83 -58 263 6 vhcurveto
return
            </CharString>
            <CharString index="33">
                12 140 -298 -6 286 297 rlineto
131 -458 vlineto
-12 -139 290 4 -288 -295 rlineto
-132 vlineto
endchar
            </CharString>
            <CharString index="34">
                -97 -14 -74 -47 -48 -60 -11 98 rcurveline
-249 hlineto
-12 -7 callsubr
-9 2 -88 1 -101 1 -134 rlinecurve
-124 -118 hlineto
return
            </CharString>
            <CharString index="35">
                rmoveto
-46 -28 25 41 48 26 28 143 -15 hvcurveto
1 -37 0 -32 2 -28 rrcurveto
-19 -32 -36 -11 -30 hhcurveto
hintmask 01011110
116 -108 rmoveto
hintmask 00111110
145 7 rlineto
-5 76 -7 97 102 vvcurveto
223 -81 72 -353 1 vhcurveto
-14 -132 231 -5 54 -20 8 -86 rlinecurve
-227 4 -97 -93 -110 vvcurveto
hintmask 10011110
-91 67 -55 99 75 54 33 40 40 vhcurveto
endchar
            </CharString>
            <CharString index="36">
                rmoveto
126 72 63 68 49 -45 33 -52 27 hvcurveto
return
            </CharString>
            <CharString index="37">
                rmoveto
480 100 -480 hlineto
return
            </CharString>
            <CharString index="38">
                1 callgsubr
-98 callsubr
return
            </CharString>
            <CharString index="39">
                0 219 -198 -21 688 -20 hstemhm
36 -52 callgsubr
233 156.5 hintmask 01111000
return
            </CharString>
            <CharString index="40">
                -138 -1 -95 -2 -151 vhcurveto
-4 hlineto
-18 63 -27 85 -17 54 rrcurveto
-88 hlineto
return
            </CharString>
            <CharString index="41">
                rmoveto
-400 -134 400 hlineto
return
            </CharString>
            <CharString index="42">
                -33 callsubr
hstem
-4 callsubr
106.5 115 vstem
492 return
            </CharString>
            <CharString index="43">
                rmoveto
13 1 callsubr
-153 hlineto
-2 107 -1 80 -2 72 65 24 73 13 80 3 rrcurveto
hintmask 10111000
-6 168 rlineto
hintmask 11011000
-35 callgsubr
            </CharString>
            <CharString index="44">
                rmoveto
-99 callgsubr
endchar
            </CharString>
            <CharString index="45">
                78 111 94 hstem
21 callsubr
147 118 vstem
213 return
            </CharString>
            <CharString index="46">
                -18 133 458 133 hstem
46 169 195 169 vstem
return
            </CharString>
            <CharString index="47">
                hintmask 1001100110000000
432 -10 rmoveto
169 20 -175 293 57 81 53 87 48 83 rlinecurve
hintmask 0011010110000000
-162 11 -39 -79 -41 -73 -48 -70 rlinecurve
-47 -1 rlineto
452 vlineto
hintmask 0101011010000000
-158 -14 rlineto
-780 158 230 vlineto
50 2 rlineto
return
            </CharString>
            <CharString index="48">
                11 -21 31 -21 31 -21 213 113 228 134 -10 -20 hstemhm
84 161 return
            </CharString>
            <CharString index="49">
                -18 140 566 -20 hstem
69 163 161 163 vstem
return
            </CharString>
            <CharString index="50">
                492 619 -106 callgsubr
return
            </CharString>
            <CharString index="51">
                rmoveto
111 90 -173 219 179 210 -111 91 -181 -231 -7 -153 rlineto
461 -226 rmoveto
111 90 -176 217 181 212 -111 91 -181 -231 -6 -153 rlineto
endchar
            </CharString>
            <CharString index="52">
                87 -71 callsubr
return
            </CharString>
            <CharString index="53">
                166 -2 143 -3 107 vhcurveto
17 26 28 10 32 hhcurveto
return
            </CharString>
            <CharString index="54">
                hstemhm
74 157 -7 callgsubr
return
            </CharString>
            <CharString index="55">
                164.5 return
            </CharString>
            <CharString index="56">
                rmoveto
232 205 90 162 161 vvcurveto
159 -88 158 -229 204 vhcurveto
-109 -96 rlineto
204 -172 66 -128 -131 vvcurveto
-129 -62 -123 -211 -177 vhcurveto
endchar
            </CharString>
            <CharString index="57">
                -256 295 hstem
336 142 vstem
243 -33 rmoveto
-56 callsubr
9 -118 rlineto
-27 callgsubr
51 -49 58 -154 52 vhcurveto
endchar
            </CharString>
            <CharString index="58">
                0 178 -178 181 -160 -21 562 -20 return
            </CharString>
            <CharString index="59">
                21 -21 685 7 -4 -20 24 -20 hstemhm
231 165 hintmask 10011000
return
            </CharString>
            <CharString index="60">
                hstem
61 156 190 155 vstem
return
            </CharString>
            <CharString index="61">
                0 8 -2 3 -4 -4 -2 -3 0 hflex1
0 -9 2 -3 4 4 2 3 0 hflex1
return
            </CharString>
            <CharString index="62">
                -18 127 344 126 return
            </CharString>
            <CharString index="63">
                231 -633 -71 callgsubr
return
            </CharString>
            <CharString index="64">
                -244 88 160 -21 34 -21 134 87 return
            </CharString>
            <CharString index="65">
                160 90 159 return
            </CharString>
            <CharString index="66">
                0 125 438 125 return
            </CharString>
            <CharString index="67">
                13 135 rlineto
-286 553 -165 -688 hlineto
return
            </CharString>
            <CharString index="68">
                rmoveto
5 161 rlineto
return
            </CharString>
            <CharString index="69">
                -9 119 -118 128 121.5 90.5 106 130 -124 128 hstemhm
29 143 70 129 81 142 return
            </CharString>
            <CharString index="70">
                21 -21 443 134 20 callsubr
return
            </CharString>
            <CharString index="71">
                -59 -25 -33 -36 -48 vvcurveto
return
            </CharString>
            <CharString index="72">
                -73 callgsubr
endchar
            </CharString>
            <CharString index="73">
                -16 callgsubr
hstem
271 119 vstem
494 return
            </CharString>
            <CharString index="74">
                -36 callgsubr
-37 callsubr
return
            </CharString>
            <CharString index="75">
                11 -21 31 -21 31 -21 221 111.5 211.5 -20 31 -20 235 11 callgsubr
89 158 return
            </CharString>
            <CharString index="76">
                -8 141 -116 -21 548 155 hstemhm
69 170 hintmask 10110000
return
            </CharString>
            <CharString index="77">
                -158 -14 rlineto
-203 vlineto
-185 -145 -119 -208 -168 83 -98 116 61 48 30 37 36 hvcurveto
endchar
            </CharString>
            <CharString index="78">
                -8 129 314 134 -127 127 return
            </CharString>
            <CharString index="79">
                -103 callsubr
hintmask 11110010
return
            </CharString>
            <CharString index="80">
                165 12 82 56 66 vvcurveto
return
            </CharString>
            <CharString index="81">
                rmoveto
273 -128 106 -373 -47 vhcurveto
return
            </CharString>
            <CharString index="82">
                -18 132 -99 -2 callgsubr
574 132 -19 -20 27 -20 hstemhm
46 165 202 166 hintmask 10010011
return
            </CharString>
            <CharString index="83">
                161 hstemhm
return
            </CharString>
            <CharString index="84">
                653 134 hstem
112 400 vstem
512 787 -66 callgsubr
endchar
            </CharString>
            <CharString index="85">
                16 -32 -37 8 -41 hhcurveto
-156 -127 -131 -183 -79 18 -63 31 -47 hvcurveto
-47 -66 rlineto
return
            </CharString>
            <CharString index="86">
                -4 callgsubr
84 100 return
            </CharString>
            <CharString index="87">
                98.5 return
            </CharString>
            <CharString index="88">
                1061 hstemhm
145 152 -151 157 -58 151 -143 140 hintmask 10100000
494 return
            </CharString>
            <CharString index="89">
                hmoveto
7 194 rlineto
-146 hlineto
-6 -194 rlineto
return
            </CharString>
            <CharString index="90">
                hstem
259 159 vstem
return
            </CharString>
            <CharString index="91">
                101 177 95 return
            </CharString>
            <CharString index="92">
                hstemhm
231 151 -149 140 -50 158 -151 152 hintmask 10010000
128 return
            </CharString>
            <CharString index="93">
                rmoveto
-81 25 -65 -58 -39 -103 -1 -92 rlinecurve
184 8 -19 68 2 85 19 67 rlinecurve
return
            </CharString>
            <CharString index="94">
                10 callgsubr
271 119 return
            </CharString>
            <CharString index="95">
                hstemhm
80 158 156 158 return
            </CharString>
            <CharString index="96">
                vvcurveto
-63 70 -54 180 -5 vhcurveto
return
            </CharString>
            <CharString index="97">
                -118 vlineto
endchar
            </CharString>
            <CharString index="98">
                -59 -175 rlineto
-3 hlineto
-61 175 rlineto
-87 -376 87 217 2 hlineto
return
            </CharString>
            <CharString index="99">
                14 1 callsubr
return
            </CharString>
            <CharString index="100">
                157 157 return
            </CharString>
            <CharString index="101">
                11 -21 31 -21 31 -21 271 135 272 -20 hstemhm
78 163 return
            </CharString>
            <CharString index="102">
                -10 132 302 145 return
            </CharString>
            <CharString index="103">
                -246 -33 callsubr
return
            </CharString>
            <CharString index="104">
                125 730 124 hstem
return
            </CharString>
            <CharString index="105">
                -21 27 -21 return
            </CharString>
            <CharString index="106">
                156 126 135 206 207 -119 124 -157 return
            </CharString>
            <CharString index="107">
                549 hmoveto
-40 callgsubr
return
            </CharString>
            <CharString index="108">
                103 -192 vlineto
return
            </CharString>
            <CharString index="109">
                -18 126 -81 -21 25 -21 444 125 -26 -20 22 -20 return
            </CharString>
            <CharString index="110">
                rlineto
36 49 25 64 74 vvcurveto
137 -89 86 -202 -27 vhcurveto
return
            </CharString>
            <CharString index="111">
                70 -55 180 -4 vhcurveto
return
            </CharString>
            <CharString index="112">
                -164 -118 vlineto
return
            </CharString>
            <CharString index="113">
                108 87 -90 -168 -170 -80 -87 -115 return
            </CharString>
            <CharString index="114">
                21 -21 553 135 hstem
231 165 vstem
return
            </CharString>
            <CharString index="115">
                hintmask 100000000000000000000000000000001000000000000000
return
            </CharString>
            <CharString index="116">
                hstem
79 466 vstem
545 return
            </CharString>
            <CharString index="117">
                100 83 -16 callgsubr
hstemhm
return
            </CharString>
            <CharString index="118">
                -20 34 -20 hstemhm
return
            </CharString>
            <CharString index="119">
                -20 21 callgsubr
221 146 hintmask 00111110
return
            </CharString>
            <CharString index="120">
                hlineto
16 162 rlineto
-106 hlineto
-16 -162 rlineto
return
            </CharString>
            <CharString index="121">
                hstem
-28 callsubr
vstem
508 return
            </CharString>
            <CharString index="122">
                125 -45 125 return
            </CharString>
            <CharString index="123">
                -135 -205 vhcurveto
85 4 rmoveto
170 return
            </CharString>
            <CharString index="124">
                1049 hstem
359 156 vstem
193 return
            </CharString>
            <CharString index="125">
                610 hstem
134 363 vstem
384 return
            </CharString>
            <CharString index="126">
                183 rlineto
-208 hlineto
return
            </CharString>
            <CharString index="127">
                hstemhm
92 164 return
            </CharString>
            <CharString index="128">
                hstemhm
50 157 return
            </CharString>
</ttFont>
